<svg xmlns="http://www.w3.org/2000/svg" xmlns:xlink="http://www.w3.org/1999/xlink" width="500" zoomAndPan="magnify" viewBox="0 0 375 374.999991" height="500" preserveAspectRatio="xMidYMid meet" version="1.0"><defs><g/><clipPath id="c90ee4468c"><path d="M 15.132812 15.777344 L 360.132812 15.777344 L 360.132812 287.277344 L 15.132812 287.277344 Z M 15.132812 15.777344 " clip-rule="nonzero"/></clipPath><clipPath id="8e3d771624"><path d="M 53.339844 112 L 75 112 L 75 134 L 53.339844 134 Z M 53.339844 112 " clip-rule="nonzero"/></clipPath><clipPath id="5e377c344b"><path d="M 250 348 L 257 348 L 257 365.25 L 250 365.25 Z M 250 348 " clip-rule="nonzero"/></clipPath><clipPath id="3917acff0a"><path d="M 316 222 L 333.839844 222 L 333.839844 230 L 316 230 Z M 316 222 " clip-rule="nonzero"/></clipPath><clipPath id="b0e89c60f0"><path d="M 15.132812 334.605469 L 360.132812 334.605469 L 360.132812 362.355469 L 15.132812 362.355469 Z M 15.132812 334.605469 " clip-rule="nonzero"/></clipPath><clipPath id="40d4e2f95f"><path d="M 315.640625 151.691406 L 337.390625 151.691406 L 337.390625 169.691406 L 315.640625 169.691406 Z M 315.640625 151.691406 " clip-rule="nonzero"/></clipPath><clipPath id="526309f7bf"><path d="M 97.027344 231.773438 L 118.777344 231.773438 L 118.777344 249.773438 L 97.027344 249.773438 Z M 97.027344 231.773438 " clip-rule="nonzero"/></clipPath><clipPath id="e8789fd2d7"><path d="M 293.277344 249.96875 L 309.027344 249.96875 L 309.027344 262.71875 L 293.277344 262.71875 Z M 293.277344 249.96875 " clip-rule="nonzero"/></clipPath><clipPath id="95d2fdaf8e"><path d="M 26.570312 199.070312 L 48.320312 199.070312 L 48.320312 217.070312 L 26.570312 217.070312 Z M 26.570312 199.070312 " clip-rule="nonzero"/></clipPath><clipPath id="b147809c08"><path d="M 49 313 L 148.929688 313 L 148.929688 335 L 49 335 Z M 49 313 " clip-rule="nonzero"/></clipPath></defs><rect x="-37.5" width="450" fill="#ffffff" y="-37.499999" height="449.999989" fill-opacity="1"/><rect x="-37.5" width="450" fill="#ffffff" y="-37.499999" height="449.999989" fill-opacity="1"/><rect x="-37.5" width="450" fill="#ffffff" y="-37.499999" height="449.999989" fill-opacity="1"/><g clip-path="url(#c90ee4468c)"><path fill="#77c2cf" d="M 187.632812 360.777344 C 92.546875 360.777344 15.132812 283.363281 15.132812 188.277344 C 15.132812 93.1875 92.546875 15.777344 187.632812 15.777344 C 282.71875 15.777344 360.132812 93.1875 360.132812 188.277344 C 360.132812 283.363281 282.71875 360.777344 187.632812 360.777344 Z M 187.632812 18.324219 C 93.90625 18.324219 17.683594 94.546875 17.683594 188.277344 C 17.683594 282.003906 93.90625 358.226562 187.632812 358.226562 C 281.359375 358.226562 357.582031 282.003906 357.582031 188.277344 C 357.582031 94.546875 281.359375 18.324219 187.632812 18.324219 Z M 187.632812 18.324219 " fill-opacity="1" fill-rule="nonzero"/></g><path fill="#fbc351" d="M 149.609375 26.339844 L 149.757812 28.640625 L 151.734375 29.824219 L 149.589844 30.675781 L 149.078125 32.921875 L 147.605469 31.148438 L 145.3125 31.351562 L 146.546875 29.402344 L 145.640625 27.28125 L 147.875 27.855469 L 149.609375 26.339844 " fill-opacity="1" fill-rule="nonzero"/><path fill="#fbc351" d="M 113.585938 59.347656 L 113.734375 61.648438 L 115.710938 62.835938 L 113.566406 63.6875 L 113.054688 65.933594 L 111.582031 64.15625 L 109.289062 64.363281 L 110.519531 62.414062 L 109.617188 60.292969 L 111.851562 60.867188 L 113.585938 59.347656 " fill-opacity="1" fill-rule="nonzero"/><path fill="#fbc351" d="M 174.527344 54.113281 L 174.671875 56.414062 L 176.648438 57.597656 L 174.507812 58.449219 L 173.992188 60.695312 L 172.523438 58.921875 L 170.226562 59.125 L 171.464844 57.179688 L 170.558594 55.054688 L 172.792969 55.628906 L 174.527344 54.113281 " fill-opacity="1" fill-rule="nonzero"/><path fill="#fbc351" d="M 138.5625 59.515625 L 138.710938 61.816406 L 140.6875 63 L 138.546875 63.851562 L 138.03125 66.101562 L 136.5625 64.324219 L 134.265625 64.527344 L 135.5 62.578125 L 134.59375 60.457031 L 136.828125 61.03125 L 138.5625 59.515625 " fill-opacity="1" fill-rule="nonzero"/><path fill="#fbc351" d="M 145.328125 189.949219 L 146.945312 191.585938 L 149.214844 191.183594 L 148.152344 193.230469 L 149.238281 195.265625 L 146.964844 194.890625 L 145.367188 196.554688 L 145.023438 194.273438 L 142.949219 193.265625 L 145.007812 192.230469 L 145.328125 189.949219 " fill-opacity="1" fill-rule="nonzero"/><path fill="#fbc351" d="M 113.539062 154.992188 L 115.160156 156.632812 L 117.425781 156.226562 L 116.367188 158.277344 L 117.453125 160.3125 L 115.179688 159.933594 L 113.582031 161.597656 L 113.234375 159.316406 L 111.164062 158.308594 L 113.222656 157.277344 L 113.539062 154.992188 " fill-opacity="1" fill-rule="nonzero"/><path fill="#fbc351" d="M 85.828125 103.894531 L 87.449219 105.535156 L 89.714844 105.132812 L 88.65625 107.179688 L 89.742188 109.214844 L 87.46875 108.839844 L 85.871094 110.5 L 85.523438 108.222656 L 83.453125 107.214844 L 85.511719 106.179688 L 85.828125 103.894531 " fill-opacity="1" fill-rule="nonzero"/><path fill="#fbc351" d="M 80.902344 131.667969 L 82.519531 133.308594 L 84.789062 132.90625 L 83.730469 134.953125 L 84.8125 136.988281 L 82.539062 136.613281 L 80.941406 138.273438 L 80.597656 135.992188 L 78.523438 134.988281 L 80.585938 133.953125 L 80.902344 131.667969 " fill-opacity="1" fill-rule="nonzero"/><path fill="#fbc351" d="M 173.597656 78.890625 L 172.585938 80.960938 L 173.71875 82.972656 L 171.433594 82.648438 L 169.875 84.347656 L 169.480469 82.074219 L 167.382812 81.117188 L 169.417969 80.035156 L 169.683594 77.742188 L 171.335938 79.347656 L 173.597656 78.890625 " fill-opacity="1" fill-rule="nonzero"/><path fill="#fbc351" d="M 127.316406 130.769531 L 126.304688 132.839844 L 127.4375 134.851562 L 125.15625 134.527344 L 123.597656 136.226562 L 123.199219 133.953125 L 121.101562 132.996094 L 123.136719 131.914062 L 123.402344 129.621094 L 125.058594 131.226562 L 127.316406 130.769531 " fill-opacity="1" fill-rule="nonzero"/><path fill="#fbc351" d="M 99.328125 86.046875 L 98.316406 88.121094 L 99.449219 90.128906 L 97.167969 89.804688 L 95.609375 91.503906 L 95.210938 89.230469 L 93.113281 88.273438 L 95.148438 87.191406 L 95.414062 84.898438 L 97.070312 86.503906 L 99.328125 86.046875 " fill-opacity="1" fill-rule="nonzero"/><path fill="#dff4e9" d="M 227.949219 7.90625 C 199.609375 12.902344 164.070312 96.816406 158.714844 150.132812 L 164.566406 158.527344 C 200.722656 140.261719 249.804688 4.050781 227.949219 7.90625 " fill-opacity="1" fill-rule="nonzero"/><path fill="#ebf8f0" d="M 182.25 11.238281 C 188.535156 8.90625 190.796875 21.921875 189.972656 41.351562 C 191.203125 17.085938 188.632812 0.00390625 181.210938 3.222656 C 158.539062 13.050781 144.195312 80.683594 145.117188 133.226562 C 145.84375 82.515625 160.917969 19.160156 182.25 11.238281 " fill-opacity="1" fill-rule="nonzero"/><path fill="#ebf8f0" d="M 154.734375 164.230469 C 170.65625 150.398438 182.628906 105.425781 187.660156 66.449219 C 182.609375 104.152344 170.28125 149.699219 154.734375 164.230469 " fill-opacity="1" fill-rule="nonzero"/><path fill="#ebf8f0" d="M 98.96875 31.519531 C 102.796875 26.007812 112.082031 35.402344 122.492188 51.816406 C 109.652344 31.199219 97.800781 18.648438 93.542969 25.535156 C 80.542969 46.566406 107.367188 110.277344 138.109375 152.875 C 109.765625 110.835938 85.980469 50.222656 98.96875 31.519531 " fill-opacity="1" fill-rule="nonzero"/><path fill="#ebf8f0" d="M 163.695312 172.828125 C 168.867188 152.367188 153.03125 108.613281 134.917969 73.742188 C 152.289062 107.574219 168.164062 152.007812 163.695312 172.828125 " fill-opacity="1" fill-rule="nonzero"/><g clip-path="url(#8e3d771624)"><path fill="#fbc351" d="M 63.578125 112.546875 L 67.300781 118.976562 L 74.703125 119.550781 L 69.746094 125.082031 L 71.484375 132.308594 L 64.699219 129.296875 L 58.371094 133.1875 L 59.136719 125.792969 L 53.484375 120.972656 L 60.746094 119.414062 L 63.578125 112.546875 " fill-opacity="1" fill-rule="nonzero"/></g><path fill="#fbc351" d="M 64.070312 124.097656 L 62.285156 123.847656 L 74.03125 193.339844 L 78.0625 193.300781 L 64.070312 124.097656 " fill-opacity="1" fill-rule="nonzero"/><path fill="#c9ecdd" d="M 280.40625 74.300781 C 257.859375 65.003906 193.84375 109.222656 164.664062 145.878906 L 164.699219 154.9375 C 199.050781 158.808594 297.976562 81.542969 280.40625 74.300781 " fill-opacity="1" fill-rule="nonzero"/><path fill="#dff4e9" d="M 300.019531 113.621094 C 284.089844 102.695312 225.164062 119.980469 183.125 142.519531 C 223.222656 121.894531 276.792969 106.601562 291.652344 116.730469 C 299.929688 122.375 262.28125 141.046875 223.617188 152.726562 C 265.699219 140.8125 309.007812 119.785156 300.019531 113.621094 " fill-opacity="1" fill-rule="nonzero"/><path fill="#64312b" d="M 135.027344 118.457031 C 120.335938 117.550781 122.695312 101.574219 122.695312 101.574219 C 122.695312 101.574219 116.527344 93.949219 122.695312 87.050781 C 128.859375 80.152344 139.742188 85.960938 139.742188 85.960938 C 139.742188 85.960938 147.542969 75.429688 157.878906 81.964844 C 168.21875 88.503906 166.039062 101.394531 166.039062 101.394531 C 166.039062 101.394531 175.65625 108.109375 169.308594 117.550781 C 162.957031 126.992188 157.152344 122.632812 157.152344 122.632812 C 157.152344 122.632812 152.820312 130.398438 141.375 125.539062 C 135.390625 123 135.027344 118.457031 135.027344 118.457031 " fill-opacity="1" fill-rule="nonzero"/><path fill="#e9aa70" d="M 142.582031 140.949219 L 113.683594 187.40625 L 122.238281 189.402344 C 137.808594 170.953125 150.367188 156.882812 151.441406 154.40625 C 153.589844 149.460938 147.597656 134.839844 142.582031 140.949219 " fill-opacity="1" fill-rule="nonzero"/><path fill="#e68b5a" d="M 142.867188 140.644531 C 145.835938 143.691406 143.027344 148.90625 141.632812 152.113281 C 140.574219 154.558594 133.195312 170.335938 117.933594 188.398438 L 122.238281 189.402344 C 137.808594 170.953125 150.367188 156.882812 151.441406 154.40625 C 153.550781 149.554688 147.816406 135.398438 142.867188 140.644531 " fill-opacity="1" fill-rule="nonzero"/><path fill="#fdeecb" d="M 150.789062 168.054688 C 134.066406 155.34375 136.835938 133.703125 147.398438 133.417969 C 163.457031 132.992188 150.789062 168.054688 150.789062 168.054688 " fill-opacity="1" fill-rule="nonzero"/><path fill="#edd8ad" d="M 147.398438 133.417969 C 143.117188 133.535156 140.117188 137.160156 139.175781 142.277344 C 144.007812 144.011719 149.554688 145.152344 155.523438 145.507812 C 155.660156 138.800781 153.847656 133.246094 147.398438 133.417969 " fill-opacity="1" fill-rule="nonzero"/><path fill="#e9aa70" d="M 169.3125 215.960938 C 190.972656 270.167969 251.894531 352.382812 251.894531 352.382812 L 210.828125 229.511719 L 169.3125 215.960938 " fill-opacity="1" fill-rule="nonzero"/><path fill="#e68b5a" d="M 235.921875 304.605469 L 210.828125 229.511719 L 169.3125 215.960938 C 179.035156 240.296875 196.671875 270.273438 213.15625 295.925781 C 220.003906 296.9375 227.867188 299.910156 235.921875 304.605469 " fill-opacity="1" fill-rule="nonzero"/><path fill="#e9aa70" d="M 201.199219 232.222656 C 201.199219 232.222656 238.507812 255.714844 244.222656 256.617188 C 249.9375 257.519531 321.839844 224.691406 321.839844 224.691406 C 321.839844 224.691406 251.742188 234.332031 247.832031 233.425781 C 243.921875 232.523438 218.046875 207.226562 218.046875 207.226562 L 201.199219 232.222656 " fill-opacity="1" fill-rule="nonzero"/><path fill="#e68b5a" d="M 245.832031 256.449219 C 250.214844 248.371094 257 240.457031 265.855469 233.765625 C 266.894531 232.976562 267.957031 232.261719 269.019531 231.535156 C 257.933594 232.84375 249.144531 233.730469 247.832031 233.429688 C 243.917969 232.523438 218.046875 207.226562 218.046875 207.226562 L 201.199219 232.222656 C 201.199219 232.222656 238.503906 255.714844 244.21875 256.617188 C 244.546875 256.667969 245.101562 256.605469 245.832031 256.449219 " fill-opacity="1" fill-rule="nonzero"/><path fill="#fdeecb" d="M 195.105469 281.941406 C 218.542969 272.441406 256.441406 220.96875 256.441406 220.96875 C 256.441406 220.96875 195.089844 179.804688 183.960938 176.445312 L 171.265625 179.449219 C 176.972656 218.703125 181.832031 254.550781 195.105469 281.941406 " fill-opacity="1" fill-rule="nonzero"/><path fill="#ead4ab" d="M 247.425781 232.339844 C 247.46875 232.3125 247.5 232.414062 247.539062 232.445312 C 252.988281 225.65625 256.441406 220.96875 256.441406 220.96875 C 256.441406 220.96875 195.089844 179.804688 183.960938 176.445312 L 171.265625 179.449219 C 176.847656 217.859375 181.644531 252.988281 194.285156 280.144531 C 197.039062 275.777344 227.789062 244.933594 247.425781 232.339844 " fill-opacity="1" fill-rule="nonzero"/><path fill="#b5bf43" d="M 182.546875 283.722656 C 208.421875 271.070312 246.929688 205.117188 246.929688 205.117188 C 246.929688 205.117188 179.539062 164.464844 168.710938 162.054688 L 156.675781 166.269531 C 162.320312 207.597656 167.628906 249.167969 182.546875 283.722656 " fill-opacity="1" fill-rule="nonzero"/><path fill="#a0a533" d="M 232.335938 228.214844 C 241.039062 215.195312 246.929688 205.117188 246.929688 205.117188 C 246.929688 205.117188 179.539062 164.464844 168.710938 162.054688 L 156.675781 166.269531 C 157.441406 171.871094 158.203125 177.480469 158.980469 183.070312 C 162.1875 181.953125 191.671875 190.660156 232.335938 228.214844 " fill-opacity="1" fill-rule="nonzero"/><path fill="#b5bf43" d="M 146.523438 137.585938 C 139.753906 151.589844 140.882812 176.433594 142.914062 177.789062 C 144.941406 179.144531 176.214844 165.96875 176.488281 165.214844 C 176.757812 164.464844 162.542969 135.101562 160.511719 133.519531 C 158.480469 131.9375 147.671875 135.207031 146.523438 137.585938 " fill-opacity="1" fill-rule="nonzero"/><path fill="#a0a533" d="M 156.8125 145.648438 C 160.371094 145.648438 163.707031 145.113281 166.605469 144.191406 C 163.792969 138.691406 161.28125 134.117188 160.511719 133.519531 C 158.480469 131.9375 147.671875 135.207031 146.523438 137.585938 C 145.691406 139.304688 144.980469 141.191406 144.375 143.175781 C 147.789062 144.71875 152.109375 145.648438 156.8125 145.648438 " fill-opacity="1" fill-rule="nonzero"/><path fill="#a0a533" d="M 160.511719 133.519531 C 159.566406 132.78125 156.707031 133.105469 153.8125 133.894531 C 157.328125 142.613281 163.144531 166.59375 162.84375 167.324219 C 162.628906 167.839844 152.730469 173.644531 142.894531 177.769531 C 142.902344 177.777344 142.90625 177.785156 142.914062 177.789062 C 144.941406 179.144531 177.34375 166.511719 177.613281 165.761719 C 177.882812 165.007812 162.542969 135.101562 160.511719 133.519531 " fill-opacity="1" fill-rule="nonzero"/><path fill="#edd8ad" d="M 160.59375 135.335938 C 160.300781 133.910156 156.976562 133.390625 153.175781 134.175781 C 149.371094 134.960938 146.523438 136.75 146.816406 138.175781 C 147.109375 139.601562 150.433594 140.121094 154.238281 139.335938 C 158.039062 138.550781 160.886719 136.761719 160.59375 135.335938 " fill-opacity="1" fill-rule="nonzero"/><path fill="#ce6450" d="M 147.453125 119.824219 L 148.988281 136.882812 C 152.890625 137.921875 156.253906 137.046875 158.941406 133.761719 L 153.429688 109.253906 L 147.453125 119.824219 " fill-opacity="1" fill-rule="nonzero"/><path fill="#fdeecb" d="M 172.921875 162.203125 C 154.421875 152.265625 153.777344 130.453125 164.164062 128.523438 C 179.957031 125.585938 172.921875 162.203125 172.921875 162.203125 " fill-opacity="1" fill-rule="nonzero"/><path fill="#edd8ad" d="M 164.164062 128.523438 C 158.175781 129.636719 155.863281 137.359375 158.519531 145.605469 C 158.773438 145.605469 159.023438 145.625 159.277344 145.625 C 164.605469 145.625 169.707031 145.09375 174.460938 144.140625 C 174.230469 135.398438 172.023438 127.0625 164.164062 128.523438 " fill-opacity="1" fill-rule="nonzero"/><path fill="#e68b5a" d="M 172.320312 158.097656 C 161.863281 151.378906 161.5 136.632812 167.371094 135.328125 C 176.296875 133.339844 172.320312 158.097656 172.320312 158.097656 " fill-opacity="1" fill-rule="nonzero"/><path fill="#e9aa70" d="M 169.535156 135.550781 L 267.6875 169.433594 L 267.234375 170.789062 C 267.234375 170.789062 171.457031 152.265625 166.714844 149.78125 C 161.976562 147.296875 161.867188 133.972656 169.535156 135.550781 " fill-opacity="1" fill-rule="nonzero"/><path fill="#e68b5a" d="M 187.304688 141.683594 L 169.535156 135.550781 C 163.191406 134.246094 162.183594 143.121094 164.703125 147.640625 C 167.304688 143.839844 175.683594 141.800781 187.304688 141.683594 " fill-opacity="1" fill-rule="nonzero"/><path fill="#e9aa70" d="M 123.148438 188.449219 L 70.414062 167.167969 L 69.65625 168.546875 C 69.65625 168.546875 83.273438 177.683594 109.417969 191.265625 C 113.835938 193.558594 119.71875 192.96875 122.730469 189 L 123.148438 188.449219 " fill-opacity="1" fill-rule="nonzero"/><path fill="#e9aa70" d="M 144.867188 133.214844 C 154.890625 125.3125 154.25 113.285156 153.59375 109.503906 C 152.9375 105.726562 148.394531 94.617188 140.210938 96.777344 C 132.03125 98.933594 131.171875 107.015625 133.039062 116.03125 C 134.375 122.503906 139.828125 130.507812 144.867188 133.214844 " fill-opacity="1" fill-rule="nonzero"/><g clip-path="url(#5e377c344b)"><path fill="#fdeecb" d="M 256.292969 365.257812 C 257.582031 357.554688 255.554688 349.6875 255.554688 349.6875 C 255.554688 349.6875 250.945312 346.839844 250.207031 348.683594 C 249.46875 350.523438 256.292969 365.257812 256.292969 365.257812 " fill-opacity="1" fill-rule="nonzero"/></g><g clip-path="url(#3917acff0a)"><path fill="#fdeecb" d="M 333.71875 229.449219 C 327.792969 224.371094 320.011719 222.050781 320.011719 222.050781 C 320.011719 222.050781 315.199219 224.535156 316.394531 226.117188 C 317.589844 227.703125 333.71875 229.449219 333.71875 229.449219 " fill-opacity="1" fill-rule="nonzero"/></g><path fill="#a0a533" d="M 225.523438 238.140625 C 227.089844 235.921875 228.601562 233.738281 230.050781 231.605469 C 221.597656 223.609375 204.53125 209.679688 176.875 196.445312 C 196.628906 207.511719 212.769531 221.46875 225.523438 238.140625 " fill-opacity="1" fill-rule="nonzero"/><path fill="#a0a533" d="M 186.453125 281.453125 C 187.785156 280.582031 189.136719 279.617188 190.511719 278.53125 C 182.257812 264.007812 175.703125 248.273438 170.933594 231.277344 C 175.496094 252.132812 181.238281 268.890625 186.453125 281.453125 " fill-opacity="1" fill-rule="nonzero"/><path fill="#a0a533" d="M 219.125 246.96875 C 219.917969 245.90625 220.699219 244.84375 221.476562 243.777344 C 213.828125 236.53125 204.03125 228.351562 191.730469 219.949219 C 202.238281 228.164062 211.34375 237.1875 219.125 246.96875 " fill-opacity="1" fill-rule="nonzero"/><path fill="#64312b" d="M 137.835938 88.910156 C 129.828125 96.925781 143.476562 113.867188 156.226562 117.371094 C 156.226562 117.371094 162.90625 100.722656 154.871094 92.523438 C 149.003906 86.539062 141.332031 85.40625 137.835938 88.910156 " fill-opacity="1" fill-rule="nonzero"/><path fill="#e9aa70" d="M 156.1875 113.777344 C 156.980469 110.789062 156.4375 107.800781 154.972656 107.105469 C 153.507812 106.410156 151.679688 108.269531 150.890625 111.253906 C 150.097656 114.242188 150.640625 117.230469 152.101562 117.925781 C 153.566406 118.621094 155.394531 116.765625 156.1875 113.777344 " fill-opacity="1" fill-rule="nonzero"/><path fill="#ce6450" d="M 155.285156 113.765625 C 155.78125 111.878906 155.441406 109.992188 154.515625 109.554688 C 153.59375 109.117188 152.441406 110.292969 151.941406 112.179688 C 151.441406 114.066406 151.785156 115.953125 152.707031 116.390625 C 153.632812 116.832031 154.785156 115.652344 155.285156 113.765625 " fill-opacity="1" fill-rule="nonzero"/><path fill="#e9aa70" d="M 154.472656 115.40625 C 154.746094 114.222656 154.4375 113.007812 153.773438 112.691406 C 153.109375 112.378906 152.347656 113.082031 152.070312 114.265625 C 151.792969 115.453125 152.105469 116.667969 152.769531 116.984375 C 153.433594 117.296875 154.195312 116.59375 154.472656 115.40625 " fill-opacity="1" fill-rule="nonzero"/><path fill="#e68b5a" d="M 74.558594 168.839844 L 70.414062 167.167969 L 70.238281 167.488281 Z M 74.558594 168.839844 " fill-opacity="1" fill-rule="nonzero"/><path fill="#e68b5a" d="M 120.191406 185.671875 C 117.210938 187.652344 112.089844 189.082031 108.648438 187.628906 C 95.042969 181.898438 84.667969 177.023438 77.699219 173.589844 C 84.304688 177.585938 94.929688 183.738281 109.417969 191.265625 C 113.835938 193.558594 119.632812 193.082031 122.644531 189.113281 L 124.820312 186.351562 L 120.191406 185.671875 " fill-opacity="1" fill-rule="nonzero"/><path fill="#fdeecb" d="M 149.019531 138.039062 C 146.683594 148.382812 150.660156 164.238281 150.660156 164.238281 C 150.660156 164.238281 149.714844 142.339844 154.34375 137.886719 L 149.019531 138.039062 " fill-opacity="1" fill-rule="nonzero"/><path fill="#edd8ad" d="M 148.300781 144.523438 C 149.34375 144.804688 150.433594 145.03125 151.566406 145.210938 C 152.128906 141.941406 153 139.179688 154.34375 137.886719 L 149.019531 138.039062 C 148.566406 140.042969 148.355469 142.261719 148.300781 144.523438 " fill-opacity="1" fill-rule="nonzero"/><path fill="#342729" d="M 141.980469 114.082031 C 141.621094 112.75 141.996094 111.5 142.820312 111.289062 C 143.648438 111.082031 144.613281 112 144.972656 113.339844 C 145.332031 114.679688 144.949219 115.929688 144.121094 116.128906 C 143.296875 116.332031 142.339844 115.414062 141.980469 114.082031 " fill-opacity="1" fill-rule="nonzero"/><path fill="#342729" d="M 134.449219 115.925781 C 134.121094 114.664062 134.507812 113.453125 135.308594 113.222656 C 136.117188 112.988281 137.039062 113.824219 137.363281 115.09375 C 137.691406 116.359375 137.300781 117.566406 136.492188 117.796875 C 135.691406 118.019531 134.777344 117.183594 134.449219 115.925781 " fill-opacity="1" fill-rule="nonzero"/><path fill="#ce6450" d="M 139.753906 115.90625 C 139.753906 115.90625 139.964844 116.125 140.253906 116.488281 C 139.613281 118.707031 139.109375 122.328125 142.289062 121.136719 C 142.285156 121.230469 142.308594 121.324219 142.292969 121.414062 C 137.089844 124.25 139.121094 117.34375 139.753906 115.90625 " fill-opacity="1" fill-rule="nonzero"/><path fill="#35262f" d="M 139.664062 124.683594 C 139.734375 124.894531 139.808594 125.105469 139.902344 125.316406 C 140.921875 127.570312 143.046875 128.488281 144.464844 127.800781 C 145.773438 127.164062 145.972656 125.4375 145.234375 123.332031 L 139.664062 124.683594 " fill-opacity="1" fill-rule="nonzero"/><path fill="#64312b" d="M 135.910156 108.960938 L 135.835938 108.808594 C 135.617188 108.359375 135.164062 108.246094 134.820312 108.554688 L 131.984375 111.113281 C 131.628906 111.433594 131.519531 112.0625 131.742188 112.523438 L 131.816406 112.679688 L 135.910156 108.960938 " fill-opacity="1" fill-rule="nonzero"/><path fill="#64312b" d="M 145.148438 108.957031 L 145.203125 108.796875 C 145.367188 108.324219 145.128906 107.921875 144.667969 107.898438 L 140.855469 107.691406 C 140.378906 107.664062 139.855469 108.035156 139.6875 108.515625 L 139.628906 108.679688 L 145.148438 108.957031 " fill-opacity="1" fill-rule="nonzero"/><path fill="#f0e4c9" d="M 140.917969 126.175781 C 140.722656 125.992188 140.539062 125.75 140.382812 125.390625 C 140.3125 125.230469 140.261719 125.066406 140.210938 124.90625 L 144.996094 123.632812 C 145.246094 124.40625 145.207031 124.847656 144.980469 125.164062 L 140.917969 126.175781 " fill-opacity="1" fill-rule="nonzero"/><g clip-path="url(#b0e89c60f0)"><path fill="#77c2cf" d="M 187.632812 362.394531 C 92.546875 362.394531 15.132812 284.980469 15.132812 189.894531 C 15.132812 94.804688 92.546875 17.394531 187.632812 17.394531 C 282.71875 17.394531 360.132812 94.804688 360.132812 189.894531 C 360.132812 284.980469 282.71875 362.394531 187.632812 362.394531 Z M 187.632812 19.941406 C 93.90625 19.941406 17.683594 96.164062 17.683594 189.894531 C 17.683594 283.621094 93.90625 359.84375 187.632812 359.84375 C 281.359375 359.84375 357.582031 283.621094 357.582031 189.894531 C 357.582031 96.164062 281.359375 19.941406 187.632812 19.941406 Z M 187.632812 19.941406 " fill-opacity="1" fill-rule="nonzero"/></g><g clip-path="url(#40d4e2f95f)"><path fill="#fadb5e" d="M 322.730469 151.84375 C 322.707031 151.75 322.617188 151.691406 322.523438 151.714844 C 322.460938 151.730469 322.410156 151.78125 322.394531 151.84375 C 322.09375 152.972656 321.347656 155.054688 319.699219 156.328125 C 318.558594 157.210938 317.21875 157.824219 315.800781 158.109375 C 315.707031 158.128906 315.644531 158.21875 315.664062 158.3125 C 315.679688 158.378906 315.726562 158.425781 315.785156 158.441406 C 316.941406 158.761719 318.945312 159.464844 319.960938 160.652344 C 320.765625 161.59375 321.476562 163.949219 321.789062 165.101562 C 321.820312 165.1875 321.914062 165.246094 322.003906 165.21875 C 322.058594 165.203125 322.105469 165.15625 322.121094 165.101562 C 322.441406 163.929688 323.273438 161.507812 324.828125 160.480469 C 326.21875 159.558594 327.765625 159.097656 328.640625 158.890625 C 328.734375 158.867188 328.785156 158.773438 328.761719 158.679688 C 328.75 158.621094 328.707031 158.574219 328.648438 158.5625 C 327.59375 158.25 325.632812 157.550781 324.828125 156.5 C 323.582031 154.875 322.984375 152.914062 322.730469 151.84375 Z M 331.472656 161.503906 C 331.457031 161.445312 331.398438 161.414062 331.34375 161.429688 C 331.304688 161.4375 331.277344 161.464844 331.269531 161.503906 C 331.082031 162.195312 330.625 163.46875 329.617188 164.242188 C 328.917969 164.785156 328.101562 165.15625 327.230469 165.328125 C 327.175781 165.339844 327.136719 165.394531 327.152344 165.453125 C 327.160156 165.488281 327.1875 165.523438 327.226562 165.53125 C 327.929688 165.730469 329.160156 166.152344 329.777344 166.882812 C 330.269531 167.453125 330.707031 168.898438 330.898438 169.601562 C 330.914062 169.660156 330.976562 169.691406 331.027344 169.679688 C 331.066406 169.667969 331.089844 169.640625 331.101562 169.601562 C 331.300781 168.886719 331.808594 167.40625 332.757812 166.777344 C 333.609375 166.214844 334.554688 165.933594 335.085938 165.804688 C 335.144531 165.789062 335.175781 165.734375 335.164062 165.679688 C 335.152344 165.640625 335.125 165.613281 335.09375 165.601562 C 334.445312 165.410156 333.25 164.988281 332.757812 164.34375 C 331.992188 163.359375 331.628906 162.160156 331.472656 161.503906 Z M 334.925781 153.644531 C 334.917969 153.605469 334.878906 153.582031 334.839844 153.589844 C 334.816406 153.597656 334.800781 153.613281 334.789062 153.644531 C 334.667969 154.105469 334.363281 154.945312 333.691406 155.460938 C 333.230469 155.820312 332.6875 156.070312 332.109375 156.1875 C 332.070312 156.195312 332.046875 156.230469 332.050781 156.265625 C 332.058594 156.292969 332.078125 156.3125 332.105469 156.316406 C 332.574219 156.449219 333.386719 156.730469 333.800781 157.214844 C 334.128906 157.597656 334.417969 158.554688 334.542969 159.019531 C 334.554688 159.058594 334.589844 159.078125 334.628906 159.066406 C 334.652344 159.0625 334.671875 159.042969 334.675781 159.019531 C 334.808594 158.546875 335.144531 157.5625 335.777344 157.144531 C 336.339844 156.769531 336.96875 156.585938 337.328125 156.5 C 337.367188 156.492188 337.390625 156.453125 337.378906 156.417969 C 337.375 156.394531 337.355469 156.375 337.332031 156.367188 C 336.902344 156.238281 336.109375 155.957031 335.78125 155.527344 C 335.277344 154.875 335.03125 154.082031 334.925781 153.644531 Z M 334.925781 153.644531 " fill-opacity="1" fill-rule="nonzero"/></g><g clip-path="url(#526309f7bf)"><path fill="#fadb5e" d="M 104.117188 231.925781 C 104.09375 231.832031 104.003906 231.773438 103.910156 231.796875 C 103.847656 231.8125 103.796875 231.863281 103.78125 231.925781 C 103.480469 233.050781 102.730469 235.136719 101.085938 236.410156 C 99.941406 237.292969 98.605469 237.902344 97.1875 238.191406 C 97.09375 238.210938 97.03125 238.296875 97.050781 238.394531 C 97.0625 238.457031 97.109375 238.503906 97.171875 238.523438 C 98.324219 238.84375 100.332031 239.542969 101.347656 240.734375 C 102.148438 241.675781 102.863281 244.027344 103.175781 245.179688 C 103.203125 245.269531 103.300781 245.328125 103.390625 245.296875 C 103.445312 245.285156 103.492188 245.238281 103.507812 245.179688 C 103.828125 244.011719 104.660156 241.589844 106.214844 240.558594 C 107.605469 239.636719 109.152344 239.179688 110.027344 238.972656 C 110.121094 238.949219 110.171875 238.851562 110.148438 238.757812 C 110.132812 238.703125 110.089844 238.65625 110.035156 238.640625 C 108.980469 238.332031 107.019531 237.632812 106.214844 236.582031 C 104.96875 234.957031 104.371094 232.996094 104.117188 231.925781 Z M 112.855469 241.585938 C 112.84375 241.527344 112.785156 241.496094 112.730469 241.507812 C 112.691406 241.519531 112.664062 241.546875 112.652344 241.585938 C 112.46875 242.277344 112.011719 243.550781 111.003906 244.324219 C 110.304688 244.867188 109.488281 245.238281 108.617188 245.410156 C 108.558594 245.421875 108.523438 245.476562 108.535156 245.535156 C 108.546875 245.570312 108.574219 245.605469 108.613281 245.613281 C 109.316406 245.8125 110.546875 246.234375 111.164062 246.960938 C 111.65625 247.535156 112.089844 248.980469 112.285156 249.683594 C 112.300781 249.742188 112.359375 249.773438 112.414062 249.757812 C 112.449219 249.75 112.472656 249.722656 112.488281 249.683594 C 112.6875 248.96875 113.191406 247.488281 114.144531 246.859375 C 114.992188 246.296875 115.9375 246.011719 116.472656 245.886719 C 116.53125 245.871094 116.5625 245.816406 116.546875 245.757812 C 116.539062 245.722656 116.511719 245.695312 116.476562 245.683594 C 115.832031 245.492188 114.632812 245.066406 114.144531 244.425781 C 113.378906 243.441406 113.011719 242.242188 112.855469 241.585938 Z M 116.3125 233.726562 C 116.304688 233.6875 116.265625 233.664062 116.226562 233.671875 C 116.203125 233.675781 116.183594 233.695312 116.175781 233.726562 C 116.050781 234.183594 115.75 235.027344 115.078125 235.542969 C 114.617188 235.902344 114.070312 236.152344 113.496094 236.269531 C 113.457031 236.277344 113.433594 236.308594 113.4375 236.347656 C 113.441406 236.375 113.460938 236.394531 113.492188 236.398438 C 113.957031 236.53125 114.769531 236.8125 115.1875 237.296875 C 115.511719 237.679688 115.800781 238.636719 115.929688 239.101562 C 115.9375 239.140625 115.976562 239.160156 116.015625 239.148438 C 116.039062 239.144531 116.058594 239.125 116.0625 239.101562 C 116.195312 238.628906 116.53125 237.644531 117.164062 237.226562 C 117.726562 236.851562 118.355469 236.667969 118.714844 236.582031 C 118.75 236.574219 118.773438 236.535156 118.765625 236.5 C 118.761719 236.476562 118.742188 236.457031 118.71875 236.445312 C 118.289062 236.320312 117.496094 236.039062 117.167969 235.609375 C 116.664062 234.957031 116.417969 234.160156 116.3125 233.726562 Z M 116.3125 233.726562 " fill-opacity="1" fill-rule="nonzero"/></g><g clip-path="url(#e8789fd2d7)"><path fill="#fadb5e" d="M 298.410156 250.078125 C 298.390625 250.011719 298.324219 249.96875 298.257812 249.988281 C 298.214844 249.996094 298.175781 250.035156 298.164062 250.078125 C 297.945312 250.875 297.40625 252.351562 296.214844 253.253906 C 295.386719 253.878906 294.417969 254.3125 293.390625 254.515625 C 293.320312 254.527344 293.277344 254.59375 293.289062 254.660156 C 293.300781 254.707031 293.335938 254.738281 293.378906 254.753906 C 294.214844 254.976562 295.664062 255.476562 296.402344 256.316406 C 296.984375 256.984375 297.5 258.652344 297.726562 259.46875 C 297.746094 259.53125 297.816406 259.570312 297.882812 259.550781 C 297.921875 259.539062 297.957031 259.507812 297.964844 259.46875 C 298.199219 258.636719 298.800781 256.921875 299.929688 256.195312 C 300.933594 255.542969 302.054688 255.214844 302.6875 255.070312 C 302.757812 255.050781 302.792969 254.984375 302.777344 254.917969 C 302.765625 254.878906 302.734375 254.84375 302.695312 254.835938 C 301.929688 254.617188 300.511719 254.121094 299.929688 253.375 C 299.023438 252.226562 298.59375 250.835938 298.410156 250.078125 Z M 304.738281 256.917969 C 304.726562 256.878906 304.6875 256.855469 304.644531 256.867188 C 304.617188 256.875 304.597656 256.894531 304.589844 256.917969 C 304.457031 257.410156 304.125 258.3125 303.398438 258.859375 C 302.890625 259.242188 302.296875 259.507812 301.667969 259.628906 C 301.625 259.636719 301.597656 259.675781 301.609375 259.71875 C 301.617188 259.742188 301.636719 259.765625 301.664062 259.773438 C 302.175781 259.914062 303.066406 260.214844 303.511719 260.730469 C 303.867188 261.136719 304.183594 262.15625 304.324219 262.65625 C 304.335938 262.695312 304.378906 262.71875 304.417969 262.710938 C 304.445312 262.703125 304.460938 262.683594 304.472656 262.65625 C 304.617188 262.152344 304.980469 261.101562 305.667969 260.65625 C 306.285156 260.257812 306.972656 260.054688 307.359375 259.964844 C 307.398438 259.957031 307.421875 259.917969 307.414062 259.875 C 307.40625 259.851562 307.386719 259.828125 307.359375 259.824219 C 306.890625 259.6875 306.027344 259.386719 305.667969 258.929688 C 305.117188 258.234375 304.851562 257.386719 304.738281 256.917969 Z M 307.242188 251.351562 C 307.234375 251.324219 307.207031 251.308594 307.179688 251.316406 C 307.164062 251.320312 307.148438 251.332031 307.140625 251.351562 C 307.054688 251.679688 306.832031 252.273438 306.347656 252.640625 C 306.011719 252.894531 305.617188 253.070312 305.199219 253.152344 C 305.171875 253.160156 305.15625 253.183594 305.160156 253.210938 C 305.164062 253.230469 305.175781 253.242188 305.199219 253.246094 C 305.535156 253.339844 306.125 253.539062 306.425781 253.882812 C 306.664062 254.152344 306.871094 254.832031 306.964844 255.160156 C 306.972656 255.1875 307 255.203125 307.027344 255.195312 C 307.042969 255.191406 307.054688 255.179688 307.058594 255.160156 C 307.15625 254.824219 307.398438 254.128906 307.859375 253.832031 C 308.265625 253.566406 308.71875 253.4375 308.980469 253.375 C 309.007812 253.371094 309.023438 253.34375 309.019531 253.316406 C 309.015625 253.300781 309 253.285156 308.984375 253.28125 C 308.671875 253.191406 308.097656 252.992188 307.859375 252.6875 C 307.496094 252.226562 307.316406 251.660156 307.242188 251.351562 Z M 307.242188 251.351562 " fill-opacity="1" fill-rule="nonzero"/></g><g clip-path="url(#95d2fdaf8e)"><path fill="#fadb5e" d="M 33.660156 199.21875 C 33.636719 199.125 33.546875 199.070312 33.453125 199.09375 C 33.390625 199.109375 33.339844 199.160156 33.324219 199.21875 C 33.023438 200.347656 32.273438 202.429688 30.628906 203.703125 C 29.484375 204.589844 28.148438 205.199219 26.730469 205.488281 C 26.636719 205.503906 26.574219 205.59375 26.59375 205.6875 C 26.605469 205.753906 26.65625 205.800781 26.714844 205.820312 C 27.871094 206.140625 29.875 206.839844 30.890625 208.03125 C 31.695312 208.96875 32.40625 211.324219 32.71875 212.476562 C 32.746094 212.566406 32.84375 212.621094 32.933594 212.59375 C 32.988281 212.582031 33.035156 212.535156 33.050781 212.476562 C 33.371094 211.304688 34.203125 208.886719 35.757812 207.855469 C 37.148438 206.933594 38.695312 206.472656 39.570312 206.265625 C 39.664062 206.242188 39.714844 206.148438 39.691406 206.054688 C 39.675781 206 39.632812 205.953125 39.578125 205.9375 C 38.523438 205.628906 36.5625 204.925781 35.757812 203.878906 C 34.511719 202.253906 33.914062 200.292969 33.660156 199.21875 Z M 42.398438 208.878906 C 42.386719 208.824219 42.328125 208.792969 42.273438 208.804688 C 42.234375 208.816406 42.207031 208.84375 42.195312 208.878906 C 42.011719 209.570312 41.554688 210.847656 40.546875 211.621094 C 39.847656 212.160156 39.03125 212.535156 38.160156 212.707031 C 38.101562 212.714844 38.066406 212.773438 38.078125 212.828125 C 38.089844 212.867188 38.117188 212.898438 38.15625 212.910156 C 38.859375 213.105469 40.089844 213.53125 40.707031 214.257812 C 41.199219 214.832031 41.632812 216.273438 41.828125 216.980469 C 41.84375 217.035156 41.902344 217.070312 41.957031 217.054688 C 41.992188 217.046875 42.015625 217.019531 42.03125 216.980469 C 42.230469 216.265625 42.734375 214.785156 43.6875 214.15625 C 44.535156 213.589844 45.480469 213.308594 46.015625 213.183594 C 46.074219 213.167969 46.105469 213.113281 46.09375 213.054688 C 46.082031 213.019531 46.054688 212.988281 46.019531 212.980469 C 45.375 212.789062 44.175781 212.363281 43.6875 211.71875 C 42.921875 210.738281 42.554688 209.539062 42.398438 208.878906 Z M 45.855469 201.019531 C 45.847656 200.984375 45.808594 200.960938 45.769531 200.96875 C 45.746094 200.972656 45.726562 200.992188 45.71875 201.019531 C 45.59375 201.480469 45.292969 202.324219 44.621094 202.839844 C 44.160156 203.199219 43.613281 203.445312 43.039062 203.5625 C 43 203.574219 42.976562 203.605469 42.980469 203.644531 C 42.984375 203.671875 43.003906 203.691406 43.035156 203.695312 C 43.5 203.828125 44.316406 204.109375 44.730469 204.59375 C 45.054688 204.972656 45.34375 205.933594 45.472656 206.398438 C 45.480469 206.4375 45.519531 206.453125 45.558594 206.445312 C 45.582031 206.441406 45.601562 206.421875 45.605469 206.398438 C 45.738281 205.925781 46.074219 204.941406 46.707031 204.523438 C 47.269531 204.148438 47.898438 203.964844 48.257812 203.878906 C 48.292969 203.871094 48.316406 203.832031 48.308594 203.792969 C 48.304688 203.769531 48.285156 203.753906 48.261719 203.742188 C 47.832031 203.617188 47.039062 203.332031 46.710938 202.90625 C 46.207031 202.253906 45.960938 201.457031 45.855469 201.019531 Z M 45.855469 201.019531 " fill-opacity="1" fill-rule="nonzero"/></g><g clip-path="url(#b147809c08)"><path fill="#000000" d="M 143.855469 325.867188 C 140.828125 324.839844 137.582031 324.683594 134.425781 324.339844 C 124.75 323.433594 115.027344 324.867188 105.625 327.109375 C 93.757812 329.910156 77.84375 335.734375 66.425781 329.21875 C 70.324219 326.210938 75.105469 322.40625 76.832031 317.6875 C 78.003906 314.34375 75.214844 311.863281 72.070312 313.617188 C 69.863281 314.878906 68.757812 317.273438 67.828125 319.53125 C 67.007812 317.167969 63.769531 314.136719 61.503906 316.628906 C 58.929688 320.472656 61.261719 326.492188 64.605469 329.195312 C 61.691406 331.179688 58.480469 332.839844 54.992188 333.519531 C 53.59375 333.808594 52.164062 333.910156 50.738281 333.871094 C 50.261719 333.90625 49.699219 333.671875 49.273438 333.933594 C 48.476562 335.015625 50.261719 334.914062 50.910156 334.929688 C 56.214844 335.101562 61.234375 332.84375 65.5 329.871094 C 77.796875 337.359375 94.996094 330.480469 107.902344 327.675781 C 117.09375 325.570312 126.609375 324.460938 136.015625 325.554688 C 138.34375 325.835938 140.714844 326.007812 142.964844 326.675781 C 144.230469 327.113281 145.484375 327.570312 146.710938 328.105469 C 147.148438 328.242188 147.902344 328.933594 148.277344 328.292969 C 148.871094 327.300781 144.714844 326.300781 143.855469 325.867188 Z M 61.542969 321.242188 C 61.457031 319.78125 61.425781 317.902344 62.730469 316.949219 C 65.046875 316.046875 66.765625 319.253906 67.238281 321.101562 C 65.203125 326.109375 69.453125 326.269531 68.34375 321.152344 C 69.292969 318.726562 70.246094 315.9375 72.605469 314.527344 C 74.53125 313.445312 76.457031 314.5 75.953125 316.800781 C 74.765625 321.429688 69.21875 325.746094 65.519531 328.578125 C 63.234375 326.828125 61.832031 324.078125 61.539062 321.242188 Z M 61.542969 321.242188 " fill-opacity="1" fill-rule="nonzero"/></g><g fill="#442921" fill-opacity="1"><g transform="translate(37.818772, 300.900331)"><g><path d="M 1.984375 -3.53125 L 1.984375 -12.953125 C 1.984375 -13.484375 1.976562 -13.972656 1.96875 -14.421875 C 1.957031 -14.878906 1.9375 -15.289062 1.90625 -15.65625 C 1.882812 -16.019531 1.851562 -16.316406 1.8125 -16.546875 C 2.0625 -16.554688 2.367188 -16.566406 2.734375 -16.578125 C 3.109375 -16.597656 3.515625 -16.613281 3.953125 -16.625 C 4.398438 -16.632812 4.863281 -16.640625 5.34375 -16.640625 C 5.832031 -16.648438 6.316406 -16.65625 6.796875 -16.65625 C 7.640625 -16.65625 8.390625 -16.585938 9.046875 -16.453125 C 9.703125 -16.316406 10.25 -16.09375 10.6875 -15.78125 C 11.132812 -15.46875 11.472656 -15.054688 11.703125 -14.546875 C 11.941406 -14.046875 12.0625 -13.425781 12.0625 -12.6875 C 12.0625 -12.207031 11.988281 -11.773438 11.84375 -11.390625 C 11.707031 -11.015625 11.507812 -10.675781 11.25 -10.375 C 11 -10.082031 10.707031 -9.828125 10.375 -9.609375 C 10.039062 -9.390625 9.679688 -9.207031 9.296875 -9.0625 C 9.734375 -8.945312 10.164062 -8.789062 10.59375 -8.59375 C 11.019531 -8.394531 11.40625 -8.128906 11.75 -7.796875 C 12.09375 -7.460938 12.375 -7.046875 12.59375 -6.546875 C 12.8125 -6.054688 12.921875 -5.460938 12.921875 -4.765625 C 12.921875 -4.078125 12.804688 -3.4375 12.578125 -2.84375 C 12.359375 -2.25 12.003906 -1.734375 11.515625 -1.296875 C 11.023438 -0.859375 10.394531 -0.515625 9.625 -0.265625 C 8.863281 -0.015625 7.941406 0.109375 6.859375 0.109375 C 6.285156 0.109375 5.726562 0.101562 5.1875 0.09375 C 4.644531 0.09375 4.148438 0.0859375 3.703125 0.078125 C 3.253906 0.0664062 2.863281 0.0507812 2.53125 0.03125 C 2.207031 0.0195312 1.96875 0.0078125 1.8125 0 C 1.851562 -0.226562 1.882812 -0.519531 1.90625 -0.875 C 1.9375 -1.226562 1.957031 -1.625 1.96875 -2.0625 C 1.976562 -2.507812 1.984375 -3 1.984375 -3.53125 Z M 4.140625 -1.75 C 4.242188 -1.75 4.382812 -1.742188 4.5625 -1.734375 C 4.75 -1.722656 4.960938 -1.710938 5.203125 -1.703125 C 5.441406 -1.703125 5.707031 -1.703125 6 -1.703125 C 6.289062 -1.703125 6.59375 -1.703125 6.90625 -1.703125 C 7.394531 -1.703125 7.863281 -1.75 8.3125 -1.84375 C 8.769531 -1.945312 9.175781 -2.113281 9.53125 -2.34375 C 9.882812 -2.582031 10.164062 -2.894531 10.375 -3.28125 C 10.59375 -3.675781 10.703125 -4.171875 10.703125 -4.765625 C 10.703125 -5.804688 10.382812 -6.59375 9.75 -7.125 C 9.113281 -7.664062 8.128906 -7.9375 6.796875 -7.9375 L 4.140625 -7.9375 Z M 4.140625 -9.6875 L 6.34375 -9.6875 C 6.945312 -9.6875 7.46875 -9.75 7.90625 -9.875 C 8.351562 -10.007812 8.71875 -10.191406 9 -10.421875 C 9.289062 -10.660156 9.503906 -10.941406 9.640625 -11.265625 C 9.785156 -11.597656 9.859375 -11.957031 9.859375 -12.34375 C 9.859375 -12.769531 9.796875 -13.140625 9.671875 -13.453125 C 9.554688 -13.773438 9.375 -14.039062 9.125 -14.25 C 8.875 -14.46875 8.546875 -14.628906 8.140625 -14.734375 C 7.734375 -14.847656 7.25 -14.90625 6.6875 -14.90625 C 6.46875 -14.90625 6.234375 -14.898438 5.984375 -14.890625 C 5.734375 -14.890625 5.488281 -14.882812 5.25 -14.875 C 5.019531 -14.863281 4.804688 -14.859375 4.609375 -14.859375 C 4.410156 -14.859375 4.253906 -14.851562 4.140625 -14.84375 Z M 4.140625 -9.6875 "/></g></g></g><g fill="#442921" fill-opacity="1"><g transform="translate(52.370025, 300.900331)"><g><path d="M 9.234375 -16.546875 L 9.234375 -14.90625 L 6.453125 -14.90625 L 6.453125 -1.640625 L 9.234375 -1.640625 L 9.234375 0 L 1.59375 0 L 1.59375 -1.640625 L 4.3125 -1.640625 L 4.3125 -14.90625 L 1.59375 -14.90625 L 1.59375 -16.546875 Z M 9.234375 -16.546875 "/></g></g></g><g fill="#442921" fill-opacity="1"><g transform="translate(63.410861, 300.900331)"><g><path d="M 10.59375 -9.578125 L 10.59375 -7.765625 L 4.140625 -7.765625 L 4.140625 -1.875 L 7.125 -1.875 C 8.25 -1.875 9.191406 -1.878906 9.953125 -1.890625 C 10.722656 -1.910156 11.332031 -1.960938 11.78125 -2.046875 L 11.78125 0 L 1.8125 0 C 1.894531 -0.457031 1.941406 -1.113281 1.953125 -1.96875 C 1.972656 -2.820312 1.984375 -3.804688 1.984375 -4.921875 L 1.984375 -11.609375 C 1.984375 -12.734375 1.972656 -13.722656 1.953125 -14.578125 C 1.941406 -15.429688 1.894531 -16.085938 1.8125 -16.546875 L 11.4375 -16.546875 L 11.4375 -14.671875 L 4.140625 -14.671875 L 4.140625 -9.578125 Z M 10.59375 -9.578125 "/></g></g></g><g fill="#442921" fill-opacity="1"><g transform="translate(76.546617, 300.900331)"><g><path d="M 3.859375 -13.046875 L 3.859375 0 L 1.8125 0 C 1.894531 -0.457031 1.941406 -1.113281 1.953125 -1.96875 C 1.972656 -2.820312 1.984375 -3.804688 1.984375 -4.921875 L 1.984375 -11.609375 C 1.984375 -12.734375 1.972656 -13.722656 1.953125 -14.578125 C 1.941406 -15.429688 1.894531 -16.085938 1.8125 -16.546875 L 3.859375 -16.546875 L 12.859375 -3.4375 L 12.859375 -16.546875 L 14.90625 -16.546875 C 14.863281 -16.316406 14.832031 -16.035156 14.8125 -15.703125 C 14.789062 -15.367188 14.769531 -14.992188 14.75 -14.578125 C 14.738281 -14.160156 14.734375 -13.703125 14.734375 -13.203125 C 14.734375 -12.703125 14.734375 -12.171875 14.734375 -11.609375 L 14.734375 0 L 12.859375 0 Z M 3.859375 -13.046875 "/></g></g></g><g fill="#442921" fill-opacity="1"><g transform="translate(93.53251, 300.900331)"><g><path d="M 14.84375 -16.546875 C 14.738281 -16.304688 14.628906 -16.0625 14.515625 -15.8125 C 14.410156 -15.5625 14.296875 -15.273438 14.171875 -14.953125 C 14.046875 -14.628906 13.90625 -14.257812 13.75 -13.84375 C 13.601562 -13.4375 13.4375 -12.957031 13.25 -12.40625 L 8.890625 0 L 6.34375 0 L 1.921875 -12.40625 C 1.722656 -12.945312 1.550781 -13.421875 1.40625 -13.828125 C 1.257812 -14.242188 1.125 -14.613281 1 -14.9375 C 0.882812 -15.269531 0.773438 -15.5625 0.671875 -15.8125 C 0.578125 -16.0625 0.484375 -16.304688 0.390625 -16.546875 L 2.828125 -16.546875 L 7.609375 -2.203125 L 12.40625 -16.546875 Z M 14.84375 -16.546875 "/></g></g></g><g fill="#442921" fill-opacity="1"><g transform="translate(108.989677, 300.900331)"><g><path d="M 10.59375 -9.578125 L 10.59375 -7.765625 L 4.140625 -7.765625 L 4.140625 -1.875 L 7.125 -1.875 C 8.25 -1.875 9.191406 -1.878906 9.953125 -1.890625 C 10.722656 -1.910156 11.332031 -1.960938 11.78125 -2.046875 L 11.78125 0 L 1.8125 0 C 1.894531 -0.457031 1.941406 -1.113281 1.953125 -1.96875 C 1.972656 -2.820312 1.984375 -3.804688 1.984375 -4.921875 L 1.984375 -11.609375 C 1.984375 -12.734375 1.972656 -13.722656 1.953125 -14.578125 C 1.941406 -15.429688 1.894531 -16.085938 1.8125 -16.546875 L 11.4375 -16.546875 L 11.4375 -14.671875 L 4.140625 -14.671875 L 4.140625 -9.578125 Z M 10.59375 -9.578125 "/></g></g></g><g fill="#442921" fill-opacity="1"><g transform="translate(122.125433, 300.900331)"><g><path d="M 3.859375 -13.046875 L 3.859375 0 L 1.8125 0 C 1.894531 -0.457031 1.941406 -1.113281 1.953125 -1.96875 C 1.972656 -2.820312 1.984375 -3.804688 1.984375 -4.921875 L 1.984375 -11.609375 C 1.984375 -12.734375 1.972656 -13.722656 1.953125 -14.578125 C 1.941406 -15.429688 1.894531 -16.085938 1.8125 -16.546875 L 3.859375 -16.546875 L 12.859375 -3.4375 L 12.859375 -16.546875 L 14.90625 -16.546875 C 14.863281 -16.316406 14.832031 -16.035156 14.8125 -15.703125 C 14.789062 -15.367188 14.769531 -14.992188 14.75 -14.578125 C 14.738281 -14.160156 14.734375 -13.703125 14.734375 -13.203125 C 14.734375 -12.703125 14.734375 -12.171875 14.734375 -11.609375 L 14.734375 0 L 12.859375 0 Z M 3.859375 -13.046875 "/></g></g></g><g fill="#442921" fill-opacity="1"><g transform="translate(139.111326, 300.900331)"><g><path d="M 9.234375 -16.546875 L 9.234375 -14.90625 L 6.453125 -14.90625 L 6.453125 -1.640625 L 9.234375 -1.640625 L 9.234375 0 L 1.59375 0 L 1.59375 -1.640625 L 4.3125 -1.640625 L 4.3125 -14.90625 L 1.59375 -14.90625 L 1.59375 -16.546875 Z M 9.234375 -16.546875 "/></g></g></g><g fill="#442921" fill-opacity="1"><g transform="translate(150.152161, 300.900331)"><g><path d="M 1.984375 -5.15625 L 1.984375 -12.953125 C 1.984375 -13.484375 1.976562 -13.972656 1.96875 -14.421875 C 1.957031 -14.878906 1.9375 -15.289062 1.90625 -15.65625 C 1.882812 -16.019531 1.851562 -16.316406 1.8125 -16.546875 C 1.96875 -16.546875 2.164062 -16.550781 2.40625 -16.5625 C 2.65625 -16.582031 2.929688 -16.59375 3.234375 -16.59375 C 3.535156 -16.601562 3.847656 -16.609375 4.171875 -16.609375 C 4.503906 -16.617188 4.832031 -16.625 5.15625 -16.625 C 5.488281 -16.632812 5.804688 -16.640625 6.109375 -16.640625 C 6.421875 -16.648438 6.707031 -16.65625 6.96875 -16.65625 C 7.269531 -16.65625 7.613281 -16.632812 8 -16.59375 C 8.394531 -16.5625 8.804688 -16.5 9.234375 -16.40625 C 9.660156 -16.3125 10.097656 -16.171875 10.546875 -15.984375 C 10.992188 -15.804688 11.425781 -15.570312 11.84375 -15.28125 C 12.257812 -15 12.648438 -14.65625 13.015625 -14.25 C 13.390625 -13.84375 13.710938 -13.359375 13.984375 -12.796875 C 14.265625 -12.242188 14.488281 -11.601562 14.65625 -10.875 C 14.820312 -10.144531 14.90625 -9.316406 14.90625 -8.390625 C 14.90625 -7.265625 14.78125 -6.269531 14.53125 -5.40625 C 14.28125 -4.550781 13.941406 -3.8125 13.515625 -3.1875 C 13.097656 -2.5625 12.613281 -2.035156 12.0625 -1.609375 C 11.507812 -1.179688 10.929688 -0.835938 10.328125 -0.578125 C 9.722656 -0.328125 9.109375 -0.148438 8.484375 -0.046875 C 7.867188 0.0546875 7.285156 0.109375 6.734375 0.109375 C 6.554688 0.109375 6.347656 0.109375 6.109375 0.109375 C 5.867188 0.109375 5.617188 0.101562 5.359375 0.09375 C 5.097656 0.09375 4.828125 0.0859375 4.546875 0.078125 C 4.265625 0.0664062 3.992188 0.0625 3.734375 0.0625 C 3.109375 0.0390625 2.46875 0.0195312 1.8125 0 C 1.851562 -0.226562 1.882812 -0.519531 1.90625 -0.875 C 1.925781 -1.226562 1.941406 -1.625 1.953125 -2.0625 C 1.960938 -2.507812 1.96875 -2.992188 1.96875 -3.515625 C 1.976562 -4.046875 1.984375 -4.59375 1.984375 -5.15625 Z M 4.140625 -1.875 C 4.398438 -1.84375 4.742188 -1.8125 5.171875 -1.78125 C 5.597656 -1.757812 6.082031 -1.75 6.625 -1.75 C 7.132812 -1.75 7.632812 -1.796875 8.125 -1.890625 C 8.625 -1.992188 9.097656 -2.15625 9.546875 -2.375 C 9.992188 -2.59375 10.410156 -2.867188 10.796875 -3.203125 C 11.179688 -3.546875 11.515625 -3.953125 11.796875 -4.421875 C 12.078125 -4.890625 12.296875 -5.429688 12.453125 -6.046875 C 12.609375 -6.671875 12.6875 -7.375 12.6875 -8.15625 C 12.6875 -9.425781 12.523438 -10.488281 12.203125 -11.34375 C 11.878906 -12.195312 11.445312 -12.878906 10.90625 -13.390625 C 10.363281 -13.910156 9.726562 -14.28125 9 -14.5 C 8.269531 -14.726562 7.5 -14.84375 6.6875 -14.84375 C 6.5 -14.84375 6.285156 -14.835938 6.046875 -14.828125 C 5.816406 -14.828125 5.582031 -14.820312 5.34375 -14.8125 C 5.101562 -14.8125 4.875 -14.804688 4.65625 -14.796875 C 4.445312 -14.796875 4.273438 -14.789062 4.140625 -14.78125 Z M 4.140625 -1.875 "/></g></g></g><g fill="#442921" fill-opacity="1"><g transform="translate(166.402004, 300.900331)"><g><path d="M 15.1875 -8.390625 C 15.1875 -7.023438 14.984375 -5.804688 14.578125 -4.734375 C 14.171875 -3.660156 13.632812 -2.75 12.96875 -2 C 12.300781 -1.257812 11.539062 -0.691406 10.6875 -0.296875 C 9.832031 0.0859375 8.953125 0.28125 8.046875 0.28125 C 7.128906 0.28125 6.25 0.0976562 5.40625 -0.265625 C 4.570312 -0.640625 3.832031 -1.1875 3.1875 -1.90625 C 2.550781 -2.625 2.039062 -3.503906 1.65625 -4.546875 C 1.269531 -5.597656 1.078125 -6.800781 1.078125 -8.15625 C 1.078125 -9.0625 1.164062 -9.898438 1.34375 -10.671875 C 1.53125 -11.453125 1.785156 -12.164062 2.109375 -12.8125 C 2.441406 -13.457031 2.835938 -14.023438 3.296875 -14.515625 C 3.753906 -15.015625 4.25 -15.4375 4.78125 -15.78125 C 5.3125 -16.125 5.875 -16.382812 6.46875 -16.5625 C 7.0625 -16.738281 7.660156 -16.828125 8.265625 -16.828125 C 9.171875 -16.828125 10.039062 -16.640625 10.875 -16.265625 C 11.707031 -15.898438 12.441406 -15.359375 13.078125 -14.640625 C 13.710938 -13.921875 14.222656 -13.035156 14.609375 -11.984375 C 14.992188 -10.941406 15.1875 -9.742188 15.1875 -8.390625 Z M 12.96875 -8.09375 C 12.96875 -9.144531 12.851562 -10.085938 12.625 -10.921875 C 12.394531 -11.753906 12.066406 -12.457031 11.640625 -13.03125 C 11.222656 -13.613281 10.71875 -14.0625 10.125 -14.375 C 9.53125 -14.6875 8.875 -14.84375 8.15625 -14.84375 C 7.4375 -14.84375 6.78125 -14.691406 6.1875 -14.390625 C 5.59375 -14.097656 5.078125 -13.671875 4.640625 -13.109375 C 4.210938 -12.554688 3.878906 -11.882812 3.640625 -11.09375 C 3.398438 -10.300781 3.28125 -9.414062 3.28125 -8.4375 C 3.28125 -7.40625 3.394531 -6.472656 3.625 -5.640625 C 3.863281 -4.804688 4.191406 -4.097656 4.609375 -3.515625 C 5.035156 -2.929688 5.546875 -2.484375 6.140625 -2.171875 C 6.742188 -1.859375 7.414062 -1.703125 8.15625 -1.703125 C 8.851562 -1.703125 9.492188 -1.847656 10.078125 -2.140625 C 10.671875 -2.429688 11.179688 -2.847656 11.609375 -3.390625 C 12.035156 -3.941406 12.367188 -4.613281 12.609375 -5.40625 C 12.847656 -6.195312 12.96875 -7.09375 12.96875 -8.09375 Z M 12.96875 -8.09375 "/></g></g></g><g fill="#442921" fill-opacity="1"><g transform="translate(182.934939, 300.900331)"><g/></g></g><g fill="#442921" fill-opacity="1"><g transform="translate(189.163099, 300.900331)"><g><path d="M 7.765625 -14.328125 L 4.90625 -6.125 L 10.65625 -6.125 Z M 0.453125 0 C 0.546875 -0.226562 0.644531 -0.46875 0.75 -0.71875 C 0.863281 -0.96875 0.984375 -1.25 1.109375 -1.5625 C 1.234375 -1.875 1.367188 -2.226562 1.515625 -2.625 C 1.671875 -3.03125 1.847656 -3.492188 2.046875 -4.015625 L 6.578125 -16.546875 L 9 -16.546875 L 13.53125 -4.015625 C 13.726562 -3.492188 13.898438 -3.03125 14.046875 -2.625 C 14.203125 -2.226562 14.34375 -1.875 14.46875 -1.5625 C 14.59375 -1.25 14.707031 -0.96875 14.8125 -0.71875 C 14.925781 -0.46875 15.03125 -0.226562 15.125 0 L 12.796875 0 L 11.265625 -4.359375 L 4.296875 -4.359375 L 2.78125 0 Z M 0.453125 0 "/></g></g></g><g fill="#442921" fill-opacity="1"><g transform="translate(204.959985, 300.900331)"><g/></g></g><g fill="#442921" fill-opacity="1"><g transform="translate(211.188145, 300.900331)"><g><path d="M 1.984375 -5.15625 L 1.984375 -12.953125 C 1.984375 -13.484375 1.976562 -13.972656 1.96875 -14.421875 C 1.957031 -14.878906 1.9375 -15.289062 1.90625 -15.65625 C 1.882812 -16.019531 1.851562 -16.316406 1.8125 -16.546875 C 1.96875 -16.546875 2.164062 -16.550781 2.40625 -16.5625 C 2.65625 -16.582031 2.929688 -16.59375 3.234375 -16.59375 C 3.535156 -16.601562 3.847656 -16.609375 4.171875 -16.609375 C 4.503906 -16.617188 4.832031 -16.625 5.15625 -16.625 C 5.488281 -16.632812 5.804688 -16.640625 6.109375 -16.640625 C 6.421875 -16.648438 6.707031 -16.65625 6.96875 -16.65625 C 7.269531 -16.65625 7.613281 -16.632812 8 -16.59375 C 8.394531 -16.5625 8.804688 -16.5 9.234375 -16.40625 C 9.660156 -16.3125 10.097656 -16.171875 10.546875 -15.984375 C 10.992188 -15.804688 11.425781 -15.570312 11.84375 -15.28125 C 12.257812 -15 12.648438 -14.65625 13.015625 -14.25 C 13.390625 -13.84375 13.710938 -13.359375 13.984375 -12.796875 C 14.265625 -12.242188 14.488281 -11.601562 14.65625 -10.875 C 14.820312 -10.144531 14.90625 -9.316406 14.90625 -8.390625 C 14.90625 -7.265625 14.78125 -6.269531 14.53125 -5.40625 C 14.28125 -4.550781 13.941406 -3.8125 13.515625 -3.1875 C 13.097656 -2.5625 12.613281 -2.035156 12.0625 -1.609375 C 11.507812 -1.179688 10.929688 -0.835938 10.328125 -0.578125 C 9.722656 -0.328125 9.109375 -0.148438 8.484375 -0.046875 C 7.867188 0.0546875 7.285156 0.109375 6.734375 0.109375 C 6.554688 0.109375 6.347656 0.109375 6.109375 0.109375 C 5.867188 0.109375 5.617188 0.101562 5.359375 0.09375 C 5.097656 0.09375 4.828125 0.0859375 4.546875 0.078125 C 4.265625 0.0664062 3.992188 0.0625 3.734375 0.0625 C 3.109375 0.0390625 2.46875 0.0195312 1.8125 0 C 1.851562 -0.226562 1.882812 -0.519531 1.90625 -0.875 C 1.925781 -1.226562 1.941406 -1.625 1.953125 -2.0625 C 1.960938 -2.507812 1.96875 -2.992188 1.96875 -3.515625 C 1.976562 -4.046875 1.984375 -4.59375 1.984375 -5.15625 Z M 4.140625 -1.875 C 4.398438 -1.84375 4.742188 -1.8125 5.171875 -1.78125 C 5.597656 -1.757812 6.082031 -1.75 6.625 -1.75 C 7.132812 -1.75 7.632812 -1.796875 8.125 -1.890625 C 8.625 -1.992188 9.097656 -2.15625 9.546875 -2.375 C 9.992188 -2.59375 10.410156 -2.867188 10.796875 -3.203125 C 11.179688 -3.546875 11.515625 -3.953125 11.796875 -4.421875 C 12.078125 -4.890625 12.296875 -5.429688 12.453125 -6.046875 C 12.609375 -6.671875 12.6875 -7.375 12.6875 -8.15625 C 12.6875 -9.425781 12.523438 -10.488281 12.203125 -11.34375 C 11.878906 -12.195312 11.445312 -12.878906 10.90625 -13.390625 C 10.363281 -13.910156 9.726562 -14.28125 9 -14.5 C 8.269531 -14.726562 7.5 -14.84375 6.6875 -14.84375 C 6.5 -14.84375 6.285156 -14.835938 6.046875 -14.828125 C 5.816406 -14.828125 5.582031 -14.820312 5.34375 -14.8125 C 5.101562 -14.8125 4.875 -14.804688 4.65625 -14.796875 C 4.445312 -14.796875 4.273438 -14.789062 4.140625 -14.78125 Z M 4.140625 -1.875 "/></g></g></g><g fill="#442921" fill-opacity="1"><g transform="translate(227.437988, 300.900331)"><g><path d="M 9.234375 -16.546875 L 9.234375 -14.90625 L 6.453125 -14.90625 L 6.453125 -1.640625 L 9.234375 -1.640625 L 9.234375 0 L 1.59375 0 L 1.59375 -1.640625 L 4.3125 -1.640625 L 4.3125 -14.90625 L 1.59375 -14.90625 L 1.59375 -16.546875 Z M 9.234375 -16.546875 "/></g></g></g><g fill="#442921" fill-opacity="1"><g transform="translate(238.478823, 300.900331)"><g><path d="M 10.875 -13.59375 C 10.46875 -13.820312 10.09375 -14.015625 9.75 -14.171875 C 9.40625 -14.328125 9.070312 -14.453125 8.75 -14.546875 C 8.425781 -14.648438 8.097656 -14.722656 7.765625 -14.765625 C 7.441406 -14.816406 7.097656 -14.84375 6.734375 -14.84375 C 6.285156 -14.84375 5.875 -14.773438 5.5 -14.640625 C 5.125 -14.503906 4.800781 -14.320312 4.53125 -14.09375 C 4.257812 -13.863281 4.050781 -13.601562 3.90625 -13.3125 C 3.757812 -13.019531 3.6875 -12.71875 3.6875 -12.40625 C 3.6875 -12.09375 3.726562 -11.8125 3.8125 -11.5625 C 3.894531 -11.3125 4.066406 -11.070312 4.328125 -10.84375 C 4.597656 -10.625 4.976562 -10.40625 5.46875 -10.1875 C 5.957031 -9.976562 6.609375 -9.753906 7.421875 -9.515625 C 8.171875 -9.296875 8.832031 -9.039062 9.40625 -8.75 C 9.988281 -8.457031 10.472656 -8.125 10.859375 -7.75 C 11.253906 -7.375 11.550781 -6.941406 11.75 -6.453125 C 11.957031 -5.972656 12.0625 -5.425781 12.0625 -4.8125 C 12.0625 -4.050781 11.910156 -3.359375 11.609375 -2.734375 C 11.316406 -2.109375 10.910156 -1.570312 10.390625 -1.125 C 9.878906 -0.675781 9.28125 -0.328125 8.59375 -0.078125 C 7.90625 0.160156 7.175781 0.28125 6.40625 0.28125 C 5.851562 0.28125 5.316406 0.242188 4.796875 0.171875 C 4.285156 0.0976562 3.800781 -0.00390625 3.34375 -0.140625 C 2.882812 -0.273438 2.460938 -0.4375 2.078125 -0.625 C 1.691406 -0.8125 1.359375 -1.019531 1.078125 -1.25 L 1.59375 -3.5625 C 2.34375 -2.90625 3.117188 -2.429688 3.921875 -2.140625 C 4.722656 -1.847656 5.550781 -1.703125 6.40625 -1.703125 C 6.851562 -1.703125 7.285156 -1.765625 7.703125 -1.890625 C 8.128906 -2.015625 8.503906 -2.203125 8.828125 -2.453125 C 9.160156 -2.703125 9.421875 -3.003906 9.609375 -3.359375 C 9.804688 -3.710938 9.90625 -4.125 9.90625 -4.59375 C 9.90625 -4.882812 9.859375 -5.160156 9.765625 -5.421875 C 9.671875 -5.691406 9.476562 -5.957031 9.1875 -6.21875 C 8.90625 -6.476562 8.492188 -6.734375 7.953125 -6.984375 C 7.421875 -7.234375 6.710938 -7.492188 5.828125 -7.765625 C 4.953125 -8.023438 4.234375 -8.3125 3.671875 -8.625 C 3.109375 -8.945312 2.664062 -9.296875 2.34375 -9.671875 C 2.03125 -10.046875 1.816406 -10.445312 1.703125 -10.875 C 1.585938 -11.300781 1.53125 -11.753906 1.53125 -12.234375 C 1.53125 -12.722656 1.628906 -13.234375 1.828125 -13.765625 C 2.023438 -14.296875 2.335938 -14.785156 2.765625 -15.234375 C 3.203125 -15.691406 3.753906 -16.070312 4.421875 -16.375 C 5.097656 -16.675781 5.910156 -16.828125 6.859375 -16.828125 C 7.296875 -16.828125 7.703125 -16.804688 8.078125 -16.765625 C 8.460938 -16.734375 8.832031 -16.675781 9.1875 -16.59375 C 9.550781 -16.507812 9.90625 -16.398438 10.25 -16.265625 C 10.601562 -16.140625 10.960938 -15.988281 11.328125 -15.8125 Z M 10.875 -13.59375 "/></g></g></g><g fill="#442921" fill-opacity="1"><g transform="translate(251.784456, 300.900331)"><g><path d="M 10.703125 -9.453125 L 10.703125 -7.640625 L 4.140625 -7.640625 L 4.140625 -4.921875 C 4.140625 -3.796875 4.144531 -2.804688 4.15625 -1.953125 C 4.175781 -1.097656 4.226562 -0.445312 4.3125 0 L 1.8125 0 C 1.894531 -0.457031 1.941406 -1.113281 1.953125 -1.96875 C 1.972656 -2.820312 1.984375 -3.804688 1.984375 -4.921875 L 1.984375 -13.140625 C 1.984375 -13.648438 1.976562 -14.117188 1.96875 -14.546875 C 1.957031 -14.972656 1.9375 -15.351562 1.90625 -15.6875 C 1.882812 -16.03125 1.851562 -16.316406 1.8125 -16.546875 L 11.671875 -16.546875 L 11.671875 -14.671875 L 4.140625 -14.671875 L 4.140625 -9.453125 Z M 10.703125 -9.453125 "/></g></g></g><g fill="#442921" fill-opacity="1"><g transform="translate(264.806962, 300.900331)"><g><path d="M 4.140625 -4.921875 C 4.140625 -4.367188 4.140625 -3.84375 4.140625 -3.34375 C 4.140625 -2.84375 4.144531 -2.378906 4.15625 -1.953125 C 4.175781 -1.535156 4.195312 -1.160156 4.21875 -0.828125 C 4.238281 -0.492188 4.269531 -0.21875 4.3125 0 L 1.8125 0 C 1.894531 -0.457031 1.941406 -1.113281 1.953125 -1.96875 C 1.972656 -2.820312 1.984375 -3.804688 1.984375 -4.921875 L 1.984375 -12.953125 C 1.984375 -13.484375 1.976562 -13.972656 1.96875 -14.421875 C 1.957031 -14.878906 1.9375 -15.289062 1.90625 -15.65625 C 1.882812 -16.019531 1.851562 -16.316406 1.8125 -16.546875 C 2.207031 -16.554688 2.640625 -16.570312 3.109375 -16.59375 C 3.523438 -16.613281 4.007812 -16.628906 4.5625 -16.640625 C 5.125 -16.648438 5.738281 -16.65625 6.40625 -16.65625 C 7.289062 -16.65625 8.09375 -16.566406 8.8125 -16.390625 C 9.539062 -16.210938 10.164062 -15.9375 10.6875 -15.5625 C 11.21875 -15.1875 11.625 -14.703125 11.90625 -14.109375 C 12.195312 -13.523438 12.34375 -12.828125 12.34375 -12.015625 C 12.34375 -11.328125 12.234375 -10.71875 12.015625 -10.1875 C 11.804688 -9.65625 11.523438 -9.195312 11.171875 -8.8125 C 10.828125 -8.4375 10.429688 -8.125 9.984375 -7.875 C 9.535156 -7.625 9.082031 -7.4375 8.625 -7.3125 C 8.851562 -7 9.128906 -6.617188 9.453125 -6.171875 C 9.785156 -5.722656 10.132812 -5.242188 10.5 -4.734375 C 10.875 -4.234375 11.253906 -3.722656 11.640625 -3.203125 C 12.023438 -2.691406 12.378906 -2.21875 12.703125 -1.78125 C 13.035156 -1.34375 13.328125 -0.960938 13.578125 -0.640625 C 13.828125 -0.328125 14.003906 -0.113281 14.109375 0 L 11.21875 0 L 6.4375 -7.078125 L 4.140625 -7.078125 Z M 4.140625 -8.84375 L 6.28125 -8.84375 C 7.570312 -8.84375 8.546875 -9.101562 9.203125 -9.625 C 9.867188 -10.15625 10.203125 -10.894531 10.203125 -11.84375 C 10.203125 -12.320312 10.125 -12.75 9.96875 -13.125 C 9.820312 -13.5 9.59375 -13.8125 9.28125 -14.0625 C 8.96875 -14.3125 8.5625 -14.503906 8.0625 -14.640625 C 7.570312 -14.773438 6.976562 -14.84375 6.28125 -14.84375 C 5.882812 -14.84375 5.503906 -14.835938 5.140625 -14.828125 C 4.773438 -14.816406 4.441406 -14.800781 4.140625 -14.78125 Z M 4.140625 -8.84375 "/></g></g></g><g fill="#442921" fill-opacity="1"><g transform="translate(279.584694, 300.900331)"><g><path d="M 7.765625 -14.328125 L 4.90625 -6.125 L 10.65625 -6.125 Z M 0.453125 0 C 0.546875 -0.226562 0.644531 -0.46875 0.75 -0.71875 C 0.863281 -0.96875 0.984375 -1.25 1.109375 -1.5625 C 1.234375 -1.875 1.367188 -2.226562 1.515625 -2.625 C 1.671875 -3.03125 1.847656 -3.492188 2.046875 -4.015625 L 6.578125 -16.546875 L 9 -16.546875 L 13.53125 -4.015625 C 13.726562 -3.492188 13.898438 -3.03125 14.046875 -2.625 C 14.203125 -2.226562 14.34375 -1.875 14.46875 -1.5625 C 14.59375 -1.25 14.707031 -0.96875 14.8125 -0.71875 C 14.925781 -0.46875 15.03125 -0.226562 15.125 0 L 12.796875 0 L 11.265625 -4.359375 L 4.296875 -4.359375 L 2.78125 0 Z M 0.453125 0 "/></g></g></g><g fill="#442921" fill-opacity="1"><g transform="translate(295.381591, 300.900331)"><g><path d="M 13.9375 -1.59375 C 13.601562 -1.28125 13.210938 -1.007812 12.765625 -0.78125 C 12.316406 -0.550781 11.847656 -0.351562 11.359375 -0.1875 C 10.878906 -0.03125 10.390625 0.0820312 9.890625 0.15625 C 9.390625 0.238281 8.925781 0.28125 8.5 0.28125 C 7.351562 0.28125 6.320312 0.0859375 5.40625 -0.296875 C 4.488281 -0.691406 3.707031 -1.25 3.0625 -1.96875 C 2.425781 -2.6875 1.9375 -3.554688 1.59375 -4.578125 C 1.25 -5.609375 1.078125 -6.765625 1.078125 -8.046875 C 1.078125 -9.503906 1.285156 -10.78125 1.703125 -11.875 C 2.128906 -12.976562 2.695312 -13.894531 3.40625 -14.625 C 4.113281 -15.351562 4.925781 -15.898438 5.84375 -16.265625 C 6.769531 -16.640625 7.726562 -16.828125 8.71875 -16.828125 C 9.125 -16.828125 9.539062 -16.800781 9.96875 -16.75 C 10.394531 -16.695312 10.820312 -16.609375 11.25 -16.484375 C 11.675781 -16.359375 12.097656 -16.191406 12.515625 -15.984375 C 12.941406 -15.785156 13.359375 -15.535156 13.765625 -15.234375 L 13.078125 -13.203125 C 12.722656 -13.515625 12.359375 -13.78125 11.984375 -14 C 11.617188 -14.21875 11.25 -14.394531 10.875 -14.53125 C 10.507812 -14.664062 10.144531 -14.757812 9.78125 -14.8125 C 9.414062 -14.875 9.0625 -14.90625 8.71875 -14.90625 C 7.925781 -14.90625 7.195312 -14.765625 6.53125 -14.484375 C 5.875 -14.210938 5.300781 -13.800781 4.8125 -13.25 C 4.332031 -12.695312 3.957031 -12.007812 3.6875 -11.1875 C 3.414062 -10.363281 3.28125 -9.410156 3.28125 -8.328125 C 3.28125 -7.304688 3.414062 -6.382812 3.6875 -5.5625 C 3.957031 -4.75 4.328125 -4.054688 4.796875 -3.484375 C 5.265625 -2.910156 5.820312 -2.46875 6.46875 -2.15625 C 7.125 -1.851562 7.835938 -1.703125 8.609375 -1.703125 C 9.035156 -1.703125 9.46875 -1.75 9.90625 -1.84375 C 10.351562 -1.945312 10.785156 -2.085938 11.203125 -2.265625 C 11.628906 -2.453125 12.035156 -2.671875 12.421875 -2.921875 C 12.804688 -3.179688 13.160156 -3.472656 13.484375 -3.796875 Z M 13.9375 -1.59375 "/></g></g></g><g fill="#442921" fill-opacity="1"><g transform="translate(310.725508, 300.900331)"><g><path d="M 10.59375 -9.578125 L 10.59375 -7.765625 L 4.140625 -7.765625 L 4.140625 -1.875 L 7.125 -1.875 C 8.25 -1.875 9.191406 -1.878906 9.953125 -1.890625 C 10.722656 -1.910156 11.332031 -1.960938 11.78125 -2.046875 L 11.78125 0 L 1.8125 0 C 1.894531 -0.457031 1.941406 -1.113281 1.953125 -1.96875 C 1.972656 -2.820312 1.984375 -3.804688 1.984375 -4.921875 L 1.984375 -11.609375 C 1.984375 -12.734375 1.972656 -13.722656 1.953125 -14.578125 C 1.941406 -15.429688 1.894531 -16.085938 1.8125 -16.546875 L 11.4375 -16.546875 L 11.4375 -14.671875 L 4.140625 -14.671875 L 4.140625 -9.578125 Z M 10.59375 -9.578125 "/></g></g></g><g fill="#442921" fill-opacity="1"><g transform="translate(323.861264, 300.900331)"><g><path d="M 10.875 -13.59375 C 10.46875 -13.820312 10.09375 -14.015625 9.75 -14.171875 C 9.40625 -14.328125 9.070312 -14.453125 8.75 -14.546875 C 8.425781 -14.648438 8.097656 -14.722656 7.765625 -14.765625 C 7.441406 -14.816406 7.097656 -14.84375 6.734375 -14.84375 C 6.285156 -14.84375 5.875 -14.773438 5.5 -14.640625 C 5.125 -14.503906 4.800781 -14.320312 4.53125 -14.09375 C 4.257812 -13.863281 4.050781 -13.601562 3.90625 -13.3125 C 3.757812 -13.019531 3.6875 -12.71875 3.6875 -12.40625 C 3.6875 -12.09375 3.726562 -11.8125 3.8125 -11.5625 C 3.894531 -11.3125 4.066406 -11.070312 4.328125 -10.84375 C 4.597656 -10.625 4.976562 -10.40625 5.46875 -10.1875 C 5.957031 -9.976562 6.609375 -9.753906 7.421875 -9.515625 C 8.171875 -9.296875 8.832031 -9.039062 9.40625 -8.75 C 9.988281 -8.457031 10.472656 -8.125 10.859375 -7.75 C 11.253906 -7.375 11.550781 -6.941406 11.75 -6.453125 C 11.957031 -5.972656 12.0625 -5.425781 12.0625 -4.8125 C 12.0625 -4.050781 11.910156 -3.359375 11.609375 -2.734375 C 11.316406 -2.109375 10.910156 -1.570312 10.390625 -1.125 C 9.878906 -0.675781 9.28125 -0.328125 8.59375 -0.078125 C 7.90625 0.160156 7.175781 0.28125 6.40625 0.28125 C 5.851562 0.28125 5.316406 0.242188 4.796875 0.171875 C 4.285156 0.0976562 3.800781 -0.00390625 3.34375 -0.140625 C 2.882812 -0.273438 2.460938 -0.4375 2.078125 -0.625 C 1.691406 -0.8125 1.359375 -1.019531 1.078125 -1.25 L 1.59375 -3.5625 C 2.34375 -2.90625 3.117188 -2.429688 3.921875 -2.140625 C 4.722656 -1.847656 5.550781 -1.703125 6.40625 -1.703125 C 6.851562 -1.703125 7.285156 -1.765625 7.703125 -1.890625 C 8.128906 -2.015625 8.503906 -2.203125 8.828125 -2.453125 C 9.160156 -2.703125 9.421875 -3.003906 9.609375 -3.359375 C 9.804688 -3.710938 9.90625 -4.125 9.90625 -4.59375 C 9.90625 -4.882812 9.859375 -5.160156 9.765625 -5.421875 C 9.671875 -5.691406 9.476562 -5.957031 9.1875 -6.21875 C 8.90625 -6.476562 8.492188 -6.734375 7.953125 -6.984375 C 7.421875 -7.234375 6.710938 -7.492188 5.828125 -7.765625 C 4.953125 -8.023438 4.234375 -8.3125 3.671875 -8.625 C 3.109375 -8.945312 2.664062 -9.296875 2.34375 -9.671875 C 2.03125 -10.046875 1.816406 -10.445312 1.703125 -10.875 C 1.585938 -11.300781 1.53125 -11.753906 1.53125 -12.234375 C 1.53125 -12.722656 1.628906 -13.234375 1.828125 -13.765625 C 2.023438 -14.296875 2.335938 -14.785156 2.765625 -15.234375 C 3.203125 -15.691406 3.753906 -16.070312 4.421875 -16.375 C 5.097656 -16.675781 5.910156 -16.828125 6.859375 -16.828125 C 7.296875 -16.828125 7.703125 -16.804688 8.078125 -16.765625 C 8.460938 -16.734375 8.832031 -16.675781 9.1875 -16.59375 C 9.550781 -16.507812 9.90625 -16.398438 10.25 -16.265625 C 10.601562 -16.140625 10.960938 -15.988281 11.328125 -15.8125 Z M 10.875 -13.59375 "/></g></g></g><g fill="#442921" fill-opacity="1"><g transform="translate(156.005122, 351.59798)"><g><path d="M 42.550781 -30.816406 C 41.058594 -27.933594 39.515625 -25.050781 37.976562 -22.167969 C 33.898438 -14.414062 30.171875 -6.460938 27.140625 1.839844 C 26.394531 3.777344 25.796875 5.816406 25.25 7.902344 C 25.050781 8.75 25.050781 9.691406 25.050781 10.585938 C 25.050781 11.234375 25.398438 11.730469 25.945312 12.078125 C 26.890625 12.625 27.886719 12.773438 29.226562 12.277344 C 27.738281 11.382812 27.984375 10.191406 28.28125 9.097656 C 28.679688 7.554688 29.179688 6.0625 29.773438 4.574219 C 32.457031 -2.285156 35.539062 -8.945312 38.921875 -15.457031 C 43.144531 -23.710938 47.371094 -31.863281 51.59375 -40.113281 C 52.292969 -41.457031 52.988281 -42.796875 53.535156 -44.1875 C 53.832031 -44.933594 54.28125 -45.730469 54.03125 -46.625 C 52.441406 -47.667969 51.199219 -47.667969 49.957031 -46.574219 C 49.257812 -45.878906 48.613281 -45.132812 48.015625 -44.339844 C 45.183594 -40.609375 42.300781 -36.882812 39.515625 -33.105469 C 34.84375 -26.742188 29.625 -20.828125 24.554688 -14.8125 C 24.257812 -14.464844 23.859375 -14.214844 23.0625 -13.570312 C 23.460938 -14.714844 23.609375 -15.359375 23.910156 -15.957031 C 25.398438 -19.433594 26.992188 -22.914062 28.53125 -26.34375 C 29.226562 -27.933594 29.972656 -29.527344 30.667969 -31.117188 C 30.917969 -31.8125 31.167969 -32.558594 31.316406 -33.304688 C 31.515625 -34.496094 31.015625 -35.144531 29.726562 -35.292969 C 28.382812 -35.441406 27.140625 -35.144531 26.144531 -34.246094 C 25.152344 -33.402344 24.15625 -32.558594 23.3125 -31.613281 C 20.726562 -28.433594 18.09375 -25.300781 15.65625 -22.019531 C 12.972656 -18.441406 10.488281 -14.761719 7.902344 -11.085938 C 7.40625 -10.390625 6.859375 -9.691406 6.3125 -8.945312 C 6.164062 -9.941406 6.609375 -10.636719 6.957031 -11.332031 C 9.492188 -16.851562 12.128906 -22.316406 14.664062 -27.835938 C 15.359375 -29.328125 15.90625 -30.917969 16.453125 -32.457031 C 16.703125 -33.253906 16.851562 -34.097656 16.851562 -34.894531 C 16.949219 -36.136719 16.402344 -36.734375 15.160156 -36.882812 C 13.769531 -37.132812 12.476562 -36.683594 11.285156 -35.9375 C 8.152344 -33.898438 5.46875 -31.316406 3.378906 -28.234375 C 2.683594 -27.191406 2.238281 -26.097656 2.039062 -24.851562 C 1.890625 -24.007812 1.988281 -23.164062 2.4375 -22.417969 C 2.832031 -21.773438 3.332031 -21.226562 4.375 -21.421875 C 3.777344 -24.703125 5.320312 -27.191406 7.355469 -29.375 C 8.996094 -31.167969 10.835938 -32.757812 12.625 -34.398438 C 12.972656 -34.695312 13.46875 -34.894531 13.96875 -35.144531 C 14.414062 -34.246094 14.167969 -33.503906 13.917969 -32.804688 C 13.222656 -30.96875 12.574219 -29.128906 11.78125 -27.339844 C 9.097656 -21.574219 6.3125 -15.808594 3.578125 -10.089844 C 2.039062 -6.808594 0.449219 -3.527344 -1.09375 -0.25 C -1.390625 0.398438 -1.9375 1.042969 -1.539062 1.890625 C -0.25 2.484375 0.796875 2.1875 1.691406 1.144531 C 2.335938 0.398438 2.980469 -0.347656 3.628906 -1.09375 C 7.953125 -6.363281 11.980469 -11.832031 15.957031 -17.398438 C 19.085938 -21.722656 22.515625 -25.898438 25.796875 -30.171875 C 26.292969 -30.769531 26.792969 -31.464844 27.785156 -31.910156 C 27.636719 -31.316406 27.585938 -30.867188 27.386719 -30.46875 C 26.742188 -28.878906 26.046875 -27.289062 25.351562 -25.648438 C 23.660156 -21.722656 21.921875 -17.746094 20.28125 -13.769531 C 19.933594 -12.875 19.683594 -11.878906 19.535156 -10.933594 C 19.335938 -9.992188 19.832031 -9.492188 20.726562 -9.34375 C 21.871094 -9.195312 22.816406 -9.644531 23.609375 -10.390625 C 25.203125 -11.878906 26.890625 -13.320312 28.332031 -15.011719 C 32.855469 -20.28125 37.28125 -25.648438 41.804688 -30.96875 C 42.152344 -31.414062 42.550781 -31.863281 42.945312 -32.359375 C 43.292969 -31.613281 42.796875 -31.214844 42.550781 -30.816406 Z M 42.550781 -30.816406 "/></g></g></g><g fill="#442921" fill-opacity="1"><g transform="translate(197.900884, 351.59798)"><g><path d="M 7.753906 -37.527344 C 8.300781 -38.125 8.75 -38.871094 9.394531 -39.367188 C 13.222656 -42.398438 17.546875 -44.289062 22.269531 -45.28125 C 22.367188 -45.28125 22.417969 -45.332031 22.515625 -45.332031 C 23.5625 -45.382812 24.15625 -44.734375 23.808594 -43.792969 C 23.460938 -42.796875 23.015625 -41.804688 22.367188 -40.957031 C 20.828125 -38.871094 19.1875 -36.933594 17.597656 -34.894531 C 16.203125 -33.203125 14.761719 -31.515625 13.46875 -29.726562 C 12.726562 -28.730469 12.128906 -27.539062 11.679688 -26.34375 C 10.785156 -23.957031 11.285156 -22.269531 13.320312 -20.726562 C 14.367188 -19.882812 15.609375 -19.285156 16.800781 -18.589844 C 18.09375 -17.84375 19.484375 -17.199219 20.726562 -16.355469 C 23.015625 -14.910156 23.859375 -12.773438 23.460938 -10.089844 C 23.3125 -9.195312 23.015625 -8.5 22.21875 -8.050781 C 21.375 -7.503906 20.578125 -6.957031 19.785156 -6.414062 C 14.367188 -2.734375 9.144531 1.191406 4.375 5.617188 C 3.082031 6.808594 1.890625 8.050781 0.796875 9.394531 C -0.695312 11.234375 -0.0976562 12.476562 2.238281 12.773438 C 2.4375 12.773438 2.683594 12.773438 2.882812 12.773438 C 4.722656 12.921875 6.363281 12.378906 7.953125 11.632812 C 14.5625 8.402344 20.230469 3.878906 24.804688 -1.9375 C 26.394531 -3.976562 27.6875 -6.261719 28.183594 -8.796875 C 28.480469 -10.039062 29.078125 -10.835938 30.074219 -11.480469 C 30.96875 -12.027344 31.8125 -12.726562 32.65625 -13.371094 C 32.855469 -13.519531 33.203125 -13.667969 33.003906 -14.214844 C 31.214844 -14.5625 30.320312 -12.476562 28.582031 -12.425781 C 27.933594 -15.261719 26.097656 -16.949219 23.808594 -18.34375 C 22.765625 -18.9375 21.671875 -19.484375 20.628906 -20.082031 C 19.832031 -20.480469 19.039062 -20.925781 18.292969 -21.421875 C 16.550781 -22.566406 16.054688 -23.957031 16.703125 -25.945312 C 17.050781 -26.992188 17.597656 -28.085938 18.191406 -28.980469 C 19.484375 -30.867188 20.925781 -32.65625 22.269531 -34.445312 C 23.710938 -36.335938 25.152344 -38.175781 26.492188 -40.113281 C 27.089844 -40.957031 27.585938 -41.953125 27.886719 -42.945312 C 28.53125 -44.835938 27.886719 -46.027344 25.996094 -46.675781 C 24.703125 -47.121094 23.363281 -47.269531 21.96875 -47.074219 C 17.148438 -46.425781 12.773438 -44.539062 8.945312 -41.605469 C 8.050781 -40.910156 7.355469 -39.964844 6.710938 -39.019531 C 6.214844 -38.375 6.015625 -37.527344 6.660156 -36.386719 C 7.15625 -36.882812 7.457031 -37.179688 7.753906 -37.527344 Z M 4.871094 10.390625 C 4.472656 9.84375 4.820312 9.542969 5.019531 9.296875 C 5.964844 8.203125 6.859375 7.109375 7.902344 6.113281 C 11.832031 2.238281 16.15625 -1.191406 20.527344 -4.523438 C 20.726562 -4.671875 20.925781 -4.722656 21.125 -4.820312 C 17.347656 2.039062 11.679688 6.859375 4.871094 10.390625 Z M 4.871094 10.390625 "/></g></g></g><g fill="#442921" fill-opacity="1"><g transform="translate(231.98082, 351.59798)"><g/></g></g><path fill="#000000" d="M 238.65625 325.867188 C 241.683594 324.839844 244.929688 324.683594 248.085938 324.339844 C 257.765625 323.433594 267.484375 324.867188 276.886719 327.109375 C 288.753906 329.910156 304.667969 335.734375 316.085938 329.21875 C 312.1875 326.210938 307.40625 322.40625 305.683594 317.6875 C 304.511719 314.34375 307.296875 311.863281 310.441406 313.617188 C 312.648438 314.878906 313.753906 317.273438 314.683594 319.53125 C 315.503906 317.167969 318.742188 314.136719 321.007812 316.628906 C 323.585938 320.472656 321.25 326.492188 317.90625 329.195312 C 320.820312 331.179688 324.03125 332.839844 327.519531 333.519531 C 328.921875 333.808594 330.347656 333.910156 331.773438 333.871094 C 332.25 333.90625 332.816406 333.671875 333.238281 333.933594 C 334.035156 335.015625 332.25 334.914062 331.601562 334.929688 C 326.300781 335.101562 321.277344 332.84375 317.011719 329.871094 C 304.714844 337.359375 287.515625 330.480469 274.609375 327.675781 C 265.417969 325.570312 255.902344 324.460938 246.496094 325.554688 C 244.167969 325.835938 241.800781 326.007812 239.546875 326.675781 C 238.28125 327.113281 237.027344 327.570312 235.800781 328.105469 C 235.367188 328.242188 234.609375 328.933594 234.234375 328.292969 C 233.640625 327.300781 237.796875 326.300781 238.65625 325.867188 Z M 320.96875 321.242188 C 321.054688 319.78125 321.089844 317.902344 319.78125 316.949219 C 317.464844 316.046875 315.746094 319.253906 315.273438 321.101562 C 317.308594 326.109375 313.0625 326.269531 314.171875 321.152344 C 313.21875 318.726562 312.269531 315.9375 309.90625 314.527344 C 307.980469 313.445312 306.054688 314.5 306.558594 316.800781 C 307.746094 321.429688 313.292969 325.746094 316.992188 328.578125 C 319.277344 326.828125 320.679688 324.078125 320.972656 321.242188 Z M 320.96875 321.242188 " fill-opacity="1" fill-rule="nonzero"/></svg>