<svg xmlns="http://www.w3.org/2000/svg" xmlns:xlink="http://www.w3.org/1999/xlink" width="400" zoomAndPan="magnify" viewBox="0 0 300 112.499997" height="150" preserveAspectRatio="xMidYMid meet" version="1.0"><defs><g/><clipPath id="45365f1423"><path d="M 47.246094 0 L 68.152344 0 L 68.152344 5.316406 L 47.246094 5.316406 Z M 47.246094 0 " clip-rule="nonzero"/></clipPath><clipPath id="3ff2a8b6cd"><path d="M 58.28125 60.769531 L 109.800781 60.769531 L 109.800781 76.449219 L 58.28125 76.449219 Z M 58.28125 60.769531 " clip-rule="nonzero"/></clipPath><clipPath id="3c385c2b67"><path d="M 193.867188 55.769531 L 245.386719 55.769531 L 245.386719 71.449219 L 193.867188 71.449219 Z M 193.867188 55.769531 " clip-rule="nonzero"/></clipPath><clipPath id="0233ec1356"><path d="M 266.066406 58.0625 L 283.242188 58.0625 L 283.242188 76.730469 L 266.066406 76.730469 Z M 266.066406 58.0625 " clip-rule="nonzero"/></clipPath><clipPath id="82adfe1b63"><path d="M 23.21875 42.132812 L 40.390625 42.132812 L 40.390625 60.800781 L 23.21875 60.800781 Z M 23.21875 42.132812 " clip-rule="nonzero"/></clipPath><clipPath id="be62e4eaf6"><path d="M 55.164062 82.6875 L 67.113281 82.6875 L 67.113281 95.382812 L 55.164062 95.382812 Z M 55.164062 82.6875 " clip-rule="nonzero"/></clipPath></defs><g clip-path="url(#45365f1423)"><path fill="#ffffff" d="M 68.015625 -10.683594 C 66.578125 -10.59375 65.148438 -10.421875 63.730469 -10.171875 C 63.039062 -10.058594 62.339844 -9.96875 61.65625 -9.804688 C 61.03125 -9.652344 60.398438 -9.464844 59.75 -9.472656 C 58.695312 -11.378906 58.144531 -13.5 57.203125 -15.457031 C 56.957031 -16.011719 56.648438 -16.53125 56.28125 -17.015625 C 56.222656 -17.085938 56.113281 -17 56.144531 -16.921875 C 56.136719 -16.914062 56.132812 -16.902344 56.128906 -16.890625 C 55.425781 -14.148438 54.703125 -11.414062 53.90625 -8.699219 C 53.886719 -8.730469 53.859375 -8.742188 53.824219 -8.742188 C 52.699219 -8.679688 51.589844 -8.503906 50.5 -8.214844 C 49.410156 -7.953125 48.351562 -7.605469 47.316406 -7.167969 C 47.28125 -7.152344 47.261719 -7.121094 47.261719 -7.082031 C 47.238281 -7.035156 47.246094 -7.003906 47.292969 -6.976562 C 47.472656 -6.875 47.628906 -6.75 47.765625 -6.597656 C 47.929688 -6.441406 48.085938 -6.28125 48.246094 -6.125 C 48.671875 -5.722656 49.121094 -5.347656 49.59375 -4.996094 C 50.671875 -4.164062 51.804688 -3.410156 52.949219 -2.675781 C 52.8125 -2.074219 52.710938 -1.464844 52.597656 -0.859375 C 52.46875 -0.1875 52.339844 0.488281 52.207031 1.164062 C 51.941406 2.5 51.648438 3.828125 51.355469 5.160156 C 51.34375 5.222656 51.367188 5.265625 51.421875 5.292969 C 51.480469 5.320312 51.527344 5.308594 51.566406 5.257812 C 52.023438 4.992188 52.457031 4.691406 52.859375 4.351562 C 53.304688 3.992188 53.746094 3.621094 54.179688 3.242188 C 55.0625 2.480469 55.925781 1.691406 56.777344 0.890625 C 57.265625 0.433594 57.746094 -0.03125 58.222656 -0.496094 C 58.707031 -0.269531 59.179688 -0.0195312 59.636719 0.261719 C 60.140625 0.554688 60.664062 0.8125 61.183594 1.074219 C 62.269531 1.628906 63.359375 2.171875 64.441406 2.730469 C 65.0625 3.046875 65.679688 3.375 66.300781 3.6875 C 66.429688 3.753906 66.542969 3.5625 66.414062 3.492188 L 66.375 3.472656 C 66.40625 3.433594 66.414062 3.394531 66.386719 3.351562 C 65.835938 2.261719 65.265625 1.179688 64.722656 0.0859375 C 64.453125 -0.457031 64.1875 -0.996094 63.910156 -1.535156 C 63.652344 -2.09375 63.363281 -2.636719 63.046875 -3.164062 C 63.019531 -3.207031 62.984375 -3.214844 62.941406 -3.191406 C 62.898438 -3.164062 62.886719 -3.128906 62.910156 -3.085938 C 63.148438 -2.523438 63.464844 -1.984375 63.738281 -1.433594 C 64.003906 -0.890625 64.273438 -0.347656 64.539062 0.195312 C 65.058594 1.25 65.5625 2.320312 66.140625 3.347656 C 65.152344 2.8125 64.136719 2.3125 63.132812 1.808594 C 62.046875 1.265625 60.9375 0.757812 59.878906 0.164062 C 59.351562 -0.132812 58.832031 -0.476562 58.25 -0.660156 C 58.230469 -0.695312 58.203125 -0.71875 58.160156 -0.722656 C 58.121094 -0.730469 58.085938 -0.71875 58.054688 -0.691406 C 56.402344 0.90625 54.71875 2.472656 52.96875 3.960938 C 52.539062 4.328125 52.097656 4.679688 51.636719 5.003906 C 51.945312 3.742188 52.203125 2.46875 52.445312 1.191406 C 52.699219 -0.113281 52.980469 -1.429688 53.144531 -2.75 C 53.144531 -2.753906 53.144531 -2.761719 53.144531 -2.765625 C 53.148438 -2.785156 53.148438 -2.800781 53.152344 -2.816406 C 53.15625 -2.871094 53.113281 -2.898438 53.066406 -2.898438 C 51.910156 -3.636719 50.765625 -4.394531 49.671875 -5.230469 C 49.207031 -5.574219 48.765625 -5.941406 48.34375 -6.335938 C 48.109375 -6.59375 47.851562 -6.824219 47.566406 -7.019531 C 49.578125 -7.828125 51.667969 -8.332031 53.824219 -8.539062 C 53.863281 -8.542969 53.886719 -8.558594 53.90625 -8.589844 C 53.929688 -8.546875 53.96875 -8.523438 54.019531 -8.527344 C 54.070312 -8.53125 54.105469 -8.558594 54.121094 -8.609375 C 54.917969 -11.28125 55.636719 -13.976562 56.277344 -16.695312 C 56.503906 -16.3125 56.726562 -15.929688 56.921875 -15.527344 C 57.171875 -15.019531 57.386719 -14.5 57.589844 -13.972656 C 57.992188 -12.945312 58.351562 -11.898438 58.785156 -10.882812 C 59.007812 -10.363281 59.257812 -9.859375 59.542969 -9.367188 C 59.546875 -9.339844 59.558594 -9.320312 59.578125 -9.304688 C 59.59375 -9.277344 59.609375 -9.253906 59.625 -9.226562 C 59.652344 -9.183594 59.695312 -9.164062 59.746094 -9.175781 C 59.800781 -9.191406 59.828125 -9.222656 59.835938 -9.277344 C 60.429688 -9.273438 61.011719 -9.429688 61.589844 -9.570312 C 62.269531 -9.734375 62.964844 -9.828125 63.652344 -9.9375 C 65.039062 -10.15625 66.429688 -10.363281 67.832031 -10.460938 C 67.542969 -10.035156 67.273438 -9.597656 66.972656 -9.179688 C 66.613281 -8.6875 66.234375 -8.210938 65.855469 -7.734375 C 65.128906 -6.816406 64.390625 -5.902344 63.773438 -4.90625 C 63.699219 -4.785156 63.886719 -4.675781 63.964844 -4.792969 C 64.613281 -5.800781 65.355469 -6.734375 66.09375 -7.671875 C 66.445312 -8.125 66.800781 -8.582031 67.136719 -9.046875 C 67.488281 -9.503906 67.800781 -9.984375 68.070312 -10.496094 C 68.144531 -10.546875 68.128906 -10.691406 68.015625 -10.683594 Z M 68.015625 -10.683594 " fill-opacity="1" fill-rule="nonzero"/></g><g clip-path="url(#3ff2a8b6cd)"><path fill="#ffffff" d="M 63.40625 72.011719 C 64 72.222656 64.554688 72.429688 65.117188 72.613281 C 65.679688 72.796875 66.128906 73.152344 66.5625 73.527344 C 66.867188 73.792969 66.96875 74.144531 66.824219 74.535156 C 66.734375 74.792969 66.632812 75.054688 66.5 75.292969 C 66.015625 76.167969 65.210938 76.449219 64.246094 76.191406 C 62.992188 75.855469 62.605469 75.367188 62.390625 73.851562 C 62.34375 73.53125 62.382812 73.199219 62.382812 72.820312 C 62.164062 72.847656 61.941406 72.851562 61.726562 72.90625 C 60.886719 73.105469 60.09375 73.382812 59.425781 73.964844 C 59.195312 74.167969 58.867188 74.273438 58.570312 74.382812 C 58.375 74.457031 58.316406 74.378906 58.386719 74.179688 C 58.554688 73.671875 58.886719 73.222656 59.335938 72.917969 C 60.300781 72.253906 61.335938 71.792969 62.546875 71.851562 C 62.613281 71.851562 62.726562 71.78125 62.75 71.71875 C 63.382812 70.230469 64.351562 68.980469 65.472656 67.8125 C 66.753906 66.476562 68.292969 65.402344 70.003906 64.660156 C 71.484375 64.011719 72.984375 63.316406 74.578125 62.976562 C 77.023438 62.460938 79.496094 62.425781 81.972656 62.835938 C 84.554688 63.261719 87.085938 63.890625 89.625 64.488281 C 91.308594 64.886719 92.996094 65.296875 94.726562 65.394531 C 96.054688 65.472656 97.394531 65.453125 98.730469 65.410156 C 99.792969 65.378906 100.855469 65.292969 101.910156 65.152344 C 103.175781 64.980469 104.339844 64.460938 105.507812 63.992188 C 107.03125 63.382812 108.269531 62.421875 109.171875 61.058594 C 109.265625 60.914062 109.371094 60.769531 109.566406 60.851562 C 109.761719 60.933594 109.742188 61.121094 109.703125 61.277344 C 109.59375 61.742188 109.363281 62.167969 109.03125 62.519531 C 108.097656 63.488281 107.070312 64.328125 105.789062 64.832031 C 104.542969 65.324219 103.316406 65.878906 101.972656 66.070312 C 101.101562 66.195312 100.21875 66.285156 99.339844 66.332031 C 98.042969 66.394531 96.738281 66.449219 95.4375 66.425781 C 93.515625 66.390625 91.648438 65.957031 89.78125 65.542969 C 87.699219 65.085938 85.628906 64.554688 83.539062 64.121094 C 81.824219 63.761719 80.089844 63.46875 78.320312 63.527344 C 77.070312 63.570312 75.789062 63.535156 74.601562 63.90625 C 72.164062 64.671875 69.671875 65.367188 67.582031 66.917969 C 65.925781 68.144531 64.507812 69.597656 63.621094 71.480469 C 63.539062 71.648438 63.480469 71.828125 63.40625 72.011719 Z M 63.171875 72.972656 C 63.03125 73.535156 63.136719 74.03125 63.300781 74.527344 C 63.511719 75.175781 64.128906 75.574219 64.855469 75.539062 C 65.488281 75.511719 65.859375 75.164062 66.035156 74.433594 C 66.039062 74.425781 66.042969 74.414062 66.042969 74.410156 C 66 74.308594 65.996094 74.167969 65.917969 74.105469 C 65.128906 73.46875 64.175781 73.195312 63.171875 72.972656 Z M 63.171875 72.972656 " fill-opacity="1" fill-rule="nonzero"/></g><g fill="#ffffff" fill-opacity="1"><g transform="translate(110.354931, 77.072964)"><g><path d="M 41.777344 -30.257812 C 40.3125 -27.425781 38.796875 -24.597656 37.285156 -21.765625 C 33.285156 -14.152344 29.625 -6.34375 26.648438 1.804688 C 25.914062 3.710938 25.328125 5.710938 24.792969 7.757812 C 24.597656 8.589844 24.597656 9.515625 24.597656 10.394531 C 24.597656 11.03125 24.9375 11.515625 25.476562 11.859375 C 26.402344 12.394531 27.378906 12.542969 28.695312 12.054688 C 27.230469 11.175781 27.476562 10.003906 27.769531 8.929688 C 28.160156 7.417969 28.648438 5.953125 29.234375 4.488281 C 31.867188 -2.246094 34.894531 -8.785156 38.210938 -15.179688 C 42.359375 -23.277344 46.507812 -31.28125 50.65625 -39.382812 C 51.339844 -40.703125 52.023438 -42.019531 52.5625 -43.386719 C 52.855469 -44.117188 53.292969 -44.898438 53.050781 -45.777344 C 51.488281 -46.800781 50.265625 -46.800781 49.046875 -45.726562 C 48.363281 -45.046875 47.730469 -44.3125 47.144531 -43.53125 C 44.363281 -39.871094 41.53125 -36.210938 38.796875 -32.503906 C 34.210938 -26.257812 29.085938 -20.449219 24.109375 -14.542969 C 23.816406 -14.203125 23.425781 -13.957031 22.644531 -13.324219 C 23.035156 -14.445312 23.179688 -15.082031 23.472656 -15.664062 C 24.9375 -19.082031 26.5 -22.5 28.011719 -25.867188 C 28.695312 -27.425781 29.429688 -28.988281 30.113281 -30.550781 C 30.355469 -31.234375 30.597656 -31.964844 30.746094 -32.699219 C 30.941406 -33.871094 30.453125 -34.503906 29.183594 -34.648438 C 27.867188 -34.796875 26.648438 -34.503906 25.671875 -33.625 C 24.695312 -32.796875 23.71875 -31.964844 22.886719 -31.039062 C 20.351562 -27.914062 17.765625 -24.839844 15.371094 -21.621094 C 12.738281 -18.105469 10.296875 -14.496094 7.757812 -10.882812 C 7.273438 -10.199219 6.734375 -9.515625 6.199219 -8.785156 C 6.050781 -9.761719 6.492188 -10.445312 6.832031 -11.128906 C 9.320312 -16.542969 11.90625 -21.914062 14.398438 -27.328125 C 15.082031 -28.792969 15.617188 -30.355469 16.152344 -31.867188 C 16.398438 -32.648438 16.542969 -33.480469 16.542969 -34.261719 C 16.640625 -35.480469 16.105469 -36.066406 14.886719 -36.210938 C 13.519531 -36.457031 12.25 -36.015625 11.078125 -35.285156 C 8.003906 -33.285156 5.367188 -30.746094 3.320312 -27.71875 C 2.636719 -26.695312 2.195312 -25.621094 2 -24.402344 C 1.855469 -23.570312 1.953125 -22.742188 2.390625 -22.011719 C 2.78125 -21.375 3.269531 -20.839844 4.292969 -21.035156 C 3.710938 -24.253906 5.222656 -26.695312 7.222656 -28.84375 C 8.832031 -30.597656 10.640625 -32.160156 12.394531 -33.773438 C 12.738281 -34.066406 13.226562 -34.261719 13.714844 -34.503906 C 14.152344 -33.625 13.910156 -32.894531 13.664062 -32.210938 C 12.980469 -30.40625 12.347656 -28.597656 11.566406 -26.839844 C 8.929688 -21.179688 6.199219 -15.519531 3.515625 -9.90625 C 2 -6.6875 0.4375 -3.464844 -1.074219 -0.242188 C -1.367188 0.390625 -1.902344 1.023438 -1.511719 1.855469 C -0.242188 2.441406 0.78125 2.148438 1.660156 1.121094 C 2.292969 0.390625 2.929688 -0.339844 3.5625 -1.074219 C 7.808594 -6.246094 11.761719 -11.613281 15.664062 -17.082031 C 18.742188 -21.328125 22.109375 -25.425781 25.328125 -29.625 C 25.816406 -30.210938 26.304688 -30.890625 27.28125 -31.332031 C 27.132812 -30.746094 27.085938 -30.308594 26.890625 -29.917969 C 26.257812 -28.355469 25.574219 -26.792969 24.890625 -25.183594 C 23.230469 -21.328125 21.523438 -17.421875 19.910156 -13.519531 C 19.570312 -12.640625 19.324219 -11.664062 19.179688 -10.738281 C 18.984375 -9.808594 19.472656 -9.320312 20.351562 -9.175781 C 21.472656 -9.027344 22.402344 -9.46875 23.179688 -10.199219 C 24.742188 -11.664062 26.402344 -13.078125 27.816406 -14.738281 C 32.257812 -19.910156 36.601562 -25.183594 41.042969 -30.40625 C 41.386719 -30.84375 41.777344 -31.28125 42.164062 -31.769531 C 42.507812 -31.039062 42.019531 -30.648438 41.777344 -30.257812 Z M 41.777344 -30.257812 "/></g></g></g><g fill="#ffffff" fill-opacity="1"><g transform="translate(151.495649, 77.072964)"><g><path d="M 7.613281 -36.847656 C 8.148438 -37.433594 8.589844 -38.164062 9.222656 -38.652344 C 12.980469 -41.628906 17.226562 -43.484375 21.863281 -44.460938 C 21.960938 -44.460938 22.011719 -44.507812 22.109375 -44.507812 C 23.132812 -44.558594 23.71875 -43.921875 23.375 -42.996094 C 23.035156 -42.019531 22.597656 -41.042969 21.960938 -40.214844 C 20.449219 -38.164062 18.839844 -36.261719 17.277344 -34.261719 C 15.910156 -32.601562 14.496094 -30.941406 13.226562 -29.183594 C 12.492188 -28.207031 11.90625 -27.035156 11.46875 -25.867188 C 10.589844 -23.523438 11.078125 -21.863281 13.078125 -20.351562 C 14.105469 -19.519531 15.324219 -18.9375 16.496094 -18.253906 C 17.765625 -17.519531 19.128906 -16.886719 20.351562 -16.054688 C 22.597656 -14.640625 23.425781 -12.542969 23.035156 -9.90625 C 22.886719 -9.027344 22.597656 -8.34375 21.816406 -7.90625 C 20.984375 -7.371094 20.203125 -6.832031 19.421875 -6.296875 C 14.105469 -2.683594 8.980469 1.171875 4.292969 5.515625 C 3.027344 6.6875 1.855469 7.90625 0.78125 9.222656 C -0.683594 11.03125 -0.0976562 12.25 2.195312 12.542969 C 2.390625 12.542969 2.636719 12.542969 2.832031 12.542969 C 4.636719 12.6875 6.246094 12.152344 7.808594 11.421875 C 14.300781 8.246094 19.863281 3.808594 24.351562 -1.902344 C 25.914062 -3.902344 27.183594 -6.148438 27.671875 -8.636719 C 27.964844 -9.859375 28.550781 -10.640625 29.527344 -11.273438 C 30.40625 -11.808594 31.234375 -12.492188 32.0625 -13.128906 C 32.257812 -13.273438 32.601562 -13.421875 32.40625 -13.957031 C 30.648438 -14.300781 29.769531 -12.25 28.0625 -12.199219 C 27.425781 -14.984375 25.621094 -16.640625 23.375 -18.007812 C 22.351562 -18.59375 21.277344 -19.128906 20.253906 -19.714844 C 19.472656 -20.105469 18.691406 -20.546875 17.960938 -21.035156 C 16.25 -22.15625 15.761719 -23.523438 16.398438 -25.476562 C 16.738281 -26.5 17.277344 -27.574219 17.863281 -28.453125 C 19.128906 -30.308594 20.546875 -32.0625 21.863281 -33.820312 C 23.277344 -35.675781 24.695312 -37.480469 26.011719 -39.382812 C 26.597656 -40.214844 27.085938 -41.191406 27.378906 -42.164062 C 28.011719 -44.019531 27.378906 -45.191406 25.523438 -45.824219 C 24.253906 -46.265625 22.9375 -46.410156 21.570312 -46.214844 C 16.835938 -45.582031 12.542969 -43.726562 8.785156 -40.847656 C 7.90625 -40.164062 7.222656 -39.238281 6.589844 -38.308594 C 6.101562 -37.675781 5.90625 -36.847656 6.539062 -35.722656 C 7.027344 -36.210938 7.320312 -36.503906 7.613281 -36.847656 Z M 4.78125 10.199219 C 4.390625 9.664062 4.734375 9.371094 4.929688 9.125 C 5.855469 8.050781 6.734375 6.980469 7.757812 6.003906 C 11.613281 2.195312 15.859375 -1.171875 20.15625 -4.441406 C 20.351562 -4.585938 20.546875 -4.636719 20.742188 -4.734375 C 17.03125 2 11.46875 6.734375 4.78125 10.199219 Z M 4.78125 10.199219 "/></g></g></g><g fill="#ffffff" fill-opacity="1"><g transform="translate(184.964733, 77.072964)"><g/></g></g><g clip-path="url(#3c385c2b67)"><path fill="#ffffff" d="M 240.261719 60.207031 C 239.664062 59.996094 239.113281 59.789062 238.550781 59.609375 C 237.988281 59.425781 237.535156 59.070312 237.105469 58.695312 C 236.800781 58.425781 236.699219 58.074219 236.839844 57.683594 C 236.933594 57.429688 237.035156 57.164062 237.167969 56.925781 C 237.652344 56.054688 238.457031 55.769531 239.417969 56.03125 C 240.675781 56.367188 241.058594 56.851562 241.277344 58.371094 C 241.324219 58.691406 241.285156 59.019531 241.285156 59.402344 C 241.503906 59.371094 241.726562 59.367188 241.941406 59.316406 C 242.777344 59.117188 243.574219 58.839844 244.242188 58.253906 C 244.472656 58.054688 244.800781 57.949219 245.097656 57.835938 C 245.292969 57.761719 245.351562 57.839844 245.28125 58.039062 C 245.113281 58.550781 244.78125 58.996094 244.328125 59.300781 C 243.367188 59.964844 242.332031 60.425781 241.121094 60.371094 C 241.054688 60.367188 240.941406 60.4375 240.917969 60.5 C 240.28125 61.992188 239.316406 63.238281 238.191406 64.410156 C 236.914062 65.746094 235.371094 66.816406 233.664062 67.558594 C 232.179688 68.210938 230.683594 68.90625 229.089844 69.242188 C 226.644531 69.757812 224.171875 69.792969 221.695312 69.382812 C 219.113281 68.957031 216.582031 68.328125 214.042969 67.730469 C 212.359375 67.332031 210.671875 66.921875 208.941406 66.824219 C 207.613281 66.746094 206.273438 66.769531 204.9375 66.808594 C 203.875 66.839844 202.8125 66.929688 201.757812 67.070312 C 200.492188 67.238281 199.328125 67.757812 198.160156 68.230469 C 196.636719 68.839844 195.398438 69.796875 194.496094 71.160156 C 194.402344 71.304688 194.296875 71.449219 194.101562 71.367188 C 193.90625 71.289062 193.925781 71.097656 193.964844 70.945312 C 194.074219 70.480469 194.304688 70.050781 194.636719 69.703125 C 195.570312 68.734375 196.597656 67.894531 197.878906 67.390625 C 199.125 66.898438 200.351562 66.34375 201.695312 66.148438 C 202.566406 66.027344 203.449219 65.933594 204.328125 65.890625 C 205.625 65.824219 206.929688 65.769531 208.230469 65.792969 C 210.152344 65.828125 212.019531 66.261719 213.882812 66.675781 C 215.96875 67.132812 218.039062 67.664062 220.128906 68.101562 C 221.84375 68.457031 223.578125 68.75 225.347656 68.695312 C 226.597656 68.652344 227.878906 68.6875 229.066406 68.316406 C 231.503906 67.546875 233.996094 66.851562 236.085938 65.300781 C 237.742188 64.074219 239.160156 62.625 240.046875 60.738281 C 240.128906 60.570312 240.1875 60.390625 240.261719 60.207031 Z M 240.496094 59.25 C 240.636719 58.6875 240.527344 58.1875 240.367188 57.691406 C 240.15625 57.046875 239.539062 56.648438 238.808594 56.679688 C 238.179688 56.707031 237.808594 57.054688 237.632812 57.789062 C 237.628906 57.792969 237.621094 57.804688 237.625 57.8125 C 237.664062 57.914062 237.671875 58.054688 237.746094 58.113281 C 238.539062 58.753906 239.492188 59.023438 240.496094 59.25 Z M 240.496094 59.25 " fill-opacity="1" fill-rule="nonzero"/></g><g clip-path="url(#0233ec1356)"><path fill="#ffffff" d="M 283.128906 63.394531 C 281.945312 63.472656 280.773438 63.613281 279.605469 63.824219 C 279.039062 63.917969 278.464844 63.992188 277.90625 64.128906 C 277.390625 64.257812 276.871094 64.410156 276.339844 64.40625 C 275.472656 62.820312 275.019531 61.050781 274.246094 59.417969 C 274.042969 58.957031 273.789062 58.523438 273.488281 58.121094 C 273.441406 58.0625 273.351562 58.132812 273.378906 58.195312 C 273.371094 58.207031 273.367188 58.214844 273.363281 58.226562 C 272.789062 60.511719 272.195312 62.789062 271.539062 65.050781 C 271.523438 65.027344 271.5 65.011719 271.472656 65.015625 C 270.546875 65.066406 269.636719 65.214844 268.742188 65.453125 C 267.847656 65.671875 266.976562 65.960938 266.125 66.328125 C 266.097656 66.339844 266.082031 66.363281 266.082031 66.398438 C 266.0625 66.4375 266.070312 66.464844 266.105469 66.484375 C 266.253906 66.570312 266.382812 66.675781 266.496094 66.804688 C 266.628906 66.933594 266.757812 67.066406 266.890625 67.195312 C 267.242188 67.53125 267.609375 67.84375 267.996094 68.136719 C 268.882812 68.828125 269.8125 69.457031 270.753906 70.070312 C 270.640625 70.570312 270.558594 71.078125 270.460938 71.582031 C 270.359375 72.144531 270.253906 72.707031 270.144531 73.269531 C 269.925781 74.382812 269.683594 75.492188 269.445312 76.601562 C 269.433594 76.652344 269.453125 76.6875 269.5 76.710938 C 269.546875 76.734375 269.585938 76.722656 269.617188 76.679688 C 269.992188 76.460938 270.347656 76.210938 270.679688 75.925781 C 271.046875 75.625 271.40625 75.316406 271.761719 75.003906 C 272.488281 74.367188 273.199219 73.710938 273.898438 73.042969 C 274.296875 72.660156 274.691406 72.273438 275.082031 71.886719 C 275.484375 72.074219 275.871094 72.285156 276.246094 72.515625 C 276.660156 72.761719 277.089844 72.976562 277.515625 73.195312 C 278.410156 73.65625 279.300781 74.109375 280.191406 74.574219 C 280.703125 74.839844 281.207031 75.109375 281.71875 75.371094 C 281.824219 75.425781 281.917969 75.269531 281.8125 75.210938 L 281.777344 75.191406 C 281.804688 75.164062 281.808594 75.128906 281.789062 75.09375 C 281.335938 74.183594 280.871094 73.285156 280.421875 72.371094 C 280.203125 71.921875 279.980469 71.46875 279.753906 71.019531 C 279.542969 70.554688 279.304688 70.101562 279.046875 69.664062 C 279.023438 69.625 278.996094 69.621094 278.957031 69.640625 C 278.921875 69.664062 278.914062 69.691406 278.933594 69.726562 C 279.128906 70.199219 279.390625 70.648438 279.613281 71.105469 C 279.832031 71.554688 280.050781 72.007812 280.269531 72.460938 C 280.695312 73.34375 281.113281 74.234375 281.589844 75.089844 C 280.773438 74.640625 279.941406 74.226562 279.117188 73.804688 C 278.226562 73.355469 277.3125 72.929688 276.445312 72.433594 C 276.011719 72.1875 275.585938 71.902344 275.109375 71.75 C 275.0625 71.671875 275.011719 71.664062 274.945312 71.726562 C 273.589844 73.054688 272.207031 74.359375 270.769531 75.601562 C 270.414062 75.90625 270.054688 76.199219 269.675781 76.46875 C 269.925781 75.417969 270.136719 74.355469 270.339844 73.292969 C 270.546875 72.203125 270.777344 71.109375 270.910156 70.007812 C 270.914062 70.003906 270.914062 70 270.914062 69.996094 C 270.914062 69.980469 270.917969 69.964844 270.917969 69.953125 C 270.925781 69.90625 270.886719 69.882812 270.851562 69.886719 C 269.898438 69.269531 268.957031 68.636719 268.0625 67.941406 C 267.679688 67.65625 267.316406 67.347656 266.96875 67.019531 C 266.777344 66.804688 266.566406 66.613281 266.332031 66.449219 C 267.984375 65.777344 269.699219 65.355469 271.472656 65.183594 C 271.503906 65.179688 271.523438 65.167969 271.539062 65.140625 C 271.558594 65.179688 271.589844 65.195312 271.632812 65.191406 C 271.671875 65.191406 271.703125 65.167969 271.714844 65.125 C 272.367188 62.898438 272.957031 60.652344 273.484375 58.386719 C 273.671875 58.707031 273.855469 59.027344 274.015625 59.363281 C 274.21875 59.785156 274.398438 60.21875 274.566406 60.65625 C 274.894531 61.511719 275.191406 62.382812 275.546875 63.230469 C 275.726562 63.664062 275.933594 64.085938 276.167969 64.492188 C 276.167969 64.515625 276.179688 64.535156 276.199219 64.546875 C 276.210938 64.566406 276.222656 64.589844 276.234375 64.609375 C 276.257812 64.648438 276.292969 64.664062 276.335938 64.652344 C 276.378906 64.640625 276.402344 64.613281 276.410156 64.570312 C 276.898438 64.570312 277.375 64.441406 277.847656 64.324219 C 278.40625 64.1875 278.976562 64.109375 279.542969 64.019531 C 280.683594 63.835938 281.824219 63.664062 282.976562 63.582031 C 282.738281 63.9375 282.519531 64.300781 282.269531 64.648438 C 281.972656 65.058594 281.664062 65.457031 281.351562 65.855469 C 280.753906 66.617188 280.152344 67.382812 279.644531 68.210938 C 279.582031 68.3125 279.738281 68.40625 279.800781 68.304688 C 280.332031 67.464844 280.945312 66.6875 281.546875 65.90625 C 281.839844 65.527344 282.128906 65.148438 282.40625 64.761719 C 282.695312 64.378906 282.949219 63.976562 283.171875 63.554688 C 283.234375 63.507812 283.21875 63.390625 283.128906 63.394531 Z M 283.128906 63.394531 " fill-opacity="1" fill-rule="nonzero"/></g><g fill="#ffffff" fill-opacity="1"><g transform="translate(23.628863, 25.628785)"><g><path d="M 9.925781 -20.535156 C 4.339844 -22.128906 0.46875 -2.933594 0 -0.8125 C -0.03125 -0.71875 0.0625 -0.59375 0.15625 -0.59375 L 2.027344 -0.28125 C 2.152344 -0.28125 2.246094 -0.34375 2.246094 -0.4375 C 2.433594 -1.125 3.089844 -3.933594 3.996094 -7.085938 C 5.648438 -7.242188 8.238281 -7.367188 9.925781 -7.429688 C 9.769531 -4.152344 9.519531 -1.125 9.425781 -0.34375 C 9.425781 -0.21875 9.519531 -0.125 9.644531 -0.125 L 11.734375 -0.125 C 11.828125 -0.125 11.921875 -0.1875 11.921875 -0.28125 C 12.203125 -2.246094 14.109375 -19.351562 9.925781 -20.535156 Z M 4.683594 -9.394531 C 6.023438 -13.796875 7.710938 -18.070312 9.113281 -17.757812 C 9.988281 -17.539062 10.113281 -13.703125 10.019531 -9.675781 C 8.207031 -9.675781 5.960938 -9.519531 4.683594 -9.394531 Z M 4.683594 -9.394531 "/></g></g></g><g fill="#ffffff" fill-opacity="1"><g transform="translate(39.014937, 25.628785)"><g><path d="M 6.992188 -2.464844 C 5.085938 -2.652344 3.589844 -2.527344 2.902344 -2.558594 L 5.179688 -20.414062 C 5.179688 -20.535156 5.085938 -20.660156 4.960938 -20.628906 L 2.746094 -20.472656 C 2.652344 -20.472656 2.558594 -20.414062 2.558594 -20.320312 C 2.558594 -20.320312 0.6875 -3.558594 0.3125 -0.65625 C 0.25 -0.40625 0.40625 -0.125 0.65625 -0.125 C 3.964844 -0.25 5.960938 -0.1875 6.929688 -0.03125 C 7.242188 0.03125 7.492188 0 7.554688 -0.3125 C 7.617188 -0.6875 7.710938 -1.1875 7.742188 -1.683594 C 7.773438 -2.121094 7.429688 -2.402344 6.992188 -2.464844 Z M 6.992188 -2.464844 "/></g></g></g><g fill="#ffffff" fill-opacity="1"><g transform="translate(48.939434, 25.628785)"><g><path d="M 13.640625 -9.800781 C 13.828125 -11.484375 13.828125 -12.890625 13.640625 -14.078125 C 13.546875 -14.699219 13.421875 -15.011719 13.265625 -15.855469 C 12.015625 -19.757812 9.300781 -20.132812 7.429688 -19.476562 C 3.371094 -18.132812 1.125 -12.734375 0.5625 -8.738281 C 0.15625 -5.867188 0.25 0 4.929688 0.5625 C 6.273438 0.75 7.523438 0.375 8.582031 -0.3125 C 8.957031 0.3125 9.269531 0.875 9.457031 1.1875 C 9.550781 1.375 9.800781 1.4375 9.988281 1.34375 L 10.519531 1.09375 C 10.675781 1 10.769531 0.84375 10.738281 0.65625 C 10.644531 0.125 10.300781 -0.59375 9.863281 -1.375 C 12.078125 -3.652344 13.390625 -7.367188 13.640625 -9.800781 Z M 7.773438 -4.558594 C 7.617188 -4.773438 7.335938 -4.804688 7.148438 -4.621094 L 6.648438 -4.152344 C 6.523438 -4.027344 6.460938 -3.808594 6.585938 -3.652344 C 6.742188 -3.371094 7.023438 -2.871094 7.367188 -2.308594 C 6.898438 -1.933594 6.429688 -1.746094 6.023438 -1.714844 C 4.246094 -1.5625 2.433594 -2.996094 2.964844 -7.835938 C 3.214844 -10.113281 3.871094 -11.921875 4.496094 -13.171875 C 4.527344 -13.234375 6.554688 -17.726562 8.800781 -17.726562 C 11.484375 -17.726562 11.546875 -13.421875 11.546875 -13.421875 C 11.578125 -12.640625 11.546875 -11.796875 11.390625 -10.800781 C 10.832031 -7.367188 9.707031 -4.929688 8.519531 -3.464844 C 8.207031 -3.933594 7.925781 -4.308594 7.773438 -4.558594 Z M 7.773438 -4.558594 "/></g></g></g><g fill="#ffffff" fill-opacity="1"><g transform="translate(64.762437, 25.628785)"><g><path d="M 12.453125 -18.414062 L 12.046875 -18.382812 C 11.578125 -18.476562 11.171875 -18.507812 11.046875 -17.695312 C 10.613281 -14.980469 9.175781 -1.777344 4.929688 -2.058594 C 3.308594 -2.152344 3.152344 -4.714844 3.027344 -7.617188 C 2.964844 -9.800781 3.777344 -16.917969 3.964844 -17.664062 C 3.996094 -17.882812 3.871094 -18.289062 3.683594 -18.351562 C 2.933594 -18.601562 2.589844 -18.664062 1.933594 -18.570312 C 1.777344 -18.570312 1.652344 -18.414062 1.621094 -18.289062 C 1.40625 -17.230469 0.5 -10.582031 0.46875 -5.554688 C 0.4375 -2.246094 2.058594 -0.375 3.371094 0.03125 C 10.238281 2.246094 11.453125 -6.835938 13.203125 -17.261719 C 13.359375 -18.164062 12.953125 -18.320312 12.453125 -18.414062 Z M 12.453125 -18.414062 "/></g></g></g><g fill="#ffffff" fill-opacity="1"><g transform="translate(78.775314, 25.628785)"><g><path d="M 4.308594 -19.382812 L 2.121094 -19.101562 C 2.027344 -19.070312 1.964844 -19.007812 1.933594 -18.914062 L 0.1875 -0.21875 C 0.1875 -0.09375 0.28125 0 0.40625 0 L 2.277344 0 C 2.371094 0 2.464844 -0.09375 2.464844 -0.1875 L 4.558594 -19.132812 C 4.558594 -19.289062 4.433594 -19.382812 4.308594 -19.382812 Z M 4.308594 -19.382812 "/></g></g></g><g fill="#ffffff" fill-opacity="1"><g transform="translate(85.859797, 25.628785)"><g><path d="M 6.992188 -2.464844 C 5.085938 -2.652344 3.589844 -2.527344 2.902344 -2.558594 L 5.179688 -20.414062 C 5.179688 -20.535156 5.085938 -20.660156 4.960938 -20.628906 L 2.746094 -20.472656 C 2.652344 -20.472656 2.558594 -20.414062 2.558594 -20.320312 C 2.558594 -20.320312 0.6875 -3.558594 0.3125 -0.65625 C 0.25 -0.40625 0.40625 -0.125 0.65625 -0.125 C 3.964844 -0.25 5.960938 -0.1875 6.929688 -0.03125 C 7.242188 0.03125 7.492188 0 7.554688 -0.3125 C 7.617188 -0.6875 7.710938 -1.1875 7.742188 -1.683594 C 7.773438 -2.121094 7.429688 -2.402344 6.992188 -2.464844 Z M 6.992188 -2.464844 "/></g></g></g><g fill="#ffffff" fill-opacity="1"><g transform="translate(95.784293, 25.628785)"><g><path d="M 10.613281 -19.539062 C 9.707031 -19.539062 7.492188 -19.664062 5.429688 -19.601562 C 4.277344 -19.570312 4.152344 -19.570312 3.714844 -19.539062 C 3.683594 -19.539062 3.496094 -19.539062 3.308594 -19.507812 C 3.027344 -19.476562 2.777344 -19.257812 2.746094 -18.976562 C 2.589844 -18.257812 2.339844 -16.980469 2.339844 -16.980469 L 1.589844 -11.328125 L 1.28125 -9.113281 L 0.1875 -0.78125 C 0.15625 -0.75 0.1875 -0.71875 0.1875 -0.65625 C 0.21875 -0.3125 0.5 -0.0625 0.8125 0 C 0.84375 0 1.1875 -0.03125 1.34375 -0.03125 C 1.34375 -0.03125 7.523438 -0.1875 8.394531 -0.1875 C 8.519531 -0.1875 8.644531 -0.28125 8.675781 -0.4375 L 8.894531 -1.964844 C 8.925781 -2.121094 8.800781 -2.246094 8.644531 -2.246094 C 7.367188 -2.246094 5.054688 -2.371094 2.933594 -2.308594 L 3.871094 -9.238281 C 6.023438 -9.175781 7.117188 -9.269531 7.804688 -9.238281 C 7.925781 -9.238281 8.050781 -9.363281 8.082031 -9.488281 L 8.300781 -10.988281 C 8.332031 -11.140625 8.207031 -11.296875 8.050781 -11.296875 C 6.773438 -11.296875 5.835938 -11.296875 4.183594 -11.421875 L 5.117188 -17.414062 C 7.742188 -17.445312 9.550781 -17.476562 10.363281 -17.476562 C 10.488281 -17.476562 10.613281 -17.570312 10.644531 -17.695312 L 10.863281 -19.226562 C 10.863281 -19.382812 10.769531 -19.539062 10.613281 -19.539062 Z M 10.613281 -19.539062 "/></g></g></g><g fill="#ffffff" fill-opacity="1"><g transform="translate(107.019571, 25.628785)"><g><path d="M 11.984375 -19.414062 C 9.144531 -19.414062 6.992188 -17.601562 5.492188 -15.699219 L 6.304688 -20.289062 C 6.335938 -20.414062 6.242188 -20.535156 6.117188 -20.535156 L 3.902344 -20.445312 C 3.808594 -20.414062 3.714844 -20.351562 3.714844 -20.257812 L 0.1875 -0.25 C 0.15625 -0.125 0.25 0 0.375 0 L 2.558594 -0.03125 C 2.652344 -0.03125 2.746094 -0.09375 2.746094 -0.1875 L 3.683594 -5.460938 C 3.777344 -5.460938 3.871094 -5.492188 3.964844 -5.492188 C 4.714844 -3.871094 6.742188 -0.53125 11.328125 -0.28125 C 11.640625 -0.28125 11.890625 -0.53125 11.890625 -0.8125 C 11.921875 -1.21875 11.890625 -1.5 11.859375 -1.714844 C 11.828125 -1.964844 11.640625 -2.152344 11.390625 -2.183594 C 10.394531 -2.339844 7.957031 -3.402344 6.179688 -6.117188 C 9.238281 -7.273438 13.578125 -9.738281 15.074219 -13.359375 C 16.386719 -16.542969 14.761719 -19.414062 11.984375 -19.414062 Z M 13.484375 -15.355469 C 13.390625 -12.359375 7.367188 -8.644531 4.121094 -7.867188 L 4.621094 -10.644531 C 6.148438 -12.921875 9.519531 -17.445312 11.796875 -17.445312 C 12.546875 -17.445312 13.578125 -17.320312 13.484375 -15.355469 Z M 13.484375 -15.355469 "/></g></g></g><g fill="#ffffff" fill-opacity="1"><g transform="translate(123.654007, 25.628785)"><g/></g></g><g fill="#ffffff" fill-opacity="1"><g transform="translate(133.422457, 25.628785)"><g><path d="M 12.640625 -15.511719 C 12.484375 -17.820312 11.046875 -20.691406 6.554688 -20.445312 C 2.214844 -19.820312 2.964844 -20.535156 2.214844 -16.105469 L 0.6875 -3.621094 C 0.59375 -3.371094 0.4375 -1.15625 0.4375 -1.15625 C 0.4375 -1.09375 0.375 -0.25 0.90625 0 C 9.550781 0.125 12.953125 -10.613281 12.640625 -15.511719 Z M 3.214844 -3.058594 L 4.960938 -17.539062 C 4.960938 -17.570312 4.992188 -17.882812 4.992188 -17.914062 C 6.492188 -18.351562 7.617188 -18.570312 8.957031 -17.914062 C 12.328125 -16.230469 8.144531 -3.839844 3.214844 -3.058594 Z M 3.214844 -3.058594 "/></g></g></g><g fill="#ffffff" fill-opacity="1"><g transform="translate(147.248083, 25.628785)"><g><path d="M 10.613281 -19.539062 C 9.707031 -19.539062 7.492188 -19.664062 5.429688 -19.601562 C 4.277344 -19.570312 4.152344 -19.570312 3.714844 -19.539062 C 3.683594 -19.539062 3.496094 -19.539062 3.308594 -19.507812 C 3.027344 -19.476562 2.777344 -19.257812 2.746094 -18.976562 C 2.589844 -18.257812 2.339844 -16.980469 2.339844 -16.980469 L 1.589844 -11.328125 L 1.28125 -9.113281 L 0.1875 -0.78125 C 0.15625 -0.75 0.1875 -0.71875 0.1875 -0.65625 C 0.21875 -0.3125 0.5 -0.0625 0.8125 0 C 0.84375 0 1.1875 -0.03125 1.34375 -0.03125 C 1.34375 -0.03125 7.523438 -0.1875 8.394531 -0.1875 C 8.519531 -0.1875 8.644531 -0.28125 8.675781 -0.4375 L 8.894531 -1.964844 C 8.925781 -2.121094 8.800781 -2.246094 8.644531 -2.246094 C 7.367188 -2.246094 5.054688 -2.371094 2.933594 -2.308594 L 3.871094 -9.238281 C 6.023438 -9.175781 7.117188 -9.269531 7.804688 -9.238281 C 7.925781 -9.238281 8.050781 -9.363281 8.082031 -9.488281 L 8.300781 -10.988281 C 8.332031 -11.140625 8.207031 -11.296875 8.050781 -11.296875 C 6.773438 -11.296875 5.835938 -11.296875 4.183594 -11.421875 L 5.117188 -17.414062 C 7.742188 -17.445312 9.550781 -17.476562 10.363281 -17.476562 C 10.488281 -17.476562 10.613281 -17.570312 10.644531 -17.695312 L 10.863281 -19.226562 C 10.863281 -19.382812 10.769531 -19.539062 10.613281 -19.539062 Z M 10.613281 -19.539062 "/></g></g></g><g fill="#ffffff" fill-opacity="1"><g transform="translate(158.483361, 25.628785)"><g/></g></g><g fill="#ffffff" fill-opacity="1"><g transform="translate(168.251811, 25.628785)"><g><path d="M 12.640625 -15.511719 C 12.484375 -17.820312 11.046875 -20.691406 6.554688 -20.445312 C 2.214844 -19.820312 2.964844 -20.535156 2.214844 -16.105469 L 0.6875 -3.621094 C 0.59375 -3.371094 0.4375 -1.15625 0.4375 -1.15625 C 0.4375 -1.09375 0.375 -0.25 0.90625 0 C 9.550781 0.125 12.953125 -10.613281 12.640625 -15.511719 Z M 3.214844 -3.058594 L 4.960938 -17.539062 C 4.960938 -17.570312 4.992188 -17.882812 4.992188 -17.914062 C 6.492188 -18.351562 7.617188 -18.570312 8.957031 -17.914062 C 12.328125 -16.230469 8.144531 -3.839844 3.214844 -3.058594 Z M 3.214844 -3.058594 "/></g></g></g><g fill="#ffffff" fill-opacity="1"><g transform="translate(182.077437, 25.628785)"><g><path d="M 4.308594 -19.382812 L 2.121094 -19.101562 C 2.027344 -19.070312 1.964844 -19.007812 1.933594 -18.914062 L 0.1875 -0.21875 C 0.1875 -0.09375 0.28125 0 0.40625 0 L 2.277344 0 C 2.371094 0 2.464844 -0.09375 2.464844 -0.1875 L 4.558594 -19.132812 C 4.558594 -19.289062 4.433594 -19.382812 4.308594 -19.382812 Z M 4.308594 -19.382812 "/></g></g></g><g fill="#ffffff" fill-opacity="1"><g transform="translate(189.16192, 25.628785)"><g><path d="M 9.800781 -16.480469 L 10.738281 -17.320312 C 10.894531 -17.445312 10.925781 -17.726562 10.769531 -17.882812 C 10.269531 -18.414062 9.144531 -19.382812 7.523438 -19.539062 C 5.023438 -19.789062 3.808594 -18.601562 3.339844 -16.386719 C 2.371094 -11.703125 9.863281 -5.929688 7.054688 -2.371094 C 5.054688 0 2.496094 -3.089844 1.621094 -4.183594 C 1.5 -4.339844 1.25 -4.371094 1.09375 -4.246094 L 0 -3.433594 C -0.15625 -3.308594 -0.1875 -3.089844 -0.09375 -2.933594 C 0.46875 -1.964844 2.402344 0.875 5.523438 0.6875 C 8.894531 0.46875 10.300781 -1.839844 10.082031 -5.304688 C 9.738281 -10.269531 4.464844 -13.953125 5.742188 -16.574219 C 6.679688 -18.445312 8.519531 -17.074219 9.269531 -16.480469 C 9.425781 -16.355469 9.644531 -16.355469 9.800781 -16.480469 Z M 9.800781 -16.480469 "/></g></g></g><g fill="#ffffff" fill-opacity="1"><g transform="translate(202.207322, 25.628785)"><g><path d="M 12.671875 -20.382812 C 7.957031 -20.597656 4.496094 -19.976562 3.183594 -19.757812 C 3.121094 -19.757812 3.089844 -19.757812 3.058594 -19.726562 L 2.871094 -19.695312 C 2.777344 -19.695312 2.714844 -19.632812 2.714844 -19.539062 L 1.683594 -11.328125 L 1.40625 -8.957031 L 0.34375 -0.21875 C 0.34375 -0.09375 0.4375 0 0.5625 0 L 2.714844 -0.125 C 2.839844 -0.125 2.902344 -0.21875 2.933594 -0.3125 L 3.996094 -9.175781 C 6.085938 -9.300781 7.617188 -9.332031 8.207031 -9.363281 C 8.363281 -9.363281 8.488281 -9.488281 8.519531 -9.644531 L 8.644531 -11.234375 C 8.644531 -11.421875 8.519531 -11.578125 8.363281 -11.578125 C 7.085938 -11.640625 5.679688 -11.609375 4.308594 -11.515625 L 5.054688 -17.757812 C 9.550781 -18.351562 11.453125 -18.132812 12.515625 -18.132812 C 12.671875 -18.164062 12.828125 -18.257812 12.828125 -18.445312 L 12.953125 -20.039062 C 12.984375 -20.226562 12.859375 -20.351562 12.671875 -20.382812 Z M 12.671875 -20.382812 "/></g></g></g><g fill="#ffffff" fill-opacity="1"><g transform="translate(211.788521, 25.628785)"><g><path d="M 11.984375 -19.414062 C 9.144531 -19.414062 6.992188 -17.601562 5.492188 -15.699219 L 6.304688 -20.289062 C 6.335938 -20.414062 6.242188 -20.535156 6.117188 -20.535156 L 3.902344 -20.445312 C 3.808594 -20.414062 3.714844 -20.351562 3.714844 -20.257812 L 0.1875 -0.25 C 0.15625 -0.125 0.25 0 0.375 0 L 2.558594 -0.03125 C 2.652344 -0.03125 2.746094 -0.09375 2.746094 -0.1875 L 3.683594 -5.460938 C 3.777344 -5.460938 3.871094 -5.492188 3.964844 -5.492188 C 4.714844 -3.871094 6.742188 -0.53125 11.328125 -0.28125 C 11.640625 -0.28125 11.890625 -0.53125 11.890625 -0.8125 C 11.921875 -1.21875 11.890625 -1.5 11.859375 -1.714844 C 11.828125 -1.964844 11.640625 -2.152344 11.390625 -2.183594 C 10.394531 -2.339844 7.957031 -3.402344 6.179688 -6.117188 C 9.238281 -7.273438 13.578125 -9.738281 15.074219 -13.359375 C 16.386719 -16.542969 14.761719 -19.414062 11.984375 -19.414062 Z M 13.484375 -15.355469 C 13.390625 -12.359375 7.367188 -8.644531 4.121094 -7.867188 L 4.621094 -10.644531 C 6.148438 -12.921875 9.519531 -17.445312 11.796875 -17.445312 C 12.546875 -17.445312 13.578125 -17.320312 13.484375 -15.355469 Z M 13.484375 -15.355469 "/></g></g></g><g fill="#ffffff" fill-opacity="1"><g transform="translate(228.422952, 25.628785)"><g><path d="M 9.925781 -20.535156 C 4.339844 -22.128906 0.46875 -2.933594 0 -0.8125 C -0.03125 -0.71875 0.0625 -0.59375 0.15625 -0.59375 L 2.027344 -0.28125 C 2.152344 -0.28125 2.246094 -0.34375 2.246094 -0.4375 C 2.433594 -1.125 3.089844 -3.933594 3.996094 -7.085938 C 5.648438 -7.242188 8.238281 -7.367188 9.925781 -7.429688 C 9.769531 -4.152344 9.519531 -1.125 9.425781 -0.34375 C 9.425781 -0.21875 9.519531 -0.125 9.644531 -0.125 L 11.734375 -0.125 C 11.828125 -0.125 11.921875 -0.1875 11.921875 -0.28125 C 12.203125 -2.246094 14.109375 -19.351562 9.925781 -20.535156 Z M 4.683594 -9.394531 C 6.023438 -13.796875 7.710938 -18.070312 9.113281 -17.757812 C 9.988281 -17.539062 10.113281 -13.703125 10.019531 -9.675781 C 8.207031 -9.675781 5.960938 -9.519531 4.683594 -9.394531 Z M 4.683594 -9.394531 "/></g></g></g><g fill="#ffffff" fill-opacity="1"><g transform="translate(243.809036, 25.628785)"><g><path d="M 6.023438 -2.308594 C 4.246094 -2.152344 2.433594 -3.621094 2.964844 -8.425781 C 3.214844 -10.738281 3.871094 -12.515625 4.496094 -13.796875 C 4.527344 -13.859375 6.554688 -18.351562 8.800781 -18.351562 C 10.394531 -18.351562 10.769531 -16.667969 11.046875 -15.417969 C 11.109375 -15.230469 11.265625 -15.105469 11.484375 -15.105469 L 12.765625 -15.292969 C 12.984375 -15.324219 13.140625 -15.542969 13.078125 -15.761719 C 13.046875 -15.917969 13.015625 -16.324219 12.953125 -16.542969 C 12.265625 -20.503906 9.300781 -20.722656 7.429688 -20.101562 C 3.371094 -18.757812 1.125 -13.359375 0.5625 -9.332031 C 0.15625 -6.460938 0.25 -0.625 4.929688 -0.03125 C 8.300781 0.375 11.984375 -2.621094 13.515625 -5.710938 C 13.640625 -5.898438 13.546875 -6.148438 13.328125 -6.242188 L 12.015625 -6.804688 C 11.859375 -6.867188 11.671875 -6.804688 11.578125 -6.679688 C 9.800781 -4.058594 7.117188 -2.402344 6.023438 -2.308594 Z M 6.023438 -2.308594 "/></g></g></g><g fill="#ffffff" fill-opacity="1"><g transform="translate(259.475992, 25.628785)"><g><path d="M 10.613281 -19.539062 C 9.707031 -19.539062 7.492188 -19.664062 5.429688 -19.601562 C 4.277344 -19.570312 4.152344 -19.570312 3.714844 -19.539062 C 3.683594 -19.539062 3.496094 -19.539062 3.308594 -19.507812 C 3.027344 -19.476562 2.777344 -19.257812 2.746094 -18.976562 C 2.589844 -18.257812 2.339844 -16.980469 2.339844 -16.980469 L 1.589844 -11.328125 L 1.28125 -9.113281 L 0.1875 -0.78125 C 0.15625 -0.75 0.1875 -0.71875 0.1875 -0.65625 C 0.21875 -0.3125 0.5 -0.0625 0.8125 0 C 0.84375 0 1.1875 -0.03125 1.34375 -0.03125 C 1.34375 -0.03125 7.523438 -0.1875 8.394531 -0.1875 C 8.519531 -0.1875 8.644531 -0.28125 8.675781 -0.4375 L 8.894531 -1.964844 C 8.925781 -2.121094 8.800781 -2.246094 8.644531 -2.246094 C 7.367188 -2.246094 5.054688 -2.371094 2.933594 -2.308594 L 3.871094 -9.238281 C 6.023438 -9.175781 7.117188 -9.269531 7.804688 -9.238281 C 7.925781 -9.238281 8.050781 -9.363281 8.082031 -9.488281 L 8.300781 -10.988281 C 8.332031 -11.140625 8.207031 -11.296875 8.050781 -11.296875 C 6.773438 -11.296875 5.835938 -11.296875 4.183594 -11.421875 L 5.117188 -17.414062 C 7.742188 -17.445312 9.550781 -17.476562 10.363281 -17.476562 C 10.488281 -17.476562 10.613281 -17.570312 10.644531 -17.695312 L 10.863281 -19.226562 C 10.863281 -19.382812 10.769531 -19.539062 10.613281 -19.539062 Z M 10.613281 -19.539062 "/></g></g></g><g fill="#ffffff" fill-opacity="1"><g transform="translate(270.711281, 25.628785)"><g><path d="M 9.800781 -16.480469 L 10.738281 -17.320312 C 10.894531 -17.445312 10.925781 -17.726562 10.769531 -17.882812 C 10.269531 -18.414062 9.144531 -19.382812 7.523438 -19.539062 C 5.023438 -19.789062 3.808594 -18.601562 3.339844 -16.386719 C 2.371094 -11.703125 9.863281 -5.929688 7.054688 -2.371094 C 5.054688 0 2.496094 -3.089844 1.621094 -4.183594 C 1.5 -4.339844 1.25 -4.371094 1.09375 -4.246094 L 0 -3.433594 C -0.15625 -3.308594 -0.1875 -3.089844 -0.09375 -2.933594 C 0.46875 -1.964844 2.402344 0.875 5.523438 0.6875 C 8.894531 0.46875 10.300781 -1.839844 10.082031 -5.304688 C 9.738281 -10.269531 4.464844 -13.953125 5.742188 -16.574219 C 6.679688 -18.445312 8.519531 -17.074219 9.269531 -16.480469 C 9.425781 -16.355469 9.644531 -16.355469 9.800781 -16.480469 Z M 9.800781 -16.480469 "/></g></g></g><g fill="#ffffff" fill-opacity="1"><g transform="translate(83.607674, 104.600731)"><g><path d="M 6.46875 -9.648438 C 5.464844 -9.792969 2.730469 -9.664062 2.109375 -9.632812 C 2.027344 -9.632812 1.980469 -9.570312 1.980469 -9.507812 C 1.964844 -9.296875 1.949219 -8.898438 1.949219 -8.644531 C 1.933594 -8.546875 2.011719 -8.484375 2.09375 -8.5 C 2.539062 -8.53125 3.066406 -8.5625 3.609375 -8.578125 C 3.417969 -7.0625 2.921875 -3.050781 2.8125 -2.378906 C 1.230469 -1.980469 0.320312 -0.832031 -0.0625 -0.175781 C -0.847656 1.167969 -0.941406 2.621094 0.289062 3.097656 C 1.660156 3.625 2.746094 2.347656 3.226562 1.023438 C 3.402344 0.527344 3.609375 -0.480469 3.800781 -1.644531 C 4.457031 -1.742188 5 -1.644531 5.273438 -1.566406 C 5.398438 -1.535156 5.511719 -1.582031 5.574219 -1.695312 L 5.703125 -1.902344 C 5.816406 -2.0625 5.71875 -2.269531 5.542969 -2.316406 C 4.96875 -2.460938 4.425781 -2.523438 3.945312 -2.523438 C 4.152344 -3.820312 4.617188 -7.300781 4.808594 -8.59375 C 5.511719 -8.613281 6.085938 -8.59375 6.328125 -8.59375 C 6.40625 -8.59375 6.453125 -8.644531 6.46875 -8.722656 L 6.582031 -9.488281 C 6.597656 -9.570312 6.550781 -9.632812 6.46875 -9.648438 Z M 2.222656 0.574219 C 1.660156 2.285156 0.800781 2.589844 0.542969 2.429688 C 0.222656 2.253906 0.191406 1.871094 0.367188 1.375 C 0.878906 -0.128906 1.757812 -0.910156 2.636719 -1.308594 C 2.492188 -0.527344 2.347656 0.144531 2.222656 0.574219 Z M 2.222656 0.574219 "/></g></g></g><g fill="#ffffff" fill-opacity="1"><g transform="translate(89.486302, 104.600731)"><g><path d="M 6.375 -9.425781 L 6.167969 -9.410156 C 5.925781 -9.457031 5.71875 -9.472656 5.65625 -9.058594 C 5.433594 -7.667969 4.695312 -0.910156 2.523438 -1.054688 C 1.695312 -1.101562 1.613281 -2.414062 1.550781 -3.898438 C 1.519531 -5.015625 1.933594 -8.660156 2.027344 -9.042969 C 2.046875 -9.15625 1.980469 -9.363281 1.886719 -9.394531 C 1.5 -9.523438 1.324219 -9.554688 0.992188 -9.507812 C 0.910156 -9.507812 0.847656 -9.425781 0.832031 -9.363281 C 0.71875 -8.820312 0.253906 -5.417969 0.238281 -2.84375 C 0.222656 -1.148438 1.054688 -0.191406 1.726562 0.015625 C 5.242188 1.148438 5.863281 -3.5 6.757812 -8.835938 C 6.839844 -9.296875 6.628906 -9.378906 6.375 -9.425781 Z M 6.375 -9.425781 "/></g></g></g><g fill="#ffffff" fill-opacity="1"><g transform="translate(96.65885, 104.600731)"><g><path d="M 6.261719 -10.082031 C 5.449219 -10.082031 4.601562 -10.097656 3.785156 -10.113281 C 3.769531 -10.144531 3.738281 -10.160156 3.691406 -10.160156 L 3.210938 -10.113281 C 1.773438 -10.128906 0.574219 -10.144531 0.175781 -10.082031 C 0.0976562 -10.066406 0.046875 -10.015625 0.046875 -9.9375 C 0.03125 -9.808594 -0.03125 -9.507812 -0.078125 -9.042969 C -0.0976562 -8.929688 -0.015625 -8.867188 0.0976562 -8.867188 C 0.910156 -8.898438 1.660156 -8.914062 2.332031 -8.929688 L 1.085938 -0.128906 C 1.085938 -0.046875 1.132812 0 1.199219 0 L 2.316406 -0.046875 C 2.363281 -0.046875 2.398438 -0.078125 2.414062 -0.144531 L 3.660156 -8.945312 C 4.953125 -8.964844 5.816406 -8.945312 6.167969 -8.945312 C 6.246094 -8.945312 6.328125 -9.011719 6.328125 -9.089844 L 6.40625 -9.90625 C 6.421875 -10 6.359375 -10.082031 6.261719 -10.082031 Z M 6.261719 -10.082031 "/></g></g></g><g fill="#ffffff" fill-opacity="1"><g transform="translate(102.233962, 104.600731)"><g><path d="M 2.203125 -9.921875 L 1.085938 -9.777344 C 1.039062 -9.761719 1.007812 -9.730469 0.992188 -9.683594 L 0.0976562 -0.113281 C 0.0976562 -0.046875 0.144531 0 0.207031 0 L 1.167969 0 C 1.214844 0 1.261719 -0.046875 1.261719 -0.0976562 L 2.332031 -9.792969 C 2.332031 -9.875 2.269531 -9.921875 2.203125 -9.921875 Z M 2.203125 -9.921875 "/></g></g></g><g fill="#ffffff" fill-opacity="1"><g transform="translate(105.860205, 104.600731)"><g><path d="M 5.082031 -10.511719 C 2.222656 -11.328125 0.238281 -1.5 0 -0.414062 C -0.015625 -0.367188 0.03125 -0.304688 0.078125 -0.304688 L 1.039062 -0.144531 C 1.101562 -0.144531 1.148438 -0.175781 1.148438 -0.222656 C 1.246094 -0.574219 1.582031 -2.011719 2.046875 -3.625 C 2.890625 -3.707031 4.21875 -3.769531 5.082031 -3.800781 C 5 -2.125 4.871094 -0.574219 4.824219 -0.175781 C 4.824219 -0.113281 4.871094 -0.0625 4.9375 -0.0625 L 6.007812 -0.0625 C 6.054688 -0.0625 6.101562 -0.0976562 6.101562 -0.144531 C 6.246094 -1.148438 7.222656 -9.90625 5.082031 -10.511719 Z M 2.398438 -4.808594 C 3.082031 -7.0625 3.945312 -9.25 4.664062 -9.089844 C 5.113281 -8.980469 5.175781 -7.015625 5.128906 -4.953125 C 4.203125 -4.953125 3.050781 -4.871094 2.398438 -4.808594 Z M 2.398438 -4.808594 "/></g></g></g><g fill="#ffffff" fill-opacity="1"><g transform="translate(113.735633, 104.600731)"><g><path d="M 5.734375 -10.226562 C 4.28125 -10.144531 3.210938 -9.171875 2.507812 -8.164062 L 2.8125 -10.527344 C 2.828125 -10.59375 2.765625 -10.65625 2.699219 -10.640625 L 1.582031 -10.527344 C 1.535156 -10.527344 1.484375 -10.496094 1.484375 -10.449219 L 0.175781 -0.113281 C 0.175781 -0.046875 0.222656 0 0.289062 0 L 1.390625 -0.0625 C 1.453125 -0.0625 1.484375 -0.113281 1.5 -0.160156 L 1.820312 -2.667969 C 4.027344 -2.78125 6.550781 -4.664062 7.460938 -7.191406 C 8.050781 -8.851562 7.15625 -10.289062 5.734375 -10.226562 Z M 6.453125 -8.066406 C 6.359375 -6.453125 3.898438 -4.3125 1.980469 -3.976562 L 2.1875 -5.59375 C 3.003906 -6.917969 4.457031 -9.027344 5.542969 -9.074219 C 5.925781 -9.089844 6.503906 -8.789062 6.453125 -8.066406 Z M 6.453125 -8.066406 "/></g></g></g><g fill="#ffffff" fill-opacity="1"><g transform="translate(121.211695, 104.600731)"><g><path d="M 5.082031 -10.511719 C 2.222656 -11.328125 0.238281 -1.5 0 -0.414062 C -0.015625 -0.367188 0.03125 -0.304688 0.078125 -0.304688 L 1.039062 -0.144531 C 1.101562 -0.144531 1.148438 -0.175781 1.148438 -0.222656 C 1.246094 -0.574219 1.582031 -2.011719 2.046875 -3.625 C 2.890625 -3.707031 4.21875 -3.769531 5.082031 -3.800781 C 5 -2.125 4.871094 -0.574219 4.824219 -0.175781 C 4.824219 -0.113281 4.871094 -0.0625 4.9375 -0.0625 L 6.007812 -0.0625 C 6.054688 -0.0625 6.101562 -0.0976562 6.101562 -0.144531 C 6.246094 -1.148438 7.222656 -9.90625 5.082031 -10.511719 Z M 2.398438 -4.808594 C 3.082031 -7.0625 3.945312 -9.25 4.664062 -9.089844 C 5.113281 -8.980469 5.175781 -7.015625 5.128906 -4.953125 C 4.203125 -4.953125 3.050781 -4.871094 2.398438 -4.808594 Z M 2.398438 -4.808594 "/></g></g></g><g fill="#ffffff" fill-opacity="1"><g transform="translate(129.087122, 104.600731)"><g/></g></g><g fill="#ffffff" fill-opacity="1"><g transform="translate(134.087157, 104.600731)"><g><path d="M 4.027344 -3.164062 C 4.042969 -3.292969 4.058594 -3.449219 4.074219 -3.625 C 4.089844 -3.707031 4.042969 -3.785156 3.960938 -3.785156 C 3.066406 -3.753906 1.453125 -3.835938 1.039062 -3.851562 C 0.957031 -3.851562 0.910156 -3.800781 0.894531 -3.707031 C 0.863281 -3.578125 0.816406 -3.355469 0.75 -3.035156 C 0.71875 -2.921875 0.78125 -2.8125 0.878906 -2.8125 C 1.660156 -2.796875 3.066406 -2.714844 3.691406 -2.730469 C 3.929688 -2.746094 3.960938 -2.859375 4.027344 -3.164062 Z M 4.027344 -3.164062 "/></g></g></g><g fill="#ffffff" fill-opacity="1"><g transform="translate(139.582395, 104.600731)"><g><path d="M 6.964844 -5.433594 C 6.679688 -5.71875 3.820312 -5.367188 3.46875 -5.289062 C 3.242188 -5.222656 3.292969 -4.632812 3.292969 -4.296875 C 3.292969 -4.1875 3.386719 -4.089844 3.515625 -4.105469 C 3.820312 -4.136719 4.984375 -4.328125 5.671875 -4.378906 C 5.113281 -2.238281 3.644531 -1.230469 3.082031 -1.183594 C 2.171875 -1.101562 1.246094 -1.835938 1.519531 -4.3125 C 1.644531 -5.496094 1.980469 -6.40625 2.316406 -7.046875 C 2.316406 -7.09375 3.355469 -9.378906 4.503906 -9.378906 C 5.320312 -9.378906 5.511719 -8.515625 5.65625 -7.875 C 5.6875 -7.78125 5.785156 -7.714844 5.878906 -7.734375 L 6.535156 -7.8125 C 6.644531 -7.828125 6.726562 -7.941406 6.710938 -8.050781 C 6.679688 -8.132812 6.664062 -8.355469 6.628906 -8.453125 C 6.277344 -10.480469 4.761719 -10.609375 3.800781 -10.289062 C 1.742188 -9.601562 0.574219 -6.839844 0.289062 -4.777344 C 0.078125 -3.308594 0.128906 -0.222656 2.523438 -0.015625 C 5.878906 0.289062 7.414062 -4.984375 6.964844 -5.433594 Z M 6.964844 -5.433594 "/></g></g></g><g fill="#ffffff" fill-opacity="1"><g transform="translate(148.224586, 104.600731)"><g><path d="M 6.375 -9.425781 L 6.167969 -9.410156 C 5.925781 -9.457031 5.71875 -9.472656 5.65625 -9.058594 C 5.433594 -7.667969 4.695312 -0.910156 2.523438 -1.054688 C 1.695312 -1.101562 1.613281 -2.414062 1.550781 -3.898438 C 1.519531 -5.015625 1.933594 -8.660156 2.027344 -9.042969 C 2.046875 -9.15625 1.980469 -9.363281 1.886719 -9.394531 C 1.5 -9.523438 1.324219 -9.554688 0.992188 -9.507812 C 0.910156 -9.507812 0.847656 -9.425781 0.832031 -9.363281 C 0.71875 -8.820312 0.253906 -5.417969 0.238281 -2.84375 C 0.222656 -1.148438 1.054688 -0.191406 1.726562 0.015625 C 5.242188 1.148438 5.863281 -3.5 6.757812 -8.835938 C 6.839844 -9.296875 6.628906 -9.378906 6.375 -9.425781 Z M 6.375 -9.425781 "/></g></g></g><g fill="#ffffff" fill-opacity="1"><g transform="translate(155.397132, 104.600731)"><g><path d="M 5.082031 -10.511719 C 2.222656 -11.328125 0.238281 -1.5 0 -0.414062 C -0.015625 -0.367188 0.03125 -0.304688 0.078125 -0.304688 L 1.039062 -0.144531 C 1.101562 -0.144531 1.148438 -0.175781 1.148438 -0.222656 C 1.246094 -0.574219 1.582031 -2.011719 2.046875 -3.625 C 2.890625 -3.707031 4.21875 -3.769531 5.082031 -3.800781 C 5 -2.125 4.871094 -0.574219 4.824219 -0.175781 C 4.824219 -0.113281 4.871094 -0.0625 4.9375 -0.0625 L 6.007812 -0.0625 C 6.054688 -0.0625 6.101562 -0.0976562 6.101562 -0.144531 C 6.246094 -1.148438 7.222656 -9.90625 5.082031 -10.511719 Z M 2.398438 -4.808594 C 3.082031 -7.0625 3.945312 -9.25 4.664062 -9.089844 C 5.113281 -8.980469 5.175781 -7.015625 5.128906 -4.953125 C 4.203125 -4.953125 3.050781 -4.871094 2.398438 -4.808594 Z M 2.398438 -4.808594 "/></g></g></g><g fill="#ffffff" fill-opacity="1"><g transform="translate(163.27256, 104.600731)"><g><path d="M 6.261719 -10.082031 C 5.449219 -10.082031 4.601562 -10.097656 3.785156 -10.113281 C 3.769531 -10.144531 3.738281 -10.160156 3.691406 -10.160156 L 3.210938 -10.113281 C 1.773438 -10.128906 0.574219 -10.144531 0.175781 -10.082031 C 0.0976562 -10.066406 0.046875 -10.015625 0.046875 -9.9375 C 0.03125 -9.808594 -0.03125 -9.507812 -0.078125 -9.042969 C -0.0976562 -8.929688 -0.015625 -8.867188 0.0976562 -8.867188 C 0.910156 -8.898438 1.660156 -8.914062 2.332031 -8.929688 L 1.085938 -0.128906 C 1.085938 -0.046875 1.132812 0 1.199219 0 L 2.316406 -0.046875 C 2.363281 -0.046875 2.398438 -0.078125 2.414062 -0.144531 L 3.660156 -8.945312 C 4.953125 -8.964844 5.816406 -8.945312 6.167969 -8.945312 C 6.246094 -8.945312 6.328125 -9.011719 6.328125 -9.089844 L 6.40625 -9.90625 C 6.421875 -10 6.359375 -10.082031 6.261719 -10.082031 Z M 6.261719 -10.082031 "/></g></g></g><g fill="#ffffff" fill-opacity="1"><g transform="translate(168.84767, 104.600731)"><g><path d="M 5.433594 -10 C 4.96875 -10 3.835938 -10.066406 2.78125 -10.035156 C 2.1875 -10.015625 2.125 -10.015625 1.902344 -10 C 1.886719 -10 1.789062 -10 1.695312 -9.984375 C 1.550781 -9.96875 1.421875 -9.859375 1.40625 -9.714844 C 1.324219 -9.347656 1.199219 -8.691406 1.199219 -8.691406 L 0.816406 -5.800781 L 0.65625 -4.664062 L 0.0976562 -0.398438 C 0.078125 -0.382812 0.0976562 -0.367188 0.0976562 -0.335938 C 0.113281 -0.160156 0.253906 -0.03125 0.414062 0 C 0.429688 0 0.605469 -0.015625 0.6875 -0.015625 C 0.6875 -0.015625 3.851562 -0.0976562 4.296875 -0.0976562 C 4.363281 -0.0976562 4.425781 -0.144531 4.441406 -0.222656 L 4.554688 -1.007812 C 4.570312 -1.085938 4.503906 -1.148438 4.425781 -1.148438 C 3.769531 -1.148438 2.589844 -1.214844 1.5 -1.183594 L 1.980469 -4.730469 C 3.082031 -4.695312 3.644531 -4.746094 3.996094 -4.730469 C 4.058594 -4.730469 4.121094 -4.792969 4.136719 -4.855469 L 4.25 -5.625 C 4.265625 -5.703125 4.203125 -5.785156 4.121094 -5.785156 C 3.46875 -5.785156 2.988281 -5.785156 2.140625 -5.847656 L 2.621094 -8.914062 C 3.960938 -8.929688 4.890625 -8.945312 5.304688 -8.945312 C 5.367188 -8.945312 5.433594 -8.996094 5.449219 -9.058594 L 5.558594 -9.839844 C 5.558594 -9.921875 5.511719 -10 5.433594 -10 Z M 5.433594 -10 "/></g></g></g><g fill="#ffffff" fill-opacity="1"><g transform="translate(174.598505, 104.600731)"><g><path d="M 12.140625 -0.496094 C 12.351562 -1.359375 14.109375 -7.8125 11.664062 -8.292969 C 10.402344 -8.546875 8.882812 -6.519531 7.429688 -3.226562 C 7.445312 -3.371094 7.332031 -2.636719 7.367188 -2.78125 C 7.941406 -5.941406 8.242188 -9.441406 6.628906 -9.523438 C 4.519531 -9.617188 2.652344 -5.609375 1.933594 -3.882812 C 2.171875 -5.207031 2.605469 -8.035156 2.84375 -9.234375 C 3.003906 -10.050781 2.8125 -10.035156 2.429688 -10.035156 C 2.027344 -10.035156 1.660156 -10.496094 1.390625 -8.417969 C 1.117188 -6.34375 0.351562 -2.875 0.160156 -0.128906 C 0.367188 0.414062 1.070312 0.160156 1.070312 0.160156 C 1.070312 0.160156 1.070312 0.160156 1.070312 0.144531 C 1.132812 0.191406 1.308594 -0.046875 1.4375 -0.335938 C 2.605469 -2.683594 5.222656 -8.242188 6.199219 -8.242188 C 7.140625 -8.242188 5.992188 -2.285156 5.992188 -1.804688 C 5.992188 -1.324219 7.445312 -1.183594 7.765625 -1.277344 C 7.796875 -1.292969 7.828125 -1.34375 7.859375 -1.40625 L 8.386719 -2.667969 C 9.425781 -4.730469 10.542969 -6.996094 11.183594 -6.949219 C 12.335938 -6.855469 11.023438 -1.773438 10.976562 -0.589844 C 10.960938 -0.078125 12.046875 -0.0625 12.140625 -0.496094 Z M 12.140625 -0.496094 "/></g></g></g><g fill="#ffffff" fill-opacity="1"><g transform="translate(188.703929, 104.600731)"><g><path d="M 5.082031 -10.511719 C 2.222656 -11.328125 0.238281 -1.5 0 -0.414062 C -0.015625 -0.367188 0.03125 -0.304688 0.078125 -0.304688 L 1.039062 -0.144531 C 1.101562 -0.144531 1.148438 -0.175781 1.148438 -0.222656 C 1.246094 -0.574219 1.582031 -2.011719 2.046875 -3.625 C 2.890625 -3.707031 4.21875 -3.769531 5.082031 -3.800781 C 5 -2.125 4.871094 -0.574219 4.824219 -0.175781 C 4.824219 -0.113281 4.871094 -0.0625 4.9375 -0.0625 L 6.007812 -0.0625 C 6.054688 -0.0625 6.101562 -0.0976562 6.101562 -0.144531 C 6.246094 -1.148438 7.222656 -9.90625 5.082031 -10.511719 Z M 2.398438 -4.808594 C 3.082031 -7.0625 3.945312 -9.25 4.664062 -9.089844 C 5.113281 -8.980469 5.175781 -7.015625 5.128906 -4.953125 C 4.203125 -4.953125 3.050781 -4.871094 2.398438 -4.808594 Z M 2.398438 -4.808594 "/></g></g></g><g fill="#ffffff" fill-opacity="1"><g transform="translate(196.579357, 104.600731)"><g><path d="M 3.578125 -1.261719 C 2.605469 -1.359375 1.835938 -1.292969 1.484375 -1.308594 L 2.652344 -10.449219 C 2.652344 -10.511719 2.605469 -10.578125 2.539062 -10.5625 L 1.40625 -10.480469 C 1.359375 -10.480469 1.308594 -10.449219 1.308594 -10.402344 C 1.308594 -10.402344 0.351562 -1.820312 0.160156 -0.335938 C 0.128906 -0.207031 0.207031 -0.0625 0.335938 -0.0625 C 2.027344 -0.128906 3.050781 -0.0976562 3.546875 -0.015625 C 3.707031 0.015625 3.835938 0 3.867188 -0.160156 C 3.898438 -0.351562 3.945312 -0.605469 3.960938 -0.863281 C 3.976562 -1.085938 3.800781 -1.230469 3.578125 -1.261719 Z M 3.578125 -1.261719 "/></g></g></g><g fill="#ffffff" fill-opacity="1"><g transform="translate(201.659265, 104.600731)"><g><path d="M 5.082031 -10.511719 C 2.222656 -11.328125 0.238281 -1.5 0 -0.414062 C -0.015625 -0.367188 0.03125 -0.304688 0.078125 -0.304688 L 1.039062 -0.144531 C 1.101562 -0.144531 1.148438 -0.175781 1.148438 -0.222656 C 1.246094 -0.574219 1.582031 -2.011719 2.046875 -3.625 C 2.890625 -3.707031 4.21875 -3.769531 5.082031 -3.800781 C 5 -2.125 4.871094 -0.574219 4.824219 -0.175781 C 4.824219 -0.113281 4.871094 -0.0625 4.9375 -0.0625 L 6.007812 -0.0625 C 6.054688 -0.0625 6.101562 -0.0976562 6.101562 -0.144531 C 6.246094 -1.148438 7.222656 -9.90625 5.082031 -10.511719 Z M 2.398438 -4.808594 C 3.082031 -7.0625 3.945312 -9.25 4.664062 -9.089844 C 5.113281 -8.980469 5.175781 -7.015625 5.128906 -4.953125 C 4.203125 -4.953125 3.050781 -4.871094 2.398438 -4.808594 Z M 2.398438 -4.808594 "/></g></g></g><g clip-path="url(#82adfe1b63)"><path fill="#ffffff" d="M 40.277344 47.46875 C 39.097656 47.542969 37.921875 47.6875 36.757812 47.894531 C 36.191406 47.988281 35.617188 48.0625 35.054688 48.203125 C 34.542969 48.328125 34.023438 48.484375 33.492188 48.476562 C 32.625 46.890625 32.171875 45.121094 31.398438 43.492188 C 31.195312 43.027344 30.941406 42.59375 30.640625 42.191406 C 30.589844 42.132812 30.503906 42.203125 30.53125 42.269531 C 30.523438 42.277344 30.519531 42.289062 30.515625 42.296875 C 29.941406 44.582031 29.34375 46.863281 28.691406 49.125 C 28.675781 49.097656 28.652344 49.085938 28.625 49.089844 C 27.699219 49.140625 26.789062 49.285156 25.894531 49.527344 C 25 49.746094 24.125 50.035156 23.277344 50.398438 C 23.246094 50.414062 23.234375 50.4375 23.234375 50.472656 C 23.210938 50.507812 23.21875 50.535156 23.257812 50.558594 C 23.40625 50.640625 23.535156 50.746094 23.648438 50.875 C 23.78125 51.003906 23.910156 51.136719 24.042969 51.269531 C 24.390625 51.605469 24.761719 51.917969 25.148438 52.207031 C 26.03125 52.902344 26.964844 53.53125 27.90625 54.140625 C 27.792969 54.640625 27.707031 55.152344 27.613281 55.65625 C 27.507812 56.21875 27.40625 56.78125 27.292969 57.339844 C 27.078125 58.453125 26.835938 59.5625 26.597656 60.671875 C 26.585938 60.726562 26.601562 60.761719 26.652344 60.785156 C 26.699219 60.804688 26.738281 60.796875 26.769531 60.753906 C 27.144531 60.535156 27.5 60.28125 27.832031 60 C 28.199219 59.699219 28.558594 59.390625 28.914062 59.074219 C 29.640625 58.4375 30.351562 57.78125 31.050781 57.113281 C 31.449219 56.734375 31.84375 56.347656 32.234375 55.957031 C 32.632812 56.148438 33.023438 56.355469 33.398438 56.589844 C 33.8125 56.832031 34.242188 57.046875 34.667969 57.269531 C 35.558594 57.730469 36.453125 58.183594 37.34375 58.644531 C 37.855469 58.910156 38.359375 59.183594 38.871094 59.445312 C 38.976562 59.5 39.066406 59.339844 38.960938 59.28125 L 38.929688 59.265625 C 38.957031 59.234375 38.960938 59.199219 38.941406 59.164062 C 38.488281 58.257812 38.019531 57.355469 37.574219 56.445312 C 37.351562 55.992188 37.132812 55.539062 36.90625 55.089844 C 36.695312 54.625 36.457031 54.175781 36.195312 53.734375 C 36.175781 53.699219 36.144531 53.691406 36.109375 53.714844 C 36.074219 53.734375 36.066406 53.765625 36.085938 53.800781 C 36.28125 54.269531 36.542969 54.71875 36.765625 55.175781 C 36.984375 55.628906 37.203125 56.082031 37.421875 56.535156 C 37.847656 57.414062 38.261719 58.308594 38.738281 59.160156 C 37.925781 58.714844 37.09375 58.300781 36.265625 57.878906 C 35.378906 57.425781 34.464844 57.003906 33.597656 56.507812 C 33.164062 56.261719 32.734375 55.976562 32.257812 55.820312 C 32.214844 55.742188 32.164062 55.734375 32.097656 55.796875 C 30.738281 57.128906 29.359375 58.433594 27.921875 59.675781 C 27.566406 59.980469 27.203125 60.269531 26.824219 60.539062 C 27.078125 59.488281 27.289062 58.429688 27.492188 57.367188 C 27.699219 56.277344 27.929688 55.179688 28.0625 54.082031 C 28.0625 54.074219 28.066406 54.070312 28.066406 54.066406 C 28.066406 54.050781 28.070312 54.039062 28.070312 54.023438 C 28.074219 53.980469 28.039062 53.957031 28 53.957031 C 27.050781 53.34375 26.109375 52.707031 25.214844 52.011719 C 24.832031 51.726562 24.46875 51.421875 24.121094 51.089844 C 23.929688 50.875 23.714844 50.6875 23.480469 50.519531 C 25.136719 49.851562 26.851562 49.429688 28.625 49.257812 C 28.652344 49.253906 28.675781 49.238281 28.691406 49.210938 C 28.710938 49.25 28.742188 49.269531 28.78125 49.265625 C 28.824219 49.261719 28.851562 49.238281 28.867188 49.199219 C 29.519531 46.96875 30.109375 44.722656 30.636719 42.460938 C 30.824219 42.78125 31.007812 43.097656 31.167969 43.433594 C 31.371094 43.855469 31.546875 44.289062 31.714844 44.726562 C 32.046875 45.585938 32.339844 46.457031 32.699219 47.304688 C 32.878906 47.738281 33.085938 48.15625 33.320312 48.566406 C 33.320312 48.585938 33.332031 48.605469 33.351562 48.621094 C 33.363281 48.640625 33.375 48.660156 33.386719 48.683594 C 33.410156 48.71875 33.445312 48.734375 33.488281 48.722656 C 33.53125 48.714844 33.554688 48.6875 33.558594 48.640625 C 34.046875 48.644531 34.527344 48.515625 35 48.398438 C 35.558594 48.261719 36.128906 48.183594 36.695312 48.089844 C 37.835938 47.90625 38.976562 47.734375 40.125 47.65625 C 39.890625 48.007812 39.667969 48.375 39.421875 48.722656 C 39.125 49.132812 38.816406 49.53125 38.503906 49.925781 C 37.90625 50.691406 37.300781 51.453125 36.792969 52.285156 C 36.730469 52.386719 36.886719 52.476562 36.953125 52.378906 C 37.484375 51.539062 38.09375 50.761719 38.699219 49.976562 C 38.992188 49.601562 39.28125 49.222656 39.554688 48.832031 C 39.847656 48.453125 40.101562 48.050781 40.324219 47.625 C 40.386719 47.582031 40.371094 47.464844 40.277344 47.46875 Z M 40.277344 47.46875 " fill-opacity="1" fill-rule="nonzero"/></g><g clip-path="url(#be62e4eaf6)"><path fill="#ffffff" d="M 67.03125 86.316406 C 66.210938 86.367188 65.394531 86.464844 64.582031 86.605469 C 64.1875 86.667969 63.789062 86.71875 63.398438 86.8125 C 63.042969 86.898438 62.679688 87.007812 62.3125 87.003906 C 61.707031 85.921875 61.394531 84.71875 60.855469 83.609375 C 60.714844 83.296875 60.539062 83 60.328125 82.726562 C 60.292969 82.6875 60.230469 82.734375 60.25 82.78125 C 60.246094 82.785156 60.242188 82.792969 60.242188 82.800781 C 59.839844 84.351562 59.425781 85.902344 58.972656 87.441406 C 58.960938 87.421875 58.945312 87.414062 58.925781 87.417969 C 58.28125 87.453125 57.648438 87.550781 57.027344 87.714844 C 56.402344 87.863281 55.796875 88.0625 55.207031 88.308594 C 55.1875 88.316406 55.175781 88.332031 55.175781 88.355469 C 55.160156 88.382812 55.167969 88.402344 55.195312 88.414062 C 55.296875 88.472656 55.386719 88.546875 55.464844 88.632812 C 55.554688 88.71875 55.648438 88.808594 55.738281 88.898438 C 55.980469 89.128906 56.238281 89.339844 56.507812 89.539062 C 57.125 90.011719 57.769531 90.4375 58.425781 90.851562 C 58.347656 91.195312 58.289062 91.539062 58.222656 91.882812 C 58.148438 92.265625 58.078125 92.648438 58 93.027344 C 57.847656 93.785156 57.683594 94.539062 57.515625 95.292969 C 57.507812 95.328125 57.519531 95.355469 57.554688 95.371094 C 57.585938 95.382812 57.613281 95.378906 57.636719 95.347656 C 57.898438 95.199219 58.144531 95.027344 58.375 94.835938 C 58.628906 94.632812 58.878906 94.421875 59.128906 94.207031 C 59.632812 93.773438 60.125 93.328125 60.613281 92.875 C 60.890625 92.617188 61.164062 92.351562 61.4375 92.089844 C 61.714844 92.214844 61.984375 92.359375 62.246094 92.519531 C 62.535156 92.683594 62.832031 92.828125 63.128906 92.980469 C 63.75 93.292969 64.371094 93.601562 64.992188 93.917969 C 65.34375 94.097656 65.695312 94.28125 66.050781 94.460938 C 66.125 94.496094 66.1875 94.390625 66.117188 94.347656 L 66.09375 94.335938 C 66.113281 94.316406 66.117188 94.292969 66.101562 94.269531 C 65.785156 93.652344 65.460938 93.039062 65.152344 92.417969 C 64.996094 92.113281 64.84375 91.804688 64.6875 91.5 C 64.539062 91.183594 64.375 90.875 64.191406 90.578125 C 64.175781 90.550781 64.15625 90.546875 64.132812 90.5625 C 64.109375 90.578125 64.101562 90.597656 64.117188 90.621094 C 64.25 90.941406 64.433594 91.246094 64.585938 91.558594 C 64.742188 91.863281 64.894531 92.171875 65.046875 92.480469 C 65.339844 93.078125 65.628906 93.6875 65.960938 94.265625 C 65.394531 93.960938 64.816406 93.679688 64.242188 93.394531 C 63.621094 93.085938 62.988281 92.800781 62.382812 92.460938 C 62.082031 92.292969 61.785156 92.101562 61.453125 91.996094 C 61.421875 91.941406 61.386719 91.9375 61.34375 91.980469 C 60.398438 92.882812 59.4375 93.769531 58.4375 94.617188 C 58.191406 94.824219 57.9375 95.019531 57.675781 95.203125 C 57.851562 94.488281 57.996094 93.769531 58.136719 93.046875 C 58.28125 92.304688 58.441406 91.558594 58.535156 90.8125 C 58.535156 90.808594 58.535156 90.804688 58.535156 90.800781 C 58.539062 90.792969 58.539062 90.78125 58.539062 90.773438 C 58.542969 90.742188 58.519531 90.726562 58.492188 90.726562 C 57.832031 90.308594 57.175781 89.878906 56.554688 89.40625 C 56.289062 89.210938 56.035156 89.003906 55.792969 88.777344 C 55.660156 88.632812 55.511719 88.503906 55.347656 88.390625 C 56.5 87.933594 57.691406 87.648438 58.925781 87.53125 C 58.945312 87.53125 58.960938 87.519531 58.972656 87.5 C 58.984375 87.527344 59.007812 87.539062 59.035156 87.539062 C 59.066406 87.535156 59.085938 87.519531 59.09375 87.492188 C 59.546875 85.976562 59.960938 84.449219 60.324219 82.910156 C 60.453125 83.128906 60.582031 83.34375 60.695312 83.570312 C 60.835938 83.859375 60.960938 84.152344 61.078125 84.453125 C 61.304688 85.035156 61.511719 85.628906 61.757812 86.203125 C 61.882812 86.5 62.027344 86.785156 62.191406 87.0625 C 62.191406 87.078125 62.199219 87.089844 62.210938 87.097656 C 62.222656 87.113281 62.230469 87.125 62.238281 87.140625 C 62.253906 87.167969 62.277344 87.175781 62.308594 87.167969 C 62.339844 87.164062 62.355469 87.144531 62.359375 87.113281 C 62.699219 87.113281 63.03125 87.027344 63.359375 86.949219 C 63.75 86.855469 64.144531 86.800781 64.539062 86.738281 C 65.332031 86.613281 66.125 86.496094 66.925781 86.441406 C 66.761719 86.683594 66.609375 86.933594 66.433594 87.167969 C 66.230469 87.445312 66.015625 87.71875 65.796875 87.988281 C 65.382812 88.507812 64.960938 89.023438 64.609375 89.589844 C 64.566406 89.660156 64.671875 89.722656 64.71875 89.652344 C 65.085938 89.082031 65.511719 88.554688 65.933594 88.023438 C 66.136719 87.765625 66.335938 87.507812 66.527344 87.242188 C 66.730469 86.984375 66.910156 86.710938 67.0625 86.421875 C 67.105469 86.390625 67.097656 86.3125 67.03125 86.316406 Z M 67.03125 86.316406 " fill-opacity="1" fill-rule="nonzero"/></g></svg>