<svg xmlns="http://www.w3.org/2000/svg" xmlns:xlink="http://www.w3.org/1999/xlink" width="400" zoomAndPan="magnify" viewBox="0 0 300 112.499997" height="150" preserveAspectRatio="xMidYMid meet" version="1.0"><defs><g/><clipPath id="055d7e0829"><path d="M 47.246094 0 L 68.152344 0 L 68.152344 5.316406 L 47.246094 5.316406 Z M 47.246094 0 " clip-rule="nonzero"/></clipPath><clipPath id="e566c333d6"><path d="M 54.832031 71.550781 L 106.351562 71.550781 L 106.351562 87.234375 L 54.832031 87.234375 Z M 54.832031 71.550781 " clip-rule="nonzero"/></clipPath><clipPath id="63deb90f9e"><path d="M 190.421875 66.550781 L 241.941406 66.550781 L 241.941406 82.230469 L 190.421875 82.230469 Z M 190.421875 66.550781 " clip-rule="nonzero"/></clipPath><clipPath id="e80ee12a65"><path d="M 266.066406 64.546875 L 283.242188 64.546875 L 283.242188 83.214844 L 266.066406 83.214844 Z M 266.066406 64.546875 " clip-rule="nonzero"/></clipPath><clipPath id="037a0d6f9a"><path d="M 23.21875 48.621094 L 40.390625 48.621094 L 40.390625 67.289062 L 23.21875 67.289062 Z M 23.21875 48.621094 " clip-rule="nonzero"/></clipPath><clipPath id="673c4c4f58"><path d="M 51.71875 93.46875 L 63.664062 93.46875 L 63.664062 106.164062 L 51.71875 106.164062 Z M 51.71875 93.46875 " clip-rule="nonzero"/></clipPath></defs><g clip-path="url(#055d7e0829)"><path fill="#ffffff" d="M 68.015625 -10.683594 C 66.578125 -10.59375 65.148438 -10.421875 63.730469 -10.171875 C 63.039062 -10.058594 62.339844 -9.96875 61.65625 -9.804688 C 61.03125 -9.652344 60.398438 -9.464844 59.75 -9.472656 C 58.695312 -11.378906 58.144531 -13.5 57.203125 -15.457031 C 56.957031 -16.011719 56.648438 -16.53125 56.28125 -17.015625 C 56.222656 -17.085938 56.113281 -17 56.144531 -16.921875 C 56.136719 -16.914062 56.132812 -16.902344 56.128906 -16.890625 C 55.425781 -14.148438 54.703125 -11.414062 53.90625 -8.699219 C 53.886719 -8.730469 53.859375 -8.742188 53.824219 -8.742188 C 52.699219 -8.679688 51.589844 -8.503906 50.5 -8.214844 C 49.410156 -7.953125 48.351562 -7.605469 47.316406 -7.167969 C 47.28125 -7.152344 47.261719 -7.121094 47.261719 -7.082031 C 47.238281 -7.035156 47.246094 -7.003906 47.292969 -6.976562 C 47.472656 -6.875 47.628906 -6.75 47.765625 -6.597656 C 47.929688 -6.441406 48.085938 -6.28125 48.246094 -6.125 C 48.671875 -5.722656 49.121094 -5.347656 49.59375 -4.996094 C 50.671875 -4.164062 51.804688 -3.410156 52.949219 -2.675781 C 52.8125 -2.074219 52.710938 -1.464844 52.597656 -0.859375 C 52.46875 -0.1875 52.339844 0.488281 52.207031 1.164062 C 51.941406 2.5 51.648438 3.828125 51.355469 5.160156 C 51.34375 5.222656 51.367188 5.265625 51.421875 5.292969 C 51.480469 5.320312 51.527344 5.308594 51.566406 5.257812 C 52.023438 4.992188 52.457031 4.691406 52.859375 4.351562 C 53.304688 3.992188 53.746094 3.621094 54.179688 3.242188 C 55.0625 2.480469 55.925781 1.691406 56.777344 0.890625 C 57.265625 0.433594 57.746094 -0.03125 58.222656 -0.496094 C 58.707031 -0.269531 59.179688 -0.0195312 59.636719 0.261719 C 60.140625 0.554688 60.664062 0.8125 61.183594 1.074219 C 62.269531 1.628906 63.359375 2.171875 64.441406 2.730469 C 65.0625 3.046875 65.679688 3.375 66.300781 3.6875 C 66.429688 3.753906 66.542969 3.5625 66.414062 3.492188 L 66.375 3.472656 C 66.40625 3.433594 66.414062 3.394531 66.386719 3.351562 C 65.835938 2.261719 65.265625 1.179688 64.722656 0.0859375 C 64.453125 -0.457031 64.1875 -0.996094 63.910156 -1.535156 C 63.652344 -2.09375 63.363281 -2.636719 63.046875 -3.164062 C 63.019531 -3.207031 62.984375 -3.214844 62.941406 -3.191406 C 62.898438 -3.164062 62.886719 -3.128906 62.910156 -3.085938 C 63.148438 -2.523438 63.464844 -1.984375 63.738281 -1.433594 C 64.003906 -0.890625 64.273438 -0.347656 64.539062 0.195312 C 65.058594 1.25 65.5625 2.320312 66.140625 3.347656 C 65.152344 2.8125 64.136719 2.3125 63.132812 1.808594 C 62.046875 1.265625 60.9375 0.757812 59.878906 0.164062 C 59.351562 -0.132812 58.832031 -0.476562 58.25 -0.660156 C 58.230469 -0.695312 58.203125 -0.71875 58.160156 -0.722656 C 58.121094 -0.730469 58.085938 -0.71875 58.054688 -0.691406 C 56.402344 0.90625 54.71875 2.472656 52.96875 3.960938 C 52.539062 4.328125 52.097656 4.679688 51.636719 5.003906 C 51.945312 3.742188 52.203125 2.46875 52.445312 1.191406 C 52.699219 -0.113281 52.980469 -1.429688 53.144531 -2.75 C 53.144531 -2.753906 53.144531 -2.761719 53.144531 -2.765625 C 53.148438 -2.785156 53.148438 -2.800781 53.152344 -2.816406 C 53.15625 -2.871094 53.113281 -2.898438 53.066406 -2.898438 C 51.910156 -3.636719 50.765625 -4.394531 49.671875 -5.230469 C 49.207031 -5.574219 48.765625 -5.941406 48.34375 -6.335938 C 48.109375 -6.59375 47.851562 -6.824219 47.566406 -7.019531 C 49.578125 -7.828125 51.667969 -8.332031 53.824219 -8.539062 C 53.863281 -8.542969 53.886719 -8.558594 53.90625 -8.589844 C 53.929688 -8.546875 53.96875 -8.523438 54.019531 -8.527344 C 54.070312 -8.53125 54.105469 -8.558594 54.121094 -8.609375 C 54.917969 -11.28125 55.636719 -13.976562 56.277344 -16.695312 C 56.503906 -16.3125 56.726562 -15.929688 56.921875 -15.527344 C 57.171875 -15.019531 57.386719 -14.5 57.589844 -13.972656 C 57.992188 -12.945312 58.351562 -11.898438 58.785156 -10.882812 C 59.007812 -10.363281 59.257812 -9.859375 59.542969 -9.367188 C 59.546875 -9.339844 59.558594 -9.320312 59.578125 -9.304688 C 59.59375 -9.277344 59.609375 -9.253906 59.625 -9.226562 C 59.652344 -9.183594 59.695312 -9.164062 59.746094 -9.175781 C 59.800781 -9.191406 59.828125 -9.222656 59.835938 -9.277344 C 60.429688 -9.273438 61.011719 -9.429688 61.589844 -9.570312 C 62.269531 -9.734375 62.964844 -9.828125 63.652344 -9.9375 C 65.039062 -10.15625 66.429688 -10.363281 67.832031 -10.460938 C 67.542969 -10.035156 67.273438 -9.597656 66.972656 -9.179688 C 66.613281 -8.6875 66.234375 -8.210938 65.855469 -7.734375 C 65.128906 -6.816406 64.390625 -5.902344 63.773438 -4.90625 C 63.699219 -4.785156 63.886719 -4.675781 63.964844 -4.792969 C 64.613281 -5.800781 65.355469 -6.734375 66.09375 -7.671875 C 66.445312 -8.125 66.800781 -8.582031 67.136719 -9.046875 C 67.488281 -9.503906 67.800781 -9.984375 68.070312 -10.496094 C 68.144531 -10.546875 68.128906 -10.691406 68.015625 -10.683594 Z M 68.015625 -10.683594 " fill-opacity="1" fill-rule="nonzero"/></g><g clip-path="url(#e566c333d6)"><path fill="#ffffff" d="M 59.957031 82.792969 C 60.554688 83.003906 61.105469 83.210938 61.671875 83.394531 C 62.234375 83.578125 62.683594 83.933594 63.113281 84.308594 C 63.421875 84.574219 63.519531 84.925781 63.378906 85.316406 C 63.285156 85.574219 63.1875 85.835938 63.054688 86.074219 C 62.570312 86.949219 61.761719 87.234375 60.800781 86.972656 C 59.546875 86.636719 59.160156 86.148438 58.941406 84.632812 C 58.894531 84.3125 58.933594 83.980469 58.933594 83.601562 C 58.71875 83.628906 58.492188 83.632812 58.28125 83.6875 C 57.441406 83.886719 56.644531 84.164062 55.980469 84.746094 C 55.746094 84.949219 55.417969 85.054688 55.125 85.164062 C 54.925781 85.238281 54.871094 85.164062 54.9375 84.960938 C 55.105469 84.453125 55.441406 84.003906 55.890625 83.699219 C 56.851562 83.035156 57.886719 82.574219 59.097656 82.632812 C 59.167969 82.636719 59.277344 82.566406 59.304688 82.5 C 59.9375 81.011719 60.902344 79.761719 62.027344 78.59375 C 63.308594 77.257812 64.847656 76.183594 66.554688 75.441406 C 68.039062 74.792969 69.535156 74.097656 71.128906 73.757812 C 73.578125 73.242188 76.046875 73.207031 78.527344 73.617188 C 81.109375 74.042969 83.640625 74.671875 86.179688 75.269531 C 87.863281 75.667969 89.546875 76.078125 91.277344 76.179688 C 92.609375 76.253906 93.949219 76.234375 95.28125 76.191406 C 96.34375 76.160156 97.40625 76.074219 98.464844 75.933594 C 99.730469 75.761719 100.890625 75.242188 102.0625 74.773438 C 103.582031 74.164062 104.820312 73.203125 105.722656 71.839844 C 105.820312 71.695312 105.921875 71.550781 106.117188 71.632812 C 106.316406 71.714844 106.292969 71.902344 106.253906 72.058594 C 106.148438 72.523438 105.914062 72.949219 105.585938 73.300781 C 104.648438 74.269531 103.621094 75.109375 102.34375 75.613281 C 101.09375 76.105469 99.867188 76.660156 98.523438 76.851562 C 97.652344 76.976562 96.773438 77.066406 95.890625 77.113281 C 94.59375 77.175781 93.292969 77.230469 91.992188 77.207031 C 90.070312 77.171875 88.199219 76.742188 86.335938 76.324219 C 84.253906 75.867188 82.179688 75.335938 80.089844 74.902344 C 78.375 74.542969 76.644531 74.25 74.871094 74.308594 C 73.625 74.351562 72.34375 74.316406 71.15625 74.6875 C 68.714844 75.453125 66.222656 76.148438 64.132812 77.699219 C 62.480469 78.925781 61.0625 80.378906 60.171875 82.261719 C 60.089844 82.429688 60.035156 82.609375 59.957031 82.792969 Z M 59.722656 83.753906 C 59.585938 84.316406 59.691406 84.8125 59.851562 85.308594 C 60.066406 85.957031 60.683594 86.355469 61.410156 86.320312 C 62.042969 86.292969 62.414062 85.945312 62.585938 85.214844 C 62.589844 85.207031 62.597656 85.199219 62.59375 85.191406 C 62.554688 85.089844 62.546875 84.949219 62.472656 84.886719 C 61.679688 84.25 60.730469 83.976562 59.722656 83.753906 Z M 59.722656 83.753906 " fill-opacity="1" fill-rule="nonzero"/></g><g fill="#ffffff" fill-opacity="1"><g transform="translate(112.161477, 87.30604)"><g><path d="M 40.925781 -29.640625 C 39.492188 -26.871094 38.007812 -24.097656 36.527344 -21.324219 C 32.605469 -13.863281 29.019531 -6.214844 26.105469 1.769531 C 25.386719 3.632812 24.8125 5.59375 24.289062 7.601562 C 24.097656 8.414062 24.097656 9.324219 24.097656 10.183594 C 24.097656 10.804688 24.429688 11.28125 24.957031 11.617188 C 25.863281 12.144531 26.820312 12.289062 28.113281 11.808594 C 26.679688 10.949219 26.917969 9.800781 27.203125 8.75 C 27.585938 7.265625 28.066406 5.832031 28.636719 4.398438 C 31.21875 -2.199219 34.183594 -8.605469 37.433594 -14.867188 C 41.5 -22.804688 45.5625 -30.644531 49.625 -38.582031 C 50.296875 -39.875 50.964844 -41.164062 51.492188 -42.503906 C 51.777344 -43.21875 52.207031 -43.984375 51.96875 -44.847656 C 50.441406 -45.851562 49.246094 -45.851562 48.050781 -44.796875 C 47.378906 -44.128906 46.757812 -43.410156 46.183594 -42.648438 C 43.460938 -39.0625 40.6875 -35.476562 38.007812 -31.839844 C 33.515625 -25.722656 28.496094 -20.03125 23.617188 -14.246094 C 23.332031 -13.914062 22.949219 -13.671875 22.183594 -13.050781 C 22.566406 -14.152344 22.710938 -14.773438 22.996094 -15.347656 C 24.429688 -18.695312 25.960938 -22.039062 27.441406 -25.339844 C 28.113281 -26.871094 28.828125 -28.398438 29.5 -29.929688 C 29.738281 -30.597656 29.976562 -31.316406 30.121094 -32.03125 C 30.3125 -33.179688 29.832031 -33.800781 28.589844 -33.945312 C 27.300781 -34.089844 26.105469 -33.800781 25.148438 -32.941406 C 24.191406 -32.128906 23.234375 -31.316406 22.421875 -30.40625 C 19.9375 -27.347656 17.402344 -24.335938 15.058594 -21.179688 C 12.476562 -17.738281 10.089844 -14.199219 7.601562 -10.660156 C 7.125 -9.992188 6.597656 -9.324219 6.070312 -8.605469 C 5.929688 -9.5625 6.359375 -10.230469 6.695312 -10.902344 C 9.132812 -16.207031 11.664062 -21.464844 14.105469 -26.773438 C 14.773438 -28.207031 15.300781 -29.738281 15.824219 -31.21875 C 16.0625 -31.984375 16.207031 -32.796875 16.207031 -33.5625 C 16.304688 -34.757812 15.777344 -35.332031 14.582031 -35.476562 C 13.242188 -35.714844 12 -35.285156 10.851562 -34.566406 C 7.839844 -32.605469 5.257812 -30.121094 3.25 -27.15625 C 2.582031 -26.152344 2.152344 -25.101562 1.960938 -23.90625 C 1.816406 -23.09375 1.914062 -22.28125 2.34375 -21.5625 C 2.726562 -20.941406 3.203125 -20.414062 4.207031 -20.605469 C 3.632812 -23.761719 5.117188 -26.152344 7.074219 -28.253906 C 8.652344 -29.976562 10.421875 -31.507812 12.144531 -33.085938 C 12.476562 -33.371094 12.957031 -33.5625 13.433594 -33.800781 C 13.863281 -32.941406 13.625 -32.222656 13.386719 -31.554688 C 12.71875 -29.785156 12.097656 -28.015625 11.332031 -26.296875 C 8.75 -20.75 6.070312 -15.203125 3.441406 -9.707031 C 1.960938 -6.550781 0.429688 -3.394531 -1.050781 -0.238281 C -1.339844 0.382812 -1.863281 1.003906 -1.480469 1.816406 C -0.238281 2.390625 0.765625 2.105469 1.625 1.101562 C 2.246094 0.382812 2.867188 -0.335938 3.488281 -1.050781 C 7.648438 -6.121094 11.523438 -11.378906 15.347656 -16.734375 C 18.359375 -20.894531 21.65625 -24.910156 24.8125 -29.019531 C 25.292969 -29.59375 25.769531 -30.265625 26.726562 -30.695312 C 26.582031 -30.121094 26.535156 -29.691406 26.34375 -29.308594 C 25.722656 -27.777344 25.050781 -26.246094 24.382812 -24.671875 C 22.757812 -20.894531 21.085938 -17.066406 19.507812 -13.242188 C 19.171875 -12.382812 18.933594 -11.425781 18.789062 -10.519531 C 18.597656 -9.609375 19.078125 -9.132812 19.9375 -8.988281 C 21.035156 -8.84375 21.945312 -9.273438 22.710938 -9.992188 C 24.238281 -11.425781 25.863281 -12.8125 27.25 -14.4375 C 31.601562 -19.507812 35.859375 -24.671875 40.207031 -29.785156 C 40.542969 -30.214844 40.925781 -30.644531 41.308594 -31.125 C 41.640625 -30.40625 41.164062 -30.023438 40.925781 -29.640625 Z M 40.925781 -29.640625 "/></g></g></g><g fill="#ffffff" fill-opacity="1"><g transform="translate(152.456545, 87.30604)"><g><path d="M 7.457031 -36.097656 C 7.984375 -36.671875 8.414062 -37.386719 9.035156 -37.867188 C 12.71875 -40.78125 16.875 -42.597656 21.417969 -43.554688 C 21.515625 -43.554688 21.5625 -43.601562 21.65625 -43.601562 C 22.660156 -43.652344 23.234375 -43.027344 22.902344 -42.121094 C 22.566406 -41.164062 22.136719 -40.207031 21.515625 -39.394531 C 20.03125 -37.386719 18.453125 -35.523438 16.925781 -33.5625 C 15.585938 -31.9375 14.199219 -30.3125 12.957031 -28.589844 C 12.238281 -27.632812 11.664062 -26.488281 11.234375 -25.339844 C 10.375 -23.042969 10.851562 -21.417969 12.8125 -19.9375 C 13.816406 -19.125 15.011719 -18.550781 16.160156 -17.882812 C 17.402344 -17.164062 18.742188 -16.542969 19.9375 -15.730469 C 22.136719 -14.34375 22.949219 -12.289062 22.566406 -9.707031 C 22.421875 -8.84375 22.136719 -8.175781 21.371094 -7.746094 C 20.558594 -7.21875 19.792969 -6.695312 19.027344 -6.167969 C 13.816406 -2.628906 8.796875 1.148438 4.207031 5.402344 C 2.964844 6.550781 1.816406 7.746094 0.765625 9.035156 C -0.667969 10.804688 -0.09375 12 2.152344 12.289062 C 2.34375 12.289062 2.582031 12.289062 2.773438 12.289062 C 4.542969 12.429688 6.121094 11.90625 7.648438 11.1875 C 14.007812 8.078125 19.457031 3.730469 23.855469 -1.863281 C 25.386719 -3.824219 26.628906 -6.023438 27.109375 -8.460938 C 27.394531 -9.65625 27.96875 -10.421875 28.925781 -11.042969 C 29.785156 -11.570312 30.597656 -12.238281 31.410156 -12.859375 C 31.601562 -13.003906 31.9375 -13.148438 31.746094 -13.671875 C 30.023438 -14.007812 29.164062 -12 27.492188 -11.953125 C 26.871094 -14.675781 25.101562 -16.304688 22.902344 -17.640625 C 21.898438 -18.214844 20.84375 -18.742188 19.839844 -19.316406 C 19.078125 -19.699219 18.3125 -20.128906 17.59375 -20.605469 C 15.921875 -21.707031 15.441406 -23.042969 16.0625 -24.957031 C 16.398438 -25.960938 16.925781 -27.011719 17.5 -27.875 C 18.742188 -29.691406 20.128906 -31.410156 21.417969 -33.132812 C 22.804688 -34.949219 24.191406 -36.71875 25.484375 -38.582031 C 26.054688 -39.394531 26.535156 -40.351562 26.820312 -41.308594 C 27.441406 -43.125 26.820312 -44.273438 25.003906 -44.894531 C 23.761719 -45.324219 22.472656 -45.46875 21.132812 -45.277344 C 16.496094 -44.65625 12.289062 -42.835938 8.605469 -40.015625 C 7.746094 -39.347656 7.074219 -38.4375 6.453125 -37.53125 C 5.976562 -36.910156 5.785156 -36.097656 6.40625 -34.996094 C 6.882812 -35.476562 7.171875 -35.761719 7.457031 -36.097656 Z M 4.683594 9.992188 C 4.304688 9.464844 4.636719 9.179688 4.828125 8.941406 C 5.738281 7.886719 6.597656 6.835938 7.601562 5.878906 C 11.378906 2.152344 15.539062 -1.148438 19.746094 -4.351562 C 19.9375 -4.496094 20.128906 -4.542969 20.320312 -4.636719 C 16.6875 1.960938 11.234375 6.597656 4.683594 9.992188 Z M 4.683594 9.992188 "/></g></g></g><g fill="#ffffff" fill-opacity="1"><g transform="translate(185.242916, 87.30604)"><g/></g></g><g clip-path="url(#63deb90f9e)"><path fill="#ffffff" d="M 236.8125 70.992188 C 236.21875 70.78125 235.667969 70.570312 235.101562 70.390625 C 234.539062 70.207031 234.089844 69.851562 233.660156 69.476562 C 233.351562 69.207031 233.253906 68.855469 233.394531 68.464844 C 233.488281 68.210938 233.585938 67.945312 233.71875 67.707031 C 234.203125 66.835938 235.011719 66.550781 235.972656 66.8125 C 237.226562 67.148438 237.613281 67.632812 237.832031 69.152344 C 237.878906 69.472656 237.835938 69.800781 237.835938 70.183594 C 238.054688 70.152344 238.28125 70.148438 238.492188 70.097656 C 239.332031 69.898438 240.128906 69.621094 240.792969 69.035156 C 241.027344 68.835938 241.355469 68.730469 241.648438 68.617188 C 241.847656 68.542969 241.902344 68.621094 241.835938 68.820312 C 241.667969 69.332031 241.332031 69.777344 240.882812 70.082031 C 239.921875 70.746094 238.886719 71.207031 237.671875 71.152344 C 237.605469 71.148438 237.496094 71.21875 237.46875 71.28125 C 236.835938 72.773438 235.871094 74.019531 234.746094 75.191406 C 233.464844 76.527344 231.925781 77.597656 230.21875 78.339844 C 228.734375 78.992188 227.238281 79.6875 225.640625 80.023438 C 223.195312 80.539062 220.726562 80.574219 218.246094 80.164062 C 215.664062 79.738281 213.132812 79.109375 210.59375 78.511719 C 208.910156 78.113281 207.226562 77.703125 205.496094 77.605469 C 204.164062 77.527344 202.824219 77.550781 201.492188 77.589844 C 200.429688 77.625 199.367188 77.710938 198.308594 77.851562 C 197.042969 78.019531 195.882812 78.539062 194.710938 79.011719 C 193.191406 79.621094 191.953125 80.578125 191.050781 81.941406 C 190.953125 82.085938 190.851562 82.230469 190.652344 82.152344 C 190.457031 82.070312 190.480469 81.878906 190.519531 81.726562 C 190.625 81.261719 190.859375 80.832031 191.1875 80.484375 C 192.125 79.515625 193.148438 78.675781 194.429688 78.171875 C 195.679688 77.679688 196.90625 77.125 198.25 76.929688 C 199.121094 76.808594 200 76.714844 200.882812 76.671875 C 202.179688 76.605469 203.480469 76.550781 204.78125 76.574219 C 206.703125 76.609375 208.574219 77.042969 210.4375 77.457031 C 212.519531 77.914062 214.59375 78.445312 216.679688 78.882812 C 218.398438 79.238281 220.128906 79.53125 221.902344 79.476562 C 223.148438 79.433594 224.429688 79.46875 225.617188 79.097656 C 228.054688 78.328125 230.550781 77.632812 232.640625 76.082031 C 234.292969 74.855469 235.710938 73.40625 236.601562 71.519531 C 236.683594 71.351562 236.738281 71.171875 236.8125 70.992188 Z M 237.050781 70.03125 C 237.1875 69.46875 237.082031 68.96875 236.921875 68.472656 C 236.707031 67.828125 236.089844 67.429688 235.363281 67.460938 C 234.730469 67.488281 234.359375 67.835938 234.1875 68.570312 C 234.183594 68.574219 234.175781 68.585938 234.179688 68.59375 C 234.21875 68.695312 234.226562 68.835938 234.300781 68.894531 C 235.09375 69.535156 236.042969 69.804688 237.050781 70.03125 Z M 237.050781 70.03125 " fill-opacity="1" fill-rule="nonzero"/></g><g clip-path="url(#e80ee12a65)"><path fill="#ffffff" d="M 283.128906 69.878906 C 281.945312 69.957031 280.773438 70.097656 279.605469 70.308594 C 279.039062 70.402344 278.464844 70.476562 277.90625 70.613281 C 277.390625 70.742188 276.871094 70.898438 276.339844 70.890625 C 275.472656 69.304688 275.019531 67.535156 274.246094 65.902344 C 274.042969 65.441406 273.789062 65.007812 273.488281 64.605469 C 273.441406 64.546875 273.351562 64.617188 273.378906 64.683594 C 273.371094 64.691406 273.367188 64.699219 273.363281 64.710938 C 272.789062 66.996094 272.195312 69.273438 271.539062 71.539062 C 271.523438 71.511719 271.5 71.5 271.472656 71.5 C 270.546875 71.550781 269.636719 71.699219 268.742188 71.941406 C 267.847656 72.15625 266.976562 72.449219 266.125 72.8125 C 266.097656 72.824219 266.082031 72.851562 266.082031 72.882812 C 266.0625 72.921875 266.070312 72.949219 266.105469 72.96875 C 266.253906 73.054688 266.382812 73.160156 266.496094 73.289062 C 266.628906 73.417969 266.757812 73.550781 266.890625 73.679688 C 267.242188 74.015625 267.609375 74.332031 267.996094 74.621094 C 268.882812 75.316406 269.8125 75.945312 270.753906 76.554688 C 270.640625 77.054688 270.558594 77.5625 270.460938 78.066406 C 270.359375 78.628906 270.253906 79.191406 270.144531 79.753906 C 269.925781 80.867188 269.683594 81.976562 269.445312 83.085938 C 269.433594 83.136719 269.453125 83.175781 269.5 83.195312 C 269.546875 83.21875 269.585938 83.207031 269.617188 83.164062 C 269.992188 82.945312 270.347656 82.695312 270.679688 82.410156 C 271.046875 82.109375 271.40625 81.804688 271.761719 81.488281 C 272.488281 80.851562 273.199219 80.195312 273.898438 79.527344 C 274.296875 79.148438 274.691406 78.761719 275.082031 78.371094 C 275.484375 78.558594 275.871094 78.769531 276.246094 79.003906 C 276.660156 79.246094 277.089844 79.460938 277.515625 79.683594 C 278.410156 80.140625 279.300781 80.597656 280.191406 81.058594 C 280.703125 81.324219 281.207031 81.597656 281.71875 81.859375 C 281.824219 81.910156 281.917969 81.753906 281.8125 81.695312 L 281.777344 81.679688 C 281.804688 81.648438 281.808594 81.613281 281.789062 81.578125 C 281.335938 80.671875 280.871094 79.769531 280.421875 78.855469 C 280.203125 78.40625 279.980469 77.953125 279.753906 77.503906 C 279.542969 77.039062 279.304688 76.585938 279.046875 76.148438 C 279.023438 76.113281 278.996094 76.105469 278.957031 76.125 C 278.921875 76.148438 278.914062 76.175781 278.933594 76.214844 C 279.128906 76.683594 279.390625 77.132812 279.613281 77.589844 C 279.832031 78.042969 280.050781 78.496094 280.269531 78.949219 C 280.695312 79.828125 281.113281 80.71875 281.589844 81.574219 C 280.773438 81.128906 279.941406 80.710938 279.117188 80.292969 C 278.226562 79.839844 277.3125 79.417969 276.445312 78.921875 C 276.011719 78.671875 275.585938 78.386719 275.109375 78.234375 C 275.0625 78.15625 275.011719 78.148438 274.945312 78.210938 C 273.589844 79.542969 272.207031 80.84375 270.769531 82.085938 C 270.414062 82.390625 270.054688 82.683594 269.675781 82.953125 C 269.925781 81.902344 270.136719 80.839844 270.339844 79.777344 C 270.546875 78.691406 270.777344 77.59375 270.910156 76.492188 C 270.914062 76.488281 270.914062 76.484375 270.914062 76.480469 C 270.914062 76.464844 270.917969 76.453125 270.917969 76.4375 C 270.925781 76.394531 270.886719 76.371094 270.851562 76.371094 C 269.898438 75.753906 268.957031 75.121094 268.0625 74.425781 C 267.679688 74.140625 267.316406 73.832031 266.96875 73.503906 C 266.777344 73.289062 266.566406 73.101562 266.332031 72.933594 C 267.984375 72.261719 269.699219 71.839844 271.472656 71.667969 C 271.503906 71.667969 271.523438 71.652344 271.539062 71.625 C 271.558594 71.664062 271.589844 71.683594 271.632812 71.679688 C 271.671875 71.675781 271.703125 71.652344 271.714844 71.613281 C 272.367188 69.382812 272.957031 67.136719 273.484375 64.871094 C 273.671875 65.191406 273.855469 65.511719 274.015625 65.847656 C 274.21875 66.269531 274.398438 66.703125 274.566406 67.140625 C 274.894531 67.996094 275.191406 68.871094 275.546875 69.714844 C 275.726562 70.148438 275.933594 70.570312 276.167969 70.976562 C 276.167969 71 276.179688 71.019531 276.199219 71.03125 C 276.210938 71.054688 276.222656 71.074219 276.234375 71.09375 C 276.257812 71.132812 276.292969 71.148438 276.335938 71.136719 C 276.378906 71.128906 276.402344 71.097656 276.410156 71.054688 C 276.898438 71.054688 277.375 70.925781 277.847656 70.8125 C 278.40625 70.671875 278.976562 70.597656 279.542969 70.503906 C 280.683594 70.320312 281.824219 70.148438 282.976562 70.066406 C 282.738281 70.421875 282.519531 70.789062 282.269531 71.136719 C 281.972656 71.542969 281.664062 71.941406 281.351562 72.339844 C 280.753906 73.105469 280.152344 73.867188 279.644531 74.695312 C 279.582031 74.796875 279.738281 74.890625 279.800781 74.789062 C 280.332031 73.953125 280.945312 73.175781 281.546875 72.390625 C 281.839844 72.011719 282.128906 71.632812 282.40625 71.246094 C 282.695312 70.867188 282.949219 70.464844 283.171875 70.039062 C 283.234375 69.996094 283.21875 69.875 283.128906 69.878906 Z M 283.128906 69.878906 " fill-opacity="1" fill-rule="nonzero"/></g><g fill="#ffffff" fill-opacity="1"><g transform="translate(16.059687, 40.319169)"><g><path d="M 10.242188 -21.191406 C 4.476562 -22.832031 0.484375 -3.027344 0 -0.835938 C -0.03125 -0.742188 0.0625 -0.613281 0.160156 -0.613281 L 2.09375 -0.289062 C 2.222656 -0.289062 2.320312 -0.355469 2.320312 -0.449219 C 2.511719 -1.160156 3.1875 -4.058594 4.121094 -7.308594 C 5.828125 -7.472656 8.503906 -7.601562 10.242188 -7.664062 C 10.078125 -4.28125 9.824219 -1.160156 9.726562 -0.355469 C 9.726562 -0.226562 9.824219 -0.128906 9.949219 -0.128906 L 12.109375 -0.128906 C 12.207031 -0.128906 12.300781 -0.191406 12.300781 -0.289062 C 12.59375 -2.320312 14.554688 -19.964844 10.242188 -21.191406 Z M 4.832031 -9.695312 C 6.214844 -14.234375 7.953125 -18.644531 9.402344 -18.324219 C 10.304688 -18.097656 10.433594 -14.136719 10.335938 -9.984375 C 8.46875 -9.984375 6.152344 -9.824219 4.832031 -9.695312 Z M 4.832031 -9.695312 "/></g></g></g><g fill="#ffffff" fill-opacity="1"><g transform="translate(31.934677, 40.319169)"><g><path d="M 7.214844 -2.542969 C 5.25 -2.738281 3.703125 -2.609375 2.996094 -2.640625 L 5.347656 -21.0625 C 5.347656 -21.191406 5.25 -21.320312 5.121094 -21.285156 L 2.835938 -21.125 C 2.738281 -21.125 2.640625 -21.0625 2.640625 -20.964844 C 2.640625 -20.964844 0.707031 -3.671875 0.320312 -0.675781 C 0.257812 -0.417969 0.417969 -0.128906 0.675781 -0.128906 C 4.089844 -0.257812 6.152344 -0.191406 7.148438 -0.03125 C 7.472656 0.03125 7.730469 0 7.792969 -0.320312 C 7.859375 -0.707031 7.953125 -1.222656 7.988281 -1.738281 C 8.019531 -2.191406 7.664062 -2.480469 7.214844 -2.542969 Z M 7.214844 -2.542969 "/></g></g></g><g fill="#ffffff" fill-opacity="1"><g transform="translate(42.174567, 40.319169)"><g><path d="M 14.074219 -10.113281 C 14.265625 -11.851562 14.265625 -13.300781 14.074219 -14.523438 C 13.976562 -15.167969 13.847656 -15.492188 13.6875 -16.359375 C 12.398438 -20.386719 9.597656 -20.773438 7.664062 -20.09375 C 3.476562 -18.710938 1.160156 -13.140625 0.578125 -9.015625 C 0.160156 -6.054688 0.257812 0 5.089844 0.578125 C 6.472656 0.773438 7.761719 0.386719 8.855469 -0.320312 C 9.242188 0.320312 9.566406 0.902344 9.757812 1.222656 C 9.855469 1.417969 10.113281 1.480469 10.304688 1.386719 L 10.851562 1.128906 C 11.015625 1.03125 11.109375 0.871094 11.078125 0.675781 C 10.980469 0.128906 10.628906 -0.613281 10.175781 -1.417969 C 12.464844 -3.769531 13.816406 -7.601562 14.074219 -10.113281 Z M 8.019531 -4.703125 C 7.859375 -4.925781 7.566406 -4.960938 7.375 -4.765625 L 6.859375 -4.28125 C 6.730469 -4.15625 6.667969 -3.929688 6.796875 -3.769531 C 6.957031 -3.476562 7.246094 -2.960938 7.601562 -2.382812 C 7.117188 -1.996094 6.632812 -1.804688 6.214844 -1.769531 C 4.378906 -1.609375 2.511719 -3.089844 3.058594 -8.082031 C 3.316406 -10.433594 3.992188 -12.300781 4.636719 -13.589844 C 4.667969 -13.65625 6.761719 -18.292969 9.082031 -18.292969 C 11.851562 -18.292969 11.914062 -13.847656 11.914062 -13.847656 C 11.949219 -13.042969 11.914062 -12.171875 11.753906 -11.144531 C 11.175781 -7.601562 10.015625 -5.089844 8.792969 -3.574219 C 8.46875 -4.058594 8.179688 -4.445312 8.019531 -4.703125 Z M 8.019531 -4.703125 "/></g></g></g><g fill="#ffffff" fill-opacity="1"><g transform="translate(58.500363, 40.319169)"><g><path d="M 12.847656 -19 L 12.429688 -18.96875 C 11.949219 -19.066406 11.527344 -19.097656 11.398438 -18.261719 C 10.949219 -15.457031 9.46875 -1.835938 5.089844 -2.125 C 3.414062 -2.222656 3.253906 -4.863281 3.125 -7.859375 C 3.058594 -10.113281 3.898438 -17.453125 4.089844 -18.226562 C 4.121094 -18.453125 3.992188 -18.871094 3.800781 -18.9375 C 3.027344 -19.195312 2.671875 -19.257812 1.996094 -19.160156 C 1.835938 -19.160156 1.707031 -19 1.675781 -18.871094 C 1.449219 -17.777344 0.515625 -10.917969 0.484375 -5.730469 C 0.449219 -2.320312 2.125 -0.386719 3.476562 0.03125 C 10.5625 2.320312 11.820312 -7.054688 13.621094 -17.808594 C 13.785156 -18.742188 13.363281 -18.902344 12.847656 -19 Z M 12.847656 -19 "/></g></g></g><g fill="#ffffff" fill-opacity="1"><g transform="translate(72.958519, 40.319169)"><g><path d="M 4.445312 -20 L 2.191406 -19.710938 C 2.09375 -19.675781 2.027344 -19.613281 1.996094 -19.515625 L 0.191406 -0.226562 C 0.191406 -0.0976562 0.289062 0 0.417969 0 L 2.351562 0 C 2.449219 0 2.542969 -0.0976562 2.542969 -0.191406 L 4.703125 -19.742188 C 4.703125 -19.902344 4.574219 -20 4.445312 -20 Z M 4.445312 -20 "/></g></g></g><g fill="#ffffff" fill-opacity="1"><g transform="translate(80.268148, 40.319169)"><g><path d="M 7.214844 -2.542969 C 5.25 -2.738281 3.703125 -2.609375 2.996094 -2.640625 L 5.347656 -21.0625 C 5.347656 -21.191406 5.25 -21.320312 5.121094 -21.285156 L 2.835938 -21.125 C 2.738281 -21.125 2.640625 -21.0625 2.640625 -20.964844 C 2.640625 -20.964844 0.707031 -3.671875 0.320312 -0.675781 C 0.257812 -0.417969 0.417969 -0.128906 0.675781 -0.128906 C 4.089844 -0.257812 6.152344 -0.191406 7.148438 -0.03125 C 7.472656 0.03125 7.730469 0 7.792969 -0.320312 C 7.859375 -0.707031 7.953125 -1.222656 7.988281 -1.738281 C 8.019531 -2.191406 7.664062 -2.480469 7.214844 -2.542969 Z M 7.214844 -2.542969 "/></g></g></g><g fill="#ffffff" fill-opacity="1"><g transform="translate(90.508037, 40.319169)"><g><path d="M 10.949219 -20.160156 C 10.015625 -20.160156 7.730469 -20.289062 5.605469 -20.222656 C 4.410156 -20.191406 4.28125 -20.191406 3.832031 -20.160156 C 3.800781 -20.160156 3.605469 -20.160156 3.414062 -20.128906 C 3.125 -20.09375 2.867188 -19.871094 2.835938 -19.582031 C 2.671875 -18.839844 2.414062 -17.519531 2.414062 -17.519531 L 1.640625 -11.691406 L 1.320312 -9.402344 L 0.191406 -0.804688 C 0.160156 -0.773438 0.191406 -0.742188 0.191406 -0.675781 C 0.226562 -0.320312 0.515625 -0.0625 0.835938 0 C 0.871094 0 1.222656 -0.03125 1.386719 -0.03125 C 1.386719 -0.03125 7.761719 -0.191406 8.664062 -0.191406 C 8.792969 -0.191406 8.921875 -0.289062 8.953125 -0.449219 L 9.179688 -2.027344 C 9.210938 -2.191406 9.082031 -2.320312 8.921875 -2.320312 C 7.601562 -2.320312 5.21875 -2.449219 3.027344 -2.382812 L 3.992188 -9.53125 C 6.214844 -9.46875 7.34375 -9.566406 8.050781 -9.53125 C 8.179688 -9.53125 8.308594 -9.660156 8.339844 -9.789062 L 8.566406 -11.335938 C 8.597656 -11.496094 8.46875 -11.65625 8.308594 -11.65625 C 6.988281 -11.65625 6.023438 -11.65625 4.316406 -11.785156 L 5.28125 -17.96875 C 7.988281 -18.003906 9.855469 -18.035156 10.691406 -18.035156 C 10.820312 -18.035156 10.949219 -18.132812 10.980469 -18.261719 L 11.207031 -19.839844 C 11.207031 -20 11.109375 -20.160156 10.949219 -20.160156 Z M 10.949219 -20.160156 "/></g></g></g><g fill="#ffffff" fill-opacity="1"><g transform="translate(102.100352, 40.319169)"><g><path d="M 12.367188 -20.03125 C 9.4375 -20.03125 7.214844 -18.164062 5.667969 -16.199219 L 6.503906 -20.933594 C 6.539062 -21.0625 6.441406 -21.191406 6.3125 -21.191406 L 4.027344 -21.09375 C 3.929688 -21.0625 3.832031 -20.996094 3.832031 -20.902344 L 0.191406 -0.257812 C 0.160156 -0.128906 0.257812 0 0.386719 0 L 2.640625 -0.03125 C 2.738281 -0.03125 2.835938 -0.0976562 2.835938 -0.191406 L 3.800781 -5.636719 C 3.898438 -5.636719 3.992188 -5.667969 4.089844 -5.667969 C 4.863281 -3.992188 6.957031 -0.546875 11.691406 -0.289062 C 12.011719 -0.289062 12.269531 -0.546875 12.269531 -0.835938 C 12.300781 -1.257812 12.269531 -1.546875 12.238281 -1.769531 C 12.207031 -2.027344 12.011719 -2.222656 11.753906 -2.253906 C 10.722656 -2.414062 8.210938 -3.511719 6.375 -6.3125 C 9.53125 -7.503906 14.007812 -10.046875 15.554688 -13.785156 C 16.90625 -17.066406 15.234375 -20.03125 12.367188 -20.03125 Z M 13.914062 -15.84375 C 13.816406 -12.753906 7.601562 -8.921875 4.25 -8.117188 L 4.765625 -10.980469 C 6.34375 -13.332031 9.824219 -18.003906 12.171875 -18.003906 C 12.945312 -18.003906 14.007812 -17.875 13.914062 -15.84375 Z M 13.914062 -15.84375 "/></g></g></g><g fill="#ffffff" fill-opacity="1"><g transform="translate(119.263365, 40.319169)"><g/></g></g><g fill="#ffffff" fill-opacity="1"><g transform="translate(129.342253, 40.319169)"><g><path d="M 13.042969 -16.003906 C 12.882812 -18.390625 11.398438 -21.351562 6.761719 -21.09375 C 2.285156 -20.449219 3.058594 -21.191406 2.285156 -16.617188 L 0.707031 -3.734375 C 0.613281 -3.476562 0.449219 -1.191406 0.449219 -1.191406 C 0.449219 -1.128906 0.386719 -0.257812 0.933594 0 C 9.855469 0.128906 13.363281 -10.949219 13.042969 -16.003906 Z M 3.316406 -3.15625 L 5.121094 -18.097656 C 5.121094 -18.132812 5.152344 -18.453125 5.152344 -18.484375 C 6.699219 -18.9375 7.859375 -19.160156 9.242188 -18.484375 C 12.722656 -16.746094 8.40625 -3.960938 3.316406 -3.15625 Z M 3.316406 -3.15625 "/></g></g></g><g fill="#ffffff" fill-opacity="1"><g transform="translate(143.60721, 40.319169)"><g><path d="M 10.949219 -20.160156 C 10.015625 -20.160156 7.730469 -20.289062 5.605469 -20.222656 C 4.410156 -20.191406 4.28125 -20.191406 3.832031 -20.160156 C 3.800781 -20.160156 3.605469 -20.160156 3.414062 -20.128906 C 3.125 -20.09375 2.867188 -19.871094 2.835938 -19.582031 C 2.671875 -18.839844 2.414062 -17.519531 2.414062 -17.519531 L 1.640625 -11.691406 L 1.320312 -9.402344 L 0.191406 -0.804688 C 0.160156 -0.773438 0.191406 -0.742188 0.191406 -0.675781 C 0.226562 -0.320312 0.515625 -0.0625 0.835938 0 C 0.871094 0 1.222656 -0.03125 1.386719 -0.03125 C 1.386719 -0.03125 7.761719 -0.191406 8.664062 -0.191406 C 8.792969 -0.191406 8.921875 -0.289062 8.953125 -0.449219 L 9.179688 -2.027344 C 9.210938 -2.191406 9.082031 -2.320312 8.921875 -2.320312 C 7.601562 -2.320312 5.21875 -2.449219 3.027344 -2.382812 L 3.992188 -9.53125 C 6.214844 -9.46875 7.34375 -9.566406 8.050781 -9.53125 C 8.179688 -9.53125 8.308594 -9.660156 8.339844 -9.789062 L 8.566406 -11.335938 C 8.597656 -11.496094 8.46875 -11.65625 8.308594 -11.65625 C 6.988281 -11.65625 6.023438 -11.65625 4.316406 -11.785156 L 5.28125 -17.96875 C 7.988281 -18.003906 9.855469 -18.035156 10.691406 -18.035156 C 10.820312 -18.035156 10.949219 -18.132812 10.980469 -18.261719 L 11.207031 -19.839844 C 11.207031 -20 11.109375 -20.160156 10.949219 -20.160156 Z M 10.949219 -20.160156 "/></g></g></g><g fill="#ffffff" fill-opacity="1"><g transform="translate(155.199524, 40.319169)"><g/></g></g><g fill="#ffffff" fill-opacity="1"><g transform="translate(165.278412, 40.319169)"><g><path d="M 13.042969 -16.003906 C 12.882812 -18.390625 11.398438 -21.351562 6.761719 -21.09375 C 2.285156 -20.449219 3.058594 -21.191406 2.285156 -16.617188 L 0.707031 -3.734375 C 0.613281 -3.476562 0.449219 -1.191406 0.449219 -1.191406 C 0.449219 -1.128906 0.386719 -0.257812 0.933594 0 C 9.855469 0.128906 13.363281 -10.949219 13.042969 -16.003906 Z M 3.316406 -3.15625 L 5.121094 -18.097656 C 5.121094 -18.132812 5.152344 -18.453125 5.152344 -18.484375 C 6.699219 -18.9375 7.859375 -19.160156 9.242188 -18.484375 C 12.722656 -16.746094 8.40625 -3.960938 3.316406 -3.15625 Z M 3.316406 -3.15625 "/></g></g></g><g fill="#ffffff" fill-opacity="1"><g transform="translate(179.543369, 40.319169)"><g><path d="M 4.445312 -20 L 2.191406 -19.710938 C 2.09375 -19.675781 2.027344 -19.613281 1.996094 -19.515625 L 0.191406 -0.226562 C 0.191406 -0.0976562 0.289062 0 0.417969 0 L 2.351562 0 C 2.449219 0 2.542969 -0.0976562 2.542969 -0.191406 L 4.703125 -19.742188 C 4.703125 -19.902344 4.574219 -20 4.445312 -20 Z M 4.445312 -20 "/></g></g></g><g fill="#ffffff" fill-opacity="1"><g transform="translate(186.852999, 40.319169)"><g><path d="M 10.113281 -17.003906 L 11.078125 -17.875 C 11.238281 -18.003906 11.273438 -18.292969 11.109375 -18.453125 C 10.59375 -19 9.4375 -20 7.761719 -20.160156 C 5.183594 -20.417969 3.929688 -19.195312 3.445312 -16.90625 C 2.449219 -12.078125 10.175781 -6.117188 7.277344 -2.449219 C 5.21875 0 2.578125 -3.1875 1.675781 -4.316406 C 1.546875 -4.476562 1.289062 -4.507812 1.128906 -4.378906 L 0 -3.542969 C -0.160156 -3.414062 -0.191406 -3.1875 -0.0976562 -3.027344 C 0.484375 -2.027344 2.480469 0.902344 5.699219 0.707031 C 9.179688 0.484375 10.628906 -1.898438 10.402344 -5.476562 C 10.046875 -10.59375 4.605469 -14.394531 5.925781 -17.101562 C 6.890625 -19.03125 8.792969 -17.617188 9.566406 -17.003906 C 9.726562 -16.875 9.949219 -16.875 10.113281 -17.003906 Z M 10.113281 -17.003906 "/></g></g></g><g fill="#ffffff" fill-opacity="1"><g transform="translate(200.31294, 40.319169)"><g><path d="M 13.074219 -21.03125 C 8.210938 -21.253906 4.636719 -20.609375 3.285156 -20.386719 C 3.21875 -20.386719 3.1875 -20.386719 3.15625 -20.351562 L 2.960938 -20.320312 C 2.867188 -20.320312 2.800781 -20.257812 2.800781 -20.160156 L 1.738281 -11.691406 L 1.449219 -9.242188 L 0.355469 -0.226562 C 0.355469 -0.0976562 0.449219 0 0.578125 0 L 2.800781 -0.128906 C 2.929688 -0.128906 2.996094 -0.226562 3.027344 -0.320312 L 4.121094 -9.46875 C 6.28125 -9.597656 7.859375 -9.628906 8.46875 -9.660156 C 8.628906 -9.660156 8.757812 -9.789062 8.792969 -9.949219 L 8.921875 -11.59375 C 8.921875 -11.785156 8.792969 -11.949219 8.628906 -11.949219 C 7.308594 -12.011719 5.859375 -11.980469 4.445312 -11.882812 L 5.21875 -18.324219 C 9.855469 -18.9375 11.820312 -18.710938 12.914062 -18.710938 C 13.074219 -18.742188 13.234375 -18.839844 13.234375 -19.03125 L 13.363281 -20.675781 C 13.398438 -20.867188 13.269531 -20.996094 13.074219 -21.03125 Z M 13.074219 -21.03125 "/></g></g></g><g fill="#ffffff" fill-opacity="1"><g transform="translate(210.198618, 40.319169)"><g><path d="M 12.367188 -20.03125 C 9.4375 -20.03125 7.214844 -18.164062 5.667969 -16.199219 L 6.503906 -20.933594 C 6.539062 -21.0625 6.441406 -21.191406 6.3125 -21.191406 L 4.027344 -21.09375 C 3.929688 -21.0625 3.832031 -20.996094 3.832031 -20.902344 L 0.191406 -0.257812 C 0.160156 -0.128906 0.257812 0 0.386719 0 L 2.640625 -0.03125 C 2.738281 -0.03125 2.835938 -0.0976562 2.835938 -0.191406 L 3.800781 -5.636719 C 3.898438 -5.636719 3.992188 -5.667969 4.089844 -5.667969 C 4.863281 -3.992188 6.957031 -0.546875 11.691406 -0.289062 C 12.011719 -0.289062 12.269531 -0.546875 12.269531 -0.835938 C 12.300781 -1.257812 12.269531 -1.546875 12.238281 -1.769531 C 12.207031 -2.027344 12.011719 -2.222656 11.753906 -2.253906 C 10.722656 -2.414062 8.210938 -3.511719 6.375 -6.3125 C 9.53125 -7.503906 14.007812 -10.046875 15.554688 -13.785156 C 16.90625 -17.066406 15.234375 -20.03125 12.367188 -20.03125 Z M 13.914062 -15.84375 C 13.816406 -12.753906 7.601562 -8.921875 4.25 -8.117188 L 4.765625 -10.980469 C 6.34375 -13.332031 9.824219 -18.003906 12.171875 -18.003906 C 12.945312 -18.003906 14.007812 -17.875 13.914062 -15.84375 Z M 13.914062 -15.84375 "/></g></g></g><g fill="#ffffff" fill-opacity="1"><g transform="translate(227.361625, 40.319169)"><g><path d="M 10.242188 -21.191406 C 4.476562 -22.832031 0.484375 -3.027344 0 -0.835938 C -0.03125 -0.742188 0.0625 -0.613281 0.160156 -0.613281 L 2.09375 -0.289062 C 2.222656 -0.289062 2.320312 -0.355469 2.320312 -0.449219 C 2.511719 -1.160156 3.1875 -4.058594 4.121094 -7.308594 C 5.828125 -7.472656 8.503906 -7.601562 10.242188 -7.664062 C 10.078125 -4.28125 9.824219 -1.160156 9.726562 -0.355469 C 9.726562 -0.226562 9.824219 -0.128906 9.949219 -0.128906 L 12.109375 -0.128906 C 12.207031 -0.128906 12.300781 -0.191406 12.300781 -0.289062 C 12.59375 -2.320312 14.554688 -19.964844 10.242188 -21.191406 Z M 4.832031 -9.695312 C 6.214844 -14.234375 7.953125 -18.644531 9.402344 -18.324219 C 10.304688 -18.097656 10.433594 -14.136719 10.335938 -9.984375 C 8.46875 -9.984375 6.152344 -9.824219 4.832031 -9.695312 Z M 4.832031 -9.695312 "/></g></g></g><g fill="#ffffff" fill-opacity="1"><g transform="translate(243.236625, 40.319169)"><g><path d="M 6.214844 -2.382812 C 4.378906 -2.222656 2.511719 -3.734375 3.058594 -8.695312 C 3.316406 -11.078125 3.992188 -12.914062 4.636719 -14.234375 C 4.667969 -14.296875 6.761719 -18.9375 9.082031 -18.9375 C 10.722656 -18.9375 11.109375 -17.195312 11.398438 -15.910156 C 11.464844 -15.714844 11.625 -15.585938 11.851562 -15.585938 L 13.171875 -15.78125 C 13.398438 -15.8125 13.558594 -16.039062 13.492188 -16.261719 C 13.460938 -16.425781 13.429688 -16.84375 13.363281 -17.066406 C 12.65625 -21.160156 9.597656 -21.382812 7.664062 -20.738281 C 3.476562 -19.355469 1.160156 -13.785156 0.578125 -9.628906 C 0.160156 -6.667969 0.257812 -0.644531 5.089844 -0.03125 C 8.566406 0.386719 12.367188 -2.707031 13.945312 -5.894531 C 14.074219 -6.085938 13.976562 -6.34375 13.75 -6.441406 L 12.398438 -7.019531 C 12.238281 -7.085938 12.042969 -7.019531 11.949219 -6.890625 C 10.113281 -4.1875 7.34375 -2.480469 6.214844 -2.382812 Z M 6.214844 -2.382812 "/></g></g></g><g fill="#ffffff" fill-opacity="1"><g transform="translate(259.401429, 40.319169)"><g><path d="M 10.949219 -20.160156 C 10.015625 -20.160156 7.730469 -20.289062 5.605469 -20.222656 C 4.410156 -20.191406 4.28125 -20.191406 3.832031 -20.160156 C 3.800781 -20.160156 3.605469 -20.160156 3.414062 -20.128906 C 3.125 -20.09375 2.867188 -19.871094 2.835938 -19.582031 C 2.671875 -18.839844 2.414062 -17.519531 2.414062 -17.519531 L 1.640625 -11.691406 L 1.320312 -9.402344 L 0.191406 -0.804688 C 0.160156 -0.773438 0.191406 -0.742188 0.191406 -0.675781 C 0.226562 -0.320312 0.515625 -0.0625 0.835938 0 C 0.871094 0 1.222656 -0.03125 1.386719 -0.03125 C 1.386719 -0.03125 7.761719 -0.191406 8.664062 -0.191406 C 8.792969 -0.191406 8.921875 -0.289062 8.953125 -0.449219 L 9.179688 -2.027344 C 9.210938 -2.191406 9.082031 -2.320312 8.921875 -2.320312 C 7.601562 -2.320312 5.21875 -2.449219 3.027344 -2.382812 L 3.992188 -9.53125 C 6.214844 -9.46875 7.34375 -9.566406 8.050781 -9.53125 C 8.179688 -9.53125 8.308594 -9.660156 8.339844 -9.789062 L 8.566406 -11.335938 C 8.597656 -11.496094 8.46875 -11.65625 8.308594 -11.65625 C 6.988281 -11.65625 6.023438 -11.65625 4.316406 -11.785156 L 5.28125 -17.96875 C 7.988281 -18.003906 9.855469 -18.035156 10.691406 -18.035156 C 10.820312 -18.035156 10.949219 -18.132812 10.980469 -18.261719 L 11.207031 -19.839844 C 11.207031 -20 11.109375 -20.160156 10.949219 -20.160156 Z M 10.949219 -20.160156 "/></g></g></g><g fill="#ffffff" fill-opacity="1"><g transform="translate(270.993744, 40.319169)"><g><path d="M 10.113281 -17.003906 L 11.078125 -17.875 C 11.238281 -18.003906 11.273438 -18.292969 11.109375 -18.453125 C 10.59375 -19 9.4375 -20 7.761719 -20.160156 C 5.183594 -20.417969 3.929688 -19.195312 3.445312 -16.90625 C 2.449219 -12.078125 10.175781 -6.117188 7.277344 -2.449219 C 5.21875 0 2.578125 -3.1875 1.675781 -4.316406 C 1.546875 -4.476562 1.289062 -4.507812 1.128906 -4.378906 L 0 -3.542969 C -0.160156 -3.414062 -0.191406 -3.1875 -0.0976562 -3.027344 C 0.484375 -2.027344 2.480469 0.902344 5.699219 0.707031 C 9.179688 0.484375 10.628906 -1.898438 10.402344 -5.476562 C 10.046875 -10.59375 4.605469 -14.394531 5.925781 -17.101562 C 6.890625 -19.03125 8.792969 -17.617188 9.566406 -17.003906 C 9.726562 -16.875 9.949219 -16.875 10.113281 -17.003906 Z M 10.113281 -17.003906 "/></g></g></g><g clip-path="url(#037a0d6f9a)"><path fill="#ffffff" d="M 40.277344 53.953125 C 39.097656 54.027344 37.921875 54.171875 36.757812 54.382812 C 36.191406 54.472656 35.617188 54.550781 35.054688 54.6875 C 34.542969 54.8125 34.023438 54.96875 33.492188 54.964844 C 32.625 53.375 32.171875 51.605469 31.398438 49.976562 C 31.195312 49.511719 30.941406 49.082031 30.640625 48.679688 C 30.589844 48.617188 30.503906 48.691406 30.53125 48.753906 C 30.523438 48.761719 30.519531 48.773438 30.515625 48.78125 C 29.941406 51.066406 29.34375 53.347656 28.691406 55.609375 C 28.675781 55.582031 28.652344 55.570312 28.625 55.574219 C 27.699219 55.625 26.789062 55.769531 25.894531 56.011719 C 25 56.230469 24.125 56.519531 23.277344 56.886719 C 23.246094 56.898438 23.234375 56.921875 23.234375 56.957031 C 23.210938 56.992188 23.21875 57.023438 23.257812 57.042969 C 23.40625 57.128906 23.535156 57.234375 23.648438 57.359375 C 23.78125 57.492188 23.910156 57.621094 24.042969 57.753906 C 24.390625 58.089844 24.761719 58.402344 25.148438 58.695312 C 26.03125 59.386719 26.964844 60.015625 27.90625 60.625 C 27.792969 61.128906 27.707031 61.636719 27.613281 62.140625 C 27.507812 62.703125 27.40625 63.265625 27.292969 63.828125 C 27.078125 64.941406 26.835938 66.050781 26.597656 67.160156 C 26.585938 67.210938 26.601562 67.246094 26.652344 67.269531 C 26.699219 67.289062 26.738281 67.28125 26.769531 67.238281 C 27.144531 67.019531 27.5 66.769531 27.832031 66.484375 C 28.199219 66.183594 28.558594 65.875 28.914062 65.5625 C 29.640625 64.921875 30.351562 64.265625 31.050781 63.601562 C 31.449219 63.21875 31.84375 62.832031 32.234375 62.445312 C 32.632812 62.632812 33.023438 62.84375 33.398438 63.074219 C 33.8125 63.320312 34.242188 63.535156 34.667969 63.753906 C 35.558594 64.214844 36.453125 64.667969 37.34375 65.132812 C 37.855469 65.394531 38.359375 65.667969 38.871094 65.929688 C 38.976562 65.984375 39.066406 65.828125 38.960938 65.769531 L 38.929688 65.75 C 38.957031 65.71875 38.960938 65.6875 38.941406 65.648438 C 38.488281 64.742188 38.019531 63.839844 37.574219 62.929688 C 37.351562 62.476562 37.132812 62.027344 36.90625 61.578125 C 36.695312 61.113281 36.457031 60.660156 36.195312 60.21875 C 36.175781 60.183594 36.144531 60.175781 36.109375 60.199219 C 36.074219 60.21875 36.066406 60.25 36.085938 60.285156 C 36.28125 60.753906 36.542969 61.203125 36.765625 61.660156 C 36.984375 62.113281 37.203125 62.566406 37.421875 63.019531 C 37.847656 63.902344 38.261719 64.792969 38.738281 65.648438 C 37.925781 65.199219 37.09375 64.785156 36.265625 64.363281 C 35.378906 63.910156 34.464844 63.488281 33.597656 62.992188 C 33.164062 62.746094 32.734375 62.460938 32.257812 62.308594 C 32.214844 62.226562 32.164062 62.21875 32.097656 62.28125 C 30.738281 63.613281 29.359375 64.917969 27.921875 66.160156 C 27.566406 66.464844 27.203125 66.757812 26.824219 67.027344 C 27.078125 65.976562 27.289062 64.914062 27.492188 63.851562 C 27.699219 62.761719 27.929688 61.667969 28.0625 60.566406 C 28.0625 60.5625 28.066406 60.558594 28.066406 60.550781 C 28.066406 60.539062 28.070312 60.523438 28.070312 60.511719 C 28.074219 60.464844 28.039062 60.441406 28 60.441406 C 27.050781 59.828125 26.109375 59.195312 25.214844 58.5 C 24.832031 58.214844 24.46875 57.90625 24.121094 57.578125 C 23.929688 57.363281 23.714844 57.171875 23.480469 57.007812 C 25.136719 56.335938 26.851562 55.914062 28.625 55.742188 C 28.652344 55.738281 28.675781 55.722656 28.691406 55.699219 C 28.710938 55.738281 28.742188 55.753906 28.78125 55.75 C 28.824219 55.746094 28.851562 55.726562 28.867188 55.683594 C 29.519531 53.457031 30.109375 51.210938 30.636719 48.945312 C 30.824219 49.265625 31.007812 49.582031 31.167969 49.917969 C 31.371094 50.339844 31.546875 50.773438 31.714844 51.210938 C 32.046875 52.070312 32.339844 52.941406 32.699219 53.789062 C 32.878906 54.222656 33.085938 54.644531 33.320312 55.050781 C 33.320312 55.074219 33.332031 55.089844 33.351562 55.105469 C 33.363281 55.125 33.375 55.148438 33.386719 55.167969 C 33.410156 55.207031 33.445312 55.21875 33.488281 55.210938 C 33.53125 55.199219 33.554688 55.171875 33.558594 55.125 C 34.046875 55.128906 34.527344 55 35 54.882812 C 35.558594 54.746094 36.128906 54.667969 36.695312 54.578125 C 37.835938 54.394531 38.976562 54.222656 40.125 54.140625 C 39.890625 54.496094 39.667969 54.859375 39.421875 55.207031 C 39.125 55.617188 38.816406 56.015625 38.503906 56.414062 C 37.90625 57.175781 37.300781 57.9375 36.792969 58.769531 C 36.730469 58.871094 36.886719 58.960938 36.953125 58.863281 C 37.484375 58.023438 38.09375 57.246094 38.699219 56.460938 C 38.992188 56.085938 39.28125 55.707031 39.554688 55.316406 C 39.847656 54.9375 40.101562 54.535156 40.324219 54.113281 C 40.386719 54.066406 40.371094 53.949219 40.277344 53.953125 Z M 40.277344 53.953125 " fill-opacity="1" fill-rule="nonzero"/></g><g clip-path="url(#673c4c4f58)"><path fill="#ffffff" d="M 63.585938 97.097656 C 62.761719 97.148438 61.945312 97.246094 61.136719 97.386719 C 60.742188 97.449219 60.339844 97.5 59.953125 97.59375 C 59.59375 97.683594 59.234375 97.789062 58.863281 97.785156 C 58.261719 96.703125 57.945312 95.5 57.410156 94.390625 C 57.265625 94.078125 57.089844 93.785156 56.878906 93.507812 C 56.847656 93.46875 56.785156 93.515625 56.804688 93.5625 C 56.800781 93.566406 56.796875 93.574219 56.792969 93.582031 C 56.394531 95.132812 55.980469 96.683594 55.523438 98.222656 C 55.515625 98.203125 55.5 98.195312 55.476562 98.199219 C 54.835938 98.234375 54.203125 98.332031 53.578125 98.496094 C 52.957031 98.644531 52.351562 98.84375 51.761719 99.089844 C 51.738281 99.097656 51.730469 99.117188 51.730469 99.136719 C 51.714844 99.164062 51.71875 99.183594 51.746094 99.195312 C 51.847656 99.253906 51.9375 99.328125 52.015625 99.414062 C 52.109375 99.503906 52.199219 99.589844 52.292969 99.679688 C 52.535156 99.910156 52.792969 100.121094 53.0625 100.320312 C 53.675781 100.792969 54.324219 101.21875 54.976562 101.632812 C 54.902344 101.976562 54.84375 102.320312 54.777344 102.664062 C 54.703125 103.046875 54.628906 103.429688 54.554688 103.808594 C 54.402344 104.566406 54.234375 105.320312 54.066406 106.074219 C 54.058594 106.109375 54.074219 106.136719 54.105469 106.152344 C 54.140625 106.167969 54.167969 106.160156 54.1875 106.128906 C 54.449219 105.980469 54.695312 105.8125 54.925781 105.617188 C 55.183594 105.414062 55.433594 105.203125 55.679688 104.988281 C 56.183594 104.554688 56.679688 104.109375 57.164062 103.65625 C 57.441406 103.398438 57.71875 103.132812 57.988281 102.871094 C 58.265625 103 58.535156 103.140625 58.796875 103.300781 C 59.085938 103.464844 59.386719 103.609375 59.683594 103.761719 C 60.300781 104.074219 60.925781 104.382812 61.542969 104.699219 C 61.898438 104.878906 62.25 105.0625 62.605469 105.242188 C 62.679688 105.277344 62.742188 105.171875 62.667969 105.128906 L 62.648438 105.117188 C 62.664062 105.097656 62.667969 105.074219 62.65625 105.050781 C 62.339844 104.433594 62.015625 103.820312 61.703125 103.199219 C 61.550781 102.894531 61.398438 102.585938 61.238281 102.28125 C 61.089844 101.964844 60.925781 101.65625 60.746094 101.359375 C 60.730469 101.332031 60.710938 101.328125 60.683594 101.34375 C 60.660156 101.359375 60.65625 101.378906 60.667969 101.402344 C 60.804688 101.722656 60.984375 102.027344 61.140625 102.339844 C 61.292969 102.644531 61.445312 102.953125 61.597656 103.261719 C 61.894531 103.859375 62.183594 104.46875 62.515625 105.046875 C 61.949219 104.746094 61.371094 104.460938 60.792969 104.175781 C 60.175781 103.867188 59.539062 103.582031 58.9375 103.242188 C 58.636719 103.074219 58.339844 102.882812 58.007812 102.777344 C 57.976562 102.722656 57.9375 102.71875 57.894531 102.761719 C 56.949219 103.664062 55.988281 104.550781 54.988281 105.398438 C 54.742188 105.605469 54.492188 105.800781 54.226562 105.984375 C 54.402344 105.273438 54.550781 104.550781 54.691406 103.828125 C 54.835938 103.085938 54.996094 102.339844 55.089844 101.59375 C 55.089844 101.589844 55.089844 101.585938 55.089844 101.582031 C 55.089844 101.574219 55.09375 101.566406 55.09375 101.554688 C 55.097656 101.523438 55.070312 101.507812 55.046875 101.507812 C 54.382812 101.089844 53.730469 100.660156 53.105469 100.1875 C 52.839844 99.992188 52.585938 99.785156 52.347656 99.558594 C 52.214844 99.414062 52.066406 99.285156 51.902344 99.171875 C 53.054688 98.714844 54.246094 98.429688 55.476562 98.3125 C 55.5 98.3125 55.515625 98.300781 55.523438 98.28125 C 55.539062 98.308594 55.558594 98.320312 55.589844 98.320312 C 55.617188 98.316406 55.636719 98.300781 55.648438 98.273438 C 56.101562 96.757812 56.511719 95.230469 56.878906 93.691406 C 57.007812 93.910156 57.136719 94.125 57.246094 94.355469 C 57.390625 94.640625 57.511719 94.933594 57.628906 95.234375 C 57.859375 95.816406 58.0625 96.410156 58.3125 96.984375 C 58.4375 97.28125 58.582031 97.566406 58.742188 97.84375 C 58.746094 97.859375 58.753906 97.871094 58.765625 97.878906 C 58.773438 97.894531 58.78125 97.910156 58.789062 97.921875 C 58.808594 97.949219 58.832031 97.957031 58.859375 97.949219 C 58.890625 97.945312 58.910156 97.925781 58.910156 97.894531 C 59.25 97.894531 59.585938 97.808594 59.914062 97.730469 C 60.300781 97.636719 60.699219 97.582031 61.09375 97.519531 C 61.882812 97.394531 62.679688 97.277344 63.480469 97.222656 C 63.3125 97.464844 63.160156 97.714844 62.988281 97.949219 C 62.78125 98.226562 62.566406 98.5 62.351562 98.769531 C 61.933594 99.289062 61.515625 99.804688 61.160156 100.371094 C 61.117188 100.441406 61.226562 100.503906 61.269531 100.433594 C 61.640625 99.863281 62.066406 99.335938 62.484375 98.804688 C 62.6875 98.546875 62.890625 98.289062 63.082031 98.023438 C 63.285156 97.765625 63.460938 97.492188 63.617188 97.203125 C 63.660156 97.171875 63.648438 97.09375 63.585938 97.097656 Z M 63.585938 97.097656 " fill-opacity="1" fill-rule="nonzero"/></g></svg>